<?xml version="1.0" encoding="UTF-8"?>
<svg xmlns="http://www.w3.org/2000/svg" xmlns:xlink="http://www.w3.org/1999/xlink" width="388pt" height="63pt" viewBox="0 0 388 63" version="1.1">
<g id="surface1">
<path style="fill:none;stroke-width:9.9211;stroke-linecap:butt;stroke-linejoin:miter;stroke:rgb(0%,0%,0%);stroke-opacity:1;stroke-miterlimit:10;" d="M 4.960938 621.328125 L 305.429688 621.328125 L 405.585938 521.132812 L 405.585938 120.507812 L 4.960938 120.507812 Z M 4.960938 621.328125 " transform="matrix(0.1,0,0,-0.1,0,63)"/>
<path style="fill:none;stroke-width:9.9211;stroke-linecap:butt;stroke-linejoin:miter;stroke:rgb(0%,0%,0%);stroke-opacity:1;stroke-miterlimit:10;" d="M 305.429688 621.328125 L 305.429688 521.132812 L 405.585938 521.132812 " transform="matrix(0.1,0,0,-0.1,0,63)"/>
<path style=" stroke:none;fill-rule:nonzero;fill:rgb(0%,0%,0%);fill-opacity:1;" d="M 11.9375 24.265625 C 11.9375 23.386719 11.359375 22.664062 10.621094 22.484375 L 9.503906 22.214844 C 8.960938 22.09375 8.617188 21.652344 8.617188 21.144531 C 8.617188 20.53125 9.089844 19.996094 9.773438 19.996094 C 11.234375 19.996094 11.425781 21.429688 11.480469 21.816406 C 11.488281 21.867188 11.488281 21.914062 11.585938 21.914062 C 11.699219 21.914062 11.699219 21.875 11.699219 21.71875 L 11.699219 19.960938 C 11.699219 19.8125 11.699219 19.75 11.601562 19.75 C 11.542969 19.75 11.53125 19.757812 11.472656 19.863281 L 11.164062 20.363281 C 10.902344 20.109375 10.542969 19.75 9.765625 19.75 C 8.792969 19.75 8.058594 20.519531 8.058594 21.449219 C 8.058594 22.140625 8.523438 22.777344 9.207031 23.015625 C 9.300781 23.050781 9.746094 23.15625 10.359375 23.304688 C 10.597656 23.367188 10.859375 23.429688 11.105469 23.757812 C 11.289062 23.988281 11.375 24.277344 11.375 24.5625 C 11.375 25.175781 10.9375 25.800781 10.203125 25.800781 C 9.949219 25.800781 9.28125 25.757812 8.820312 25.335938 C 8.3125 24.867188 8.285156 24.308594 8.277344 23.996094 C 8.269531 23.90625 8.199219 23.90625 8.171875 23.90625 C 8.058594 23.90625 8.058594 23.96875 8.058594 24.125 L 8.058594 25.863281 C 8.058594 26.011719 8.058594 26.074219 8.152344 26.074219 C 8.214844 26.074219 8.226562 26.058594 8.285156 25.960938 C 8.285156 25.960938 8.3125 25.925781 8.601562 25.464844 C 8.871094 25.757812 9.433594 26.074219 10.210938 26.074219 C 11.234375 26.074219 11.9375 25.222656 11.9375 24.265625 "/>
<path style=" stroke:none;fill-rule:nonzero;fill:rgb(0%,0%,0%);fill-opacity:1;" d="M 16.671875 24.019531 C 16.671875 22.894531 15.796875 21.96875 14.738281 21.96875 C 13.644531 21.96875 12.792969 22.921875 12.792969 24.019531 C 12.792969 25.152344 13.703125 25.992188 14.726562 25.992188 C 15.785156 25.992188 16.671875 25.132812 16.671875 24.019531 M 15.945312 23.949219 C 15.945312 24.265625 15.945312 24.738281 15.753906 25.125 C 15.558594 25.519531 15.175781 25.773438 14.738281 25.773438 C 14.359375 25.773438 13.976562 25.589844 13.738281 25.183594 C 13.519531 24.800781 13.519531 24.265625 13.519531 23.949219 C 13.519531 23.605469 13.519531 23.132812 13.730469 22.746094 C 13.964844 22.34375 14.378906 22.160156 14.726562 22.160156 C 15.113281 22.160156 15.488281 22.351562 15.71875 22.730469 C 15.945312 23.105469 15.945312 23.617188 15.945312 23.949219 "/>
<path style=" stroke:none;fill-rule:nonzero;fill:rgb(0%,0%,0%);fill-opacity:1;" d="M 21.714844 25.910156 L 21.714844 25.640625 C 21.105469 25.640625 21.03125 25.578125 21.03125 25.148438 L 21.03125 22.050781 L 19.746094 22.132812 L 19.746094 22.402344 C 20.359375 22.402344 20.429688 22.464844 20.429688 22.890625 L 20.429688 24.4375 C 20.429688 25.195312 20.007812 25.796875 19.371094 25.796875 C 18.636719 25.796875 18.601562 25.382812 18.601562 24.921875 L 18.601562 22.050781 L 17.3125 22.132812 L 17.3125 22.402344 C 17.996094 22.402344 17.996094 22.429688 17.996094 23.203125 L 17.996094 24.507812 C 17.996094 25.1875 17.996094 25.992188 19.328125 25.992188 C 19.816406 25.992188 20.203125 25.746094 20.457031 25.195312 L 20.457031 25.992188 L 21.714844 25.910156 "/>
<path style=" stroke:none;fill-rule:nonzero;fill:rgb(0%,0%,0%);fill-opacity:1;" d="M 25.199219 22.585938 C 25.199219 22.304688 24.929688 22.050781 24.550781 22.050781 C 23.914062 22.050781 23.597656 22.636719 23.476562 23.011719 L 23.476562 22.050781 L 22.257812 22.132812 L 22.257812 22.402344 C 22.871094 22.402344 22.941406 22.464844 22.941406 22.894531 L 22.941406 25.246094 C 22.941406 25.640625 22.84375 25.640625 22.257812 25.640625 L 22.257812 25.910156 L 23.257812 25.882812 C 23.609375 25.882812 24.019531 25.882812 24.367188 25.910156 L 24.367188 25.640625 L 24.183594 25.640625 C 23.535156 25.640625 23.519531 25.542969 23.519531 25.226562 L 23.519531 23.875 C 23.519531 23.023438 23.886719 22.242188 24.550781 22.242188 C 24.613281 22.242188 24.632812 22.242188 24.648438 22.25 C 24.621094 22.257812 24.449219 22.363281 24.449219 22.59375 C 24.449219 22.835938 24.632812 22.96875 24.824219 22.96875 C 24.980469 22.96875 25.199219 22.863281 25.199219 22.585938 "/>
<path style=" stroke:none;fill-rule:nonzero;fill:rgb(0%,0%,0%);fill-opacity:1;" d="M 29.164062 24.863281 C 29.164062 24.777344 29.078125 24.777344 29.050781 24.777344 C 28.972656 24.777344 28.957031 24.8125 28.9375 24.863281 C 28.683594 25.667969 28.113281 25.773438 27.789062 25.773438 C 27.328125 25.773438 26.554688 25.402344 26.554688 24.007812 C 26.554688 22.585938 27.277344 22.1875 27.738281 22.1875 C 27.816406 22.1875 28.367188 22.195312 28.675781 22.542969 C 28.316406 22.570312 28.261719 22.832031 28.261719 22.945312 C 28.261719 23.171875 28.421875 23.347656 28.667969 23.347656 C 28.894531 23.347656 29.070312 23.199219 29.070312 22.9375 C 29.070312 22.320312 28.40625 21.96875 27.730469 21.96875 C 26.636719 21.96875 25.832031 22.945312 25.832031 24.023438 C 25.832031 25.132812 26.699219 25.992188 27.714844 25.992188 C 28.886719 25.992188 29.164062 24.949219 29.164062 24.863281 "/>
<path style=" stroke:none;fill-rule:nonzero;fill:rgb(0%,0%,0%);fill-opacity:1;" d="M 33.128906 24.855469 C 33.128906 24.769531 33.058594 24.75 33.015625 24.75 C 32.9375 24.75 32.917969 24.804688 32.902344 24.871094 C 32.597656 25.773438 31.808594 25.773438 31.722656 25.773438 C 31.285156 25.773438 30.933594 25.511719 30.730469 25.1875 C 30.46875 24.769531 30.46875 24.191406 30.46875 23.875 L 32.910156 23.875 C 33.101562 23.875 33.128906 23.875 33.128906 23.691406 C 33.128906 22.820312 32.65625 21.96875 31.5625 21.96875 C 30.546875 21.96875 29.742188 22.871094 29.742188 23.972656 C 29.742188 25.144531 30.664062 25.992188 31.667969 25.992188 C 32.734375 25.992188 33.128906 25.019531 33.128906 24.855469 M 32.550781 23.691406 L 30.476562 23.691406 C 30.53125 22.378906 31.265625 22.160156 31.5625 22.160156 C 32.464844 22.160156 32.550781 23.347656 32.550781 23.691406 "/>
<path style=" stroke:none;fill-rule:nonzero;fill:rgb(0%,0%,0%);fill-opacity:1;" d="M 15.332031 36.0625 C 15.332031 35.976562 15.242188 35.976562 15.214844 35.976562 C 15.136719 35.976562 15.121094 36.011719 15.101562 36.0625 C 14.847656 36.867188 14.28125 36.972656 13.957031 36.972656 C 13.492188 36.972656 12.722656 36.601562 12.722656 35.207031 C 12.722656 33.785156 13.441406 33.386719 13.902344 33.386719 C 13.984375 33.386719 14.53125 33.394531 14.839844 33.742188 C 14.480469 33.769531 14.429688 34.03125 14.429688 34.144531 C 14.429688 34.371094 14.585938 34.546875 14.832031 34.546875 C 15.058594 34.546875 15.234375 34.398438 15.234375 34.136719 C 15.234375 33.519531 14.570312 33.167969 13.894531 33.167969 C 12.800781 33.167969 11.996094 34.144531 11.996094 35.222656 C 11.996094 36.332031 12.863281 37.191406 13.878906 37.191406 C 15.050781 37.191406 15.332031 36.152344 15.332031 36.0625 "/>
<path style=" stroke:none;fill-rule:nonzero;fill:rgb(0%,0%,0%);fill-opacity:1;" d="M 19.785156 35.21875 C 19.785156 34.09375 18.910156 33.167969 17.851562 33.167969 C 16.757812 33.167969 15.90625 34.121094 15.90625 35.21875 C 15.90625 36.351562 16.816406 37.191406 17.84375 37.191406 C 18.902344 37.191406 19.785156 36.332031 19.785156 35.21875 M 19.058594 35.148438 C 19.058594 35.464844 19.058594 35.9375 18.867188 36.324219 C 18.671875 36.71875 18.289062 36.972656 17.851562 36.972656 C 17.472656 36.972656 17.089844 36.789062 16.851562 36.386719 C 16.632812 36 16.632812 35.464844 16.632812 35.148438 C 16.632812 34.804688 16.632812 34.332031 16.84375 33.945312 C 17.078125 33.542969 17.492188 33.359375 17.84375 33.359375 C 18.226562 33.359375 18.601562 33.554688 18.832031 33.929688 C 19.058594 34.304688 19.058594 34.816406 19.058594 35.148438 "/>
<path style=" stroke:none;fill-rule:nonzero;fill:rgb(0%,0%,0%);fill-opacity:1;" d="M 25.007812 37.109375 L 25.007812 36.839844 C 24.394531 36.839844 24.324219 36.773438 24.324219 36.3125 L 24.324219 31.03125 L 23.066406 31.113281 L 23.066406 31.386719 C 23.675781 31.386719 23.746094 31.449219 23.746094 31.882812 L 23.746094 33.789062 C 23.492188 33.476562 23.117188 33.25 22.644531 33.25 C 21.613281 33.25 20.691406 34.101562 20.691406 35.226562 C 20.691406 36.332031 21.550781 37.191406 22.546875 37.191406 C 23.109375 37.191406 23.503906 36.894531 23.722656 36.617188 L 23.722656 37.191406 L 25.007812 37.109375 M 23.722656 36.078125 C 23.722656 36.234375 23.722656 36.253906 23.625 36.402344 C 23.363281 36.800781 22.96875 37 22.59375 37 C 22.199219 37 21.882812 36.765625 21.671875 36.421875 C 21.445312 36.058594 21.417969 35.570312 21.417969 35.214844 C 21.417969 34.898438 21.4375 34.382812 21.691406 33.992188 C 21.875 33.726562 22.207031 33.441406 22.679688 33.441406 C 22.984375 33.441406 23.355469 33.570312 23.625 33.957031 C 23.722656 34.105469 23.722656 34.121094 23.722656 34.277344 L 23.722656 36.078125 "/>
<path style=" stroke:none;fill-rule:nonzero;fill:rgb(0%,0%,0%);fill-opacity:1;" d="M 29.007812 36.054688 C 29.007812 35.96875 28.9375 35.949219 28.894531 35.949219 C 28.816406 35.949219 28.796875 36.003906 28.78125 36.074219 C 28.472656 36.972656 27.6875 36.972656 27.597656 36.972656 C 27.160156 36.972656 26.8125 36.710938 26.609375 36.386719 C 26.347656 35.96875 26.347656 35.390625 26.347656 35.078125 L 28.789062 35.078125 C 28.980469 35.078125 29.007812 35.078125 29.007812 34.890625 C 29.007812 34.019531 28.535156 33.167969 27.441406 33.167969 C 26.425781 33.167969 25.621094 34.074219 25.621094 35.171875 C 25.621094 36.34375 26.539062 37.191406 27.546875 37.191406 C 28.613281 37.191406 29.007812 36.222656 29.007812 36.054688 M 28.429688 34.890625 L 26.355469 34.890625 C 26.40625 33.582031 27.144531 33.359375 27.441406 33.359375 C 28.34375 33.359375 28.429688 34.546875 28.429688 34.890625 "/>
<path style="fill:none;stroke-width:9.9211;stroke-linecap:butt;stroke-linejoin:miter;stroke:rgb(0%,0%,0%);stroke-opacity:1;stroke-miterlimit:10;" d="M 798.632812 224.453125 L 1294.6875 224.453125 L 1294.6875 522.109375 L 798.632812 522.109375 Z M 798.632812 224.453125 " transform="matrix(0.1,0,0,-0.1,0,63)"/>
<path style=" stroke:none;fill-rule:nonzero;fill:rgb(0%,0%,0%);fill-opacity:1;" d="M 92.554688 28.136719 C 92.554688 28.050781 92.554688 27.988281 92.441406 27.988281 C 92.34375 27.988281 92.34375 28.042969 92.335938 28.128906 C 92.265625 29.371094 91.328125 30.085938 90.375 30.085938 C 89.84375 30.085938 88.125 29.789062 88.125 27.199219 C 88.125 24.597656 89.832031 24.304688 90.367188 24.304688 C 91.320312 24.304688 92.097656 25.09375 92.277344 26.363281 C 92.292969 26.484375 92.292969 26.511719 92.414062 26.511719 C 92.554688 26.511719 92.554688 26.484375 92.554688 26.304688 L 92.554688 24.242188 C 92.554688 24.09375 92.554688 24.03125 92.460938 24.03125 C 92.425781 24.03125 92.386719 24.03125 92.320312 24.136719 L 91.882812 24.78125 C 91.554688 24.46875 91.109375 24.03125 90.269531 24.03125 C 88.632812 24.03125 87.222656 25.417969 87.222656 27.191406 C 87.222656 28.988281 88.640625 30.355469 90.269531 30.355469 C 91.699219 30.355469 92.554688 29.144531 92.554688 28.136719 "/>
<path style=" stroke:none;fill-rule:nonzero;fill:rgb(0%,0%,0%);fill-opacity:1;" d="M 97.324219 28.300781 C 97.324219 27.179688 96.449219 26.25 95.390625 26.25 C 94.296875 26.25 93.445312 27.207031 93.445312 28.300781 C 93.445312 29.433594 94.355469 30.273438 95.382812 30.273438 C 96.441406 30.273438 97.324219 29.414062 97.324219 28.300781 M 96.597656 28.230469 C 96.597656 28.546875 96.597656 29.019531 96.40625 29.40625 C 96.214844 29.800781 95.828125 30.054688 95.390625 30.054688 C 95.011719 30.054688 94.628906 29.871094 94.390625 29.46875 C 94.175781 29.082031 94.175781 28.546875 94.175781 28.230469 C 94.175781 27.890625 94.175781 27.414062 94.382812 27.03125 C 94.621094 26.625 95.03125 26.441406 95.382812 26.441406 C 95.765625 26.441406 96.144531 26.636719 96.371094 27.011719 C 96.597656 27.390625 96.597656 27.898438 96.597656 28.230469 "/>
<path style=" stroke:none;fill-rule:nonzero;fill:rgb(0%,0%,0%);fill-opacity:1;" d="M 104.800781 30.191406 L 104.800781 29.921875 C 104.347656 29.921875 104.128906 29.921875 104.121094 29.660156 L 104.121094 27.992188 C 104.121094 27.238281 104.121094 26.96875 103.847656 26.65625 C 103.726562 26.507812 103.4375 26.332031 102.929688 26.332031 C 102.195312 26.332031 101.808594 26.855469 101.660156 27.1875 C 101.539062 26.429688 100.890625 26.332031 100.496094 26.332031 C 99.859375 26.332031 99.445312 26.707031 99.199219 27.25 L 99.199219 26.332031 L 97.96875 26.414062 L 97.96875 26.683594 C 98.578125 26.683594 98.648438 26.746094 98.648438 27.175781 L 98.648438 29.527344 C 98.648438 29.921875 98.554688 29.921875 97.96875 29.921875 L 97.96875 30.191406 L 98.957031 30.164062 L 99.9375 30.191406 L 99.9375 29.921875 C 99.347656 29.921875 99.253906 29.921875 99.253906 29.527344 L 99.253906 27.914062 C 99.253906 27.011719 99.875 26.523438 100.433594 26.523438 C 100.988281 26.523438 101.082031 26.996094 101.082031 27.492188 L 101.082031 29.527344 C 101.082031 29.921875 100.988281 29.921875 100.402344 29.921875 L 100.402344 30.191406 L 101.390625 30.164062 L 102.367188 30.191406 L 102.367188 29.921875 C 101.78125 29.921875 101.6875 29.921875 101.6875 29.527344 L 101.6875 27.921875 C 101.6875 27.011719 102.308594 26.523438 102.867188 26.523438 C 103.421875 26.523438 103.515625 26.996094 103.515625 27.492188 L 103.515625 29.527344 C 103.515625 29.921875 103.421875 29.921875 102.835938 29.921875 L 102.835938 30.191406 L 103.824219 30.164062 L 104.800781 30.191406 "/>
<path style=" stroke:none;fill-rule:nonzero;fill:rgb(0%,0%,0%);fill-opacity:1;" d="M 109.707031 28.308594 C 109.707031 27.199219 108.855469 26.332031 107.875 26.332031 C 107.191406 26.332031 106.824219 26.71875 106.652344 26.910156 L 106.652344 26.332031 L 105.390625 26.414062 L 105.390625 26.683594 C 106.011719 26.683594 106.074219 26.738281 106.074219 27.121094 L 106.074219 31.199219 C 106.074219 31.589844 105.976562 31.589844 105.390625 31.589844 L 105.390625 31.859375 L 106.371094 31.832031 L 107.359375 31.859375 L 107.359375 31.589844 C 106.773438 31.589844 106.675781 31.589844 106.675781 31.199219 L 106.675781 29.664062 C 106.722656 29.800781 107.089844 30.273438 107.753906 30.273438 C 108.796875 30.273438 109.707031 29.417969 109.707031 28.292969 L 109.707031 28.308594 M 108.980469 28.292969 C 108.980469 29.347656 108.367188 30.082031 107.71875 30.082031 C 107.367188 30.082031 107.035156 29.90625 106.800781 29.546875 C 106.675781 29.367188 106.675781 29.355469 106.675781 29.183594 L 106.675781 27.234375 C 106.929688 26.804688 107.359375 26.550781 107.808594 26.550781 C 108.445312 26.550781 108.980469 27.320312 108.980469 28.308594 L 108.980469 28.292969 "/>
<path style=" stroke:none;fill-rule:nonzero;fill:rgb(0%,0%,0%);fill-opacity:1;" d="M 112.289062 30.191406 L 112.289062 29.921875 C 111.710938 29.921875 111.675781 29.878906 111.675781 29.535156 L 111.675781 26.332031 L 110.449219 26.414062 L 110.449219 26.683594 C 111.019531 26.683594 111.097656 26.738281 111.097656 27.167969 L 111.097656 29.527344 C 111.097656 29.921875 111.003906 29.921875 110.414062 29.921875 L 110.414062 30.191406 L 111.378906 30.164062 C 111.683594 30.164062 111.988281 30.183594 112.289062 30.191406 M 111.808594 24.90625 C 111.808594 24.671875 111.605469 24.441406 111.34375 24.441406 C 111.046875 24.441406 110.871094 24.6875 110.871094 24.90625 C 110.871094 25.144531 111.070312 25.371094 111.335938 25.371094 C 111.632812 25.371094 111.808594 25.125 111.808594 24.90625 "/>
<path style=" stroke:none;fill-rule:nonzero;fill:rgb(0%,0%,0%);fill-opacity:1;" d="M 114.835938 30.191406 L 114.835938 29.921875 C 114.25 29.921875 114.152344 29.921875 114.152344 29.527344 L 114.152344 24.113281 L 112.894531 24.195312 L 112.894531 24.46875 C 113.507812 24.46875 113.578125 24.53125 113.578125 24.960938 L 113.578125 29.527344 C 113.578125 29.921875 113.480469 29.921875 112.894531 29.921875 L 112.894531 30.191406 L 113.863281 30.164062 L 114.835938 30.191406 "/>
<path style=" stroke:none;fill-rule:nonzero;fill:rgb(0%,0%,0%);fill-opacity:1;" d="M 118.714844 29.136719 C 118.714844 29.050781 118.644531 29.03125 118.601562 29.03125 C 118.523438 29.03125 118.503906 29.085938 118.488281 29.15625 C 118.179688 30.054688 117.394531 30.054688 117.304688 30.054688 C 116.867188 30.054688 116.519531 29.792969 116.316406 29.46875 C 116.054688 29.050781 116.054688 28.472656 116.054688 28.160156 L 118.496094 28.160156 C 118.6875 28.160156 118.714844 28.160156 118.714844 27.972656 C 118.714844 27.101562 118.242188 26.25 117.148438 26.25 C 116.132812 26.25 115.328125 27.15625 115.328125 28.253906 C 115.328125 29.425781 116.246094 30.273438 117.253906 30.273438 C 118.320312 30.273438 118.714844 29.304688 118.714844 29.136719 M 118.136719 27.972656 L 116.0625 27.972656 C 116.113281 26.664062 116.851562 26.441406 117.148438 26.441406 C 118.050781 26.441406 118.136719 27.632812 118.136719 27.972656 "/>
<path style=" stroke:none;fill-rule:nonzero;fill:rgb(0%,0%,0%);fill-opacity:1;" d="M 122.234375 26.867188 C 122.234375 26.585938 121.960938 26.332031 121.585938 26.332031 C 120.945312 26.332031 120.632812 26.917969 120.507812 27.292969 L 120.507812 26.332031 L 119.289062 26.414062 L 119.289062 26.683594 C 119.90625 26.683594 119.972656 26.746094 119.972656 27.175781 L 119.972656 29.527344 C 119.972656 29.921875 119.878906 29.921875 119.289062 29.921875 L 119.289062 30.191406 L 120.289062 30.164062 C 120.640625 30.164062 121.050781 30.164062 121.402344 30.191406 L 121.402344 29.921875 L 121.21875 29.921875 C 120.570312 29.921875 120.554688 29.824219 120.554688 29.507812 L 120.554688 28.160156 C 120.554688 27.304688 120.921875 26.523438 121.585938 26.523438 C 121.644531 26.523438 121.664062 26.523438 121.679688 26.53125 C 121.65625 26.542969 121.480469 26.648438 121.480469 26.875 C 121.480469 27.117188 121.664062 27.25 121.855469 27.25 C 122.015625 27.25 122.234375 27.144531 122.234375 26.867188 "/>
<path style="fill:none;stroke-width:9.9211;stroke-linecap:butt;stroke-linejoin:miter;stroke:rgb(0%,0%,0%);stroke-opacity:1;stroke-miterlimit:10;" d="M 798.632812 373.28125 L 699.453125 323.671875 L 699.453125 522.109375 L 798.632812 447.695312 " transform="matrix(0.1,0,0,-0.1,0,63)"/>
<path style="fill:none;stroke-width:9.9211;stroke-linecap:butt;stroke-linejoin:miter;stroke:rgb(0%,0%,0%);stroke-opacity:1;stroke-miterlimit:10;" d="M 1294.6875 298.867188 L 1393.90625 224.453125 L 1393.90625 422.890625 L 1294.6875 373.28125 " transform="matrix(0.1,0,0,-0.1,0,63)"/>
<path style="fill:none;stroke-width:9.9211;stroke-linecap:butt;stroke-linejoin:miter;stroke:rgb(0%,0%,0%);stroke-opacity:1;stroke-miterlimit:10;" d="M 3378.125 207.929688 L 3874.179688 207.929688 L 3874.179688 621.328125 L 3378.125 621.328125 Z M 3378.125 207.929688 " transform="matrix(0.1,0,0,-0.1,0,63)"/>
<path style="fill:none;stroke-width:0.99211;stroke-linecap:butt;stroke-linejoin:miter;stroke:rgb(0%,0%,0%);stroke-opacity:1;stroke-miterlimit:10;" d="M 3378.125 207.929688 L 3874.179688 207.929688 L 3874.179688 621.328125 L 3378.125 621.328125 Z M 3378.125 207.929688 " transform="matrix(0.1,0,0,-0.1,0,63)"/>
<path style="fill:none;stroke-width:9.9211;stroke-linecap:butt;stroke-linejoin:miter;stroke:rgb(0%,0%,0%);stroke-opacity:1;stroke-miterlimit:10;" d="M 3405.703125 263.046875 L 3846.640625 263.046875 L 3846.640625 593.75 L 3405.703125 593.75 Z M 3405.703125 263.046875 " transform="matrix(0.1,0,0,-0.1,0,63)"/>
<path style="fill:none;stroke-width:0.99211;stroke-linecap:butt;stroke-linejoin:miter;stroke:rgb(0%,0%,0%);stroke-opacity:1;stroke-miterlimit:10;" d="M 3405.703125 263.046875 L 3846.640625 263.046875 L 3846.640625 593.75 L 3405.703125 593.75 Z M 3405.703125 263.046875 " transform="matrix(0.1,0,0,-0.1,0,63)"/>
<path style="fill:none;stroke-width:9.9211;stroke-linecap:butt;stroke-linejoin:miter;stroke:rgb(0%,0%,0%);stroke-opacity:1;stroke-miterlimit:10;" d="M 3460.820312 207.929688 L 3791.523438 207.929688 L 3708.828125 180.351562 L 3543.476562 180.351562 Z M 3460.820312 207.929688 " transform="matrix(0.1,0,0,-0.1,0,63)"/>
<path style="fill:none;stroke-width:0.99211;stroke-linecap:butt;stroke-linejoin:miter;stroke:rgb(0%,0%,0%);stroke-opacity:1;stroke-miterlimit:10;" d="M 3460.820312 207.929688 L 3791.523438 207.929688 L 3708.828125 180.351562 L 3543.476562 180.351562 Z M 3460.820312 207.929688 " transform="matrix(0.1,0,0,-0.1,0,63)"/>
<path style="fill:none;stroke-width:9.9211;stroke-linecap:butt;stroke-linejoin:miter;stroke:rgb(0%,0%,0%);stroke-opacity:1;stroke-miterlimit:10;" d="M 3543.476562 152.8125 L 3708.828125 152.8125 L 3708.828125 180.390625 L 3543.476562 180.390625 Z M 3543.476562 152.8125 " transform="matrix(0.1,0,0,-0.1,0,63)"/>
<path style="fill:none;stroke-width:0.99211;stroke-linecap:butt;stroke-linejoin:miter;stroke:rgb(0%,0%,0%);stroke-opacity:1;stroke-miterlimit:10;" d="M 3543.476562 152.8125 L 3708.828125 152.8125 L 3708.828125 180.390625 L 3543.476562 180.390625 Z M 3543.476562 152.8125 " transform="matrix(0.1,0,0,-0.1,0,63)"/>
<path style="fill:none;stroke-width:9.9211;stroke-linecap:butt;stroke-linejoin:miter;stroke:rgb(0%,0%,0%);stroke-opacity:1;stroke-miterlimit:10;" d="M 3460.820312 125.273438 L 3791.523438 125.273438 L 3791.523438 152.8125 L 3460.820312 152.8125 Z M 3460.820312 125.273438 " transform="matrix(0.1,0,0,-0.1,0,63)"/>
<path style="fill:none;stroke-width:0.99211;stroke-linecap:butt;stroke-linejoin:miter;stroke:rgb(0%,0%,0%);stroke-opacity:1;stroke-miterlimit:10;" d="M 3460.820312 125.273438 L 3791.523438 125.273438 L 3791.523438 152.8125 L 3460.820312 152.8125 Z M 3460.820312 125.273438 " transform="matrix(0.1,0,0,-0.1,0,63)"/>
<path style=" stroke:none;fill-rule:nonzero;fill:rgb(0%,0%,0%);fill-opacity:1;" d="M 354.464844 22.199219 C 354.464844 20.425781 353.144531 19.015625 351.550781 19.015625 C 349.984375 19.015625 348.644531 20.410156 348.644531 22.199219 C 348.644531 23.980469 349.992188 25.339844 351.550781 25.339844 C 353.144531 25.339844 354.464844 23.957031 354.464844 22.199219 M 353.5625 22.078125 C 353.5625 24.382812 352.367188 25.113281 351.5625 25.113281 C 350.71875 25.113281 349.546875 24.347656 349.546875 22.078125 C 349.546875 19.828125 350.824219 19.234375 351.550781 19.234375 C 352.3125 19.234375 353.5625 19.851562 353.5625 22.078125 "/>
<path style=" stroke:none;fill-rule:nonzero;fill:rgb(0%,0%,0%);fill-opacity:1;" d="M 359.800781 25.175781 L 359.800781 24.90625 C 359.1875 24.90625 359.117188 24.84375 359.117188 24.414062 L 359.117188 21.316406 L 357.832031 21.398438 L 357.832031 21.667969 C 358.445312 21.667969 358.515625 21.730469 358.515625 22.15625 L 358.515625 23.703125 C 358.515625 24.460938 358.09375 25.066406 357.457031 25.066406 C 356.722656 25.066406 356.683594 24.648438 356.683594 24.191406 L 356.683594 21.316406 L 355.398438 21.398438 L 355.398438 21.667969 C 356.082031 21.667969 356.082031 21.695312 356.082031 22.46875 L 356.082031 23.773438 C 356.082031 24.453125 356.082031 25.257812 357.410156 25.257812 C 357.902344 25.257812 358.285156 25.011719 358.539062 24.460938 L 358.539062 25.257812 L 359.800781 25.175781 "/>
<path style=" stroke:none;fill-rule:nonzero;fill:rgb(0%,0%,0%);fill-opacity:1;" d="M 363.003906 24.101562 L 363.003906 23.613281 L 362.785156 23.613281 L 362.785156 24.085938 C 362.785156 24.714844 362.523438 25.039062 362.199219 25.039062 C 361.613281 25.039062 361.613281 24.261719 361.613281 24.117188 L 361.613281 21.667969 L 362.867188 21.667969 L 362.867188 21.398438 L 361.613281 21.398438 L 361.613281 19.753906 L 361.394531 19.753906 C 361.386719 20.488281 361.121094 21.441406 360.265625 21.476562 L 360.265625 21.667969 L 361.011719 21.667969 L 361.011719 24.078125 C 361.011719 25.152344 361.824219 25.257812 362.140625 25.257812 C 362.761719 25.257812 363.003906 24.636719 363.003906 24.078125 L 363.003906 24.101562 "/>
<path style=" stroke:none;fill-rule:nonzero;fill:rgb(0%,0%,0%);fill-opacity:1;" d="M 368.152344 23.292969 C 368.152344 22.183594 367.304688 21.316406 366.324219 21.316406 C 365.640625 21.316406 365.273438 21.703125 365.097656 21.894531 L 365.097656 21.316406 L 363.839844 21.398438 L 363.839844 21.667969 C 364.460938 21.667969 364.519531 21.722656 364.519531 22.105469 L 364.519531 26.183594 C 364.519531 26.570312 364.425781 26.570312 363.839844 26.570312 L 363.839844 26.84375 L 364.816406 26.816406 L 365.808594 26.84375 L 365.808594 26.570312 C 365.222656 26.570312 365.125 26.570312 365.125 26.183594 L 365.125 24.648438 C 365.167969 24.785156 365.535156 25.257812 366.203125 25.257812 C 367.242188 25.257812 368.152344 24.402344 368.152344 23.277344 L 368.152344 23.292969 M 367.425781 23.277344 C 367.425781 24.332031 366.8125 25.066406 366.167969 25.066406 C 365.816406 25.066406 365.484375 24.890625 365.246094 24.53125 C 365.125 24.351562 365.125 24.34375 365.125 24.167969 L 365.125 22.21875 C 365.378906 21.789062 365.808594 21.535156 366.253906 21.535156 C 366.894531 21.535156 367.425781 22.304688 367.425781 23.292969 L 367.425781 23.277344 "/>
<path style=" stroke:none;fill-rule:nonzero;fill:rgb(0%,0%,0%);fill-opacity:1;" d="M 373.257812 25.175781 L 373.257812 24.90625 C 372.644531 24.90625 372.574219 24.84375 372.574219 24.414062 L 372.574219 21.316406 L 371.289062 21.398438 L 371.289062 21.667969 C 371.898438 21.667969 371.96875 21.730469 371.96875 22.15625 L 371.96875 23.703125 C 371.96875 24.460938 371.550781 25.066406 370.910156 25.066406 C 370.175781 25.066406 370.140625 24.648438 370.140625 24.191406 L 370.140625 21.316406 L 368.855469 21.398438 L 368.855469 21.667969 C 369.535156 21.667969 369.535156 21.695312 369.535156 22.46875 L 369.535156 23.773438 C 369.535156 24.453125 369.535156 25.257812 370.867188 25.257812 C 371.355469 25.257812 371.742188 25.011719 371.996094 24.460938 L 371.996094 25.257812 L 373.257812 25.175781 "/>
<path style=" stroke:none;fill-rule:nonzero;fill:rgb(0%,0%,0%);fill-opacity:1;" d="M 376.460938 24.101562 L 376.460938 23.613281 L 376.242188 23.613281 L 376.242188 24.085938 C 376.242188 24.714844 375.980469 25.039062 375.65625 25.039062 C 375.066406 25.039062 375.066406 24.261719 375.066406 24.117188 L 375.066406 21.667969 L 376.320312 21.667969 L 376.320312 21.398438 L 375.066406 21.398438 L 375.066406 19.753906 L 374.851562 19.753906 C 374.839844 20.488281 374.578125 21.441406 373.722656 21.476562 L 373.722656 21.667969 L 374.464844 21.667969 L 374.464844 24.078125 C 374.464844 25.152344 375.277344 25.257812 375.59375 25.257812 C 376.214844 25.257812 376.460938 24.636719 376.460938 24.078125 L 376.460938 24.101562 "/>
<path style="fill:none;stroke-width:9.9211;stroke-linecap:butt;stroke-linejoin:miter;stroke:rgb(0%,0%,0%);stroke-opacity:1;stroke-miterlimit:10;" d="M 1691.5625 621.328125 L 1992.03125 621.328125 L 2092.1875 521.132812 L 2092.1875 120.507812 L 1691.5625 120.507812 Z M 1691.5625 621.328125 " transform="matrix(0.1,0,0,-0.1,0,63)"/>
<path style="fill:none;stroke-width:9.9211;stroke-linecap:butt;stroke-linejoin:miter;stroke:rgb(0%,0%,0%);stroke-opacity:1;stroke-miterlimit:10;" d="M 1992.03125 621.328125 L 1992.03125 521.132812 L 2092.1875 521.132812 " transform="matrix(0.1,0,0,-0.1,0,63)"/>
<path style=" stroke:none;fill-rule:nonzero;fill:rgb(0%,0%,0%);fill-opacity:1;" d="M 185.609375 24.304688 C 185.609375 23.539062 184.890625 22.878906 183.917969 22.777344 C 184.769531 22.609375 185.371094 22.046875 185.371094 21.398438 C 185.371094 20.632812 184.566406 19.914062 183.429688 19.914062 L 180.226562 19.914062 L 180.226562 20.183594 L 180.433594 20.183594 C 181.109375 20.183594 181.128906 20.28125 181.128906 20.597656 L 181.128906 25.226562 C 181.128906 25.542969 181.109375 25.640625 180.433594 25.640625 L 180.226562 25.640625 L 180.226562 25.910156 L 183.65625 25.910156 C 184.820312 25.910156 185.609375 25.132812 185.609375 24.308594 L 185.609375 24.304688 M 184.523438 21.402344 C 184.523438 21.964844 184.09375 22.707031 183.121094 22.707031 L 181.851562 22.707031 L 181.851562 20.539062 C 181.851562 20.246094 181.871094 20.183594 182.28125 20.183594 L 183.367188 20.183594 C 184.214844 20.203125 184.523438 20.949219 184.523438 21.410156 L 184.523438 21.402344 M 184.730469 24.300781 C 184.730469 24.921875 184.277344 25.640625 183.375 25.640625 L 182.28125 25.640625 C 181.871094 25.640625 181.851562 25.578125 181.851562 25.289062 L 181.851562 22.898438 L 183.496094 22.898438 C 184.363281 22.898438 184.730469 23.714844 184.730469 24.300781 "/>
<path style=" stroke:none;fill-rule:nonzero;fill:rgb(0%,0%,0%);fill-opacity:1;" d="M 190.699219 22.402344 L 190.699219 22.132812 C 190.496094 22.148438 190.246094 22.15625 190.042969 22.15625 L 189.28125 22.132812 L 189.28125 22.402344 C 189.554688 22.410156 189.691406 22.558594 189.691406 22.777344 C 189.691406 22.863281 189.683594 22.882812 189.640625 22.988281 L 188.757812 25.128906 L 187.785156 22.785156 C 187.75 22.699219 187.730469 22.664062 187.730469 22.628906 C 187.730469 22.402344 188.054688 22.402344 188.222656 22.402344 L 188.222656 22.132812 L 187.269531 22.15625 C 187.03125 22.15625 186.683594 22.148438 186.417969 22.132812 L 186.417969 22.402344 C 186.839844 22.402344 187.007812 22.402344 187.128906 22.707031 L 188.441406 25.890625 L 188.222656 26.402344 C 188.03125 26.894531 187.785156 27.523438 187.226562 27.523438 C 187.179688 27.523438 186.980469 27.523438 186.8125 27.382812 C 187.085938 27.347656 187.15625 27.15625 187.15625 27.015625 C 187.15625 26.789062 186.988281 26.648438 186.789062 26.648438 C 186.613281 26.648438 186.417969 26.761719 186.417969 27.027344 C 186.417969 27.414062 186.789062 27.714844 187.226562 27.714844 C 187.777344 27.714844 188.136719 27.234375 188.347656 26.738281 L 189.886719 22.96875 C 190.113281 22.410156 190.558594 22.402344 190.699219 22.402344 "/>
<path style=" stroke:none;fill-rule:nonzero;fill:rgb(0%,0%,0%);fill-opacity:1;" d="M 193.890625 24.835938 L 193.890625 24.347656 L 193.671875 24.347656 L 193.671875 24.820312 C 193.671875 25.449219 193.410156 25.773438 193.085938 25.773438 C 192.5 25.773438 192.5 24.996094 192.5 24.851562 L 192.5 22.402344 L 193.753906 22.402344 L 193.753906 22.132812 L 192.5 22.132812 L 192.5 20.488281 L 192.28125 20.488281 C 192.273438 21.222656 192.007812 22.175781 191.152344 22.210938 L 191.152344 22.402344 L 191.894531 22.402344 L 191.894531 24.8125 C 191.894531 25.886719 192.710938 25.992188 193.027344 25.992188 C 193.648438 25.992188 193.890625 25.371094 193.890625 24.8125 L 193.890625 24.835938 "/>
<path style=" stroke:none;fill-rule:nonzero;fill:rgb(0%,0%,0%);fill-opacity:1;" d="M 198.113281 24.855469 C 198.113281 24.769531 198.042969 24.75 197.996094 24.75 C 197.921875 24.75 197.902344 24.804688 197.886719 24.871094 C 197.578125 25.773438 196.789062 25.773438 196.703125 25.773438 C 196.265625 25.773438 195.914062 25.511719 195.714844 25.1875 C 195.453125 24.769531 195.453125 24.191406 195.453125 23.875 L 197.894531 23.875 C 198.085938 23.875 198.113281 23.875 198.113281 23.691406 C 198.113281 22.820312 197.640625 21.96875 196.546875 21.96875 C 195.53125 21.96875 194.722656 22.871094 194.722656 23.972656 C 194.722656 25.144531 195.644531 25.992188 196.652344 25.992188 C 197.71875 25.992188 198.113281 25.019531 198.113281 24.855469 M 197.535156 23.691406 L 195.460938 23.691406 C 195.511719 22.378906 196.246094 22.160156 196.546875 22.160156 C 197.449219 22.160156 197.535156 23.347656 197.535156 23.691406 "/>
<path style=" stroke:none;fill-rule:nonzero;fill:rgb(0%,0%,0%);fill-opacity:1;" d="M 183.988281 36.0625 C 183.988281 35.976562 183.902344 35.976562 183.875 35.976562 C 183.796875 35.976562 183.777344 36.011719 183.761719 36.0625 C 183.507812 36.867188 182.9375 36.972656 182.613281 36.972656 C 182.152344 36.972656 181.378906 36.601562 181.378906 35.207031 C 181.378906 33.785156 182.097656 33.386719 182.5625 33.386719 C 182.640625 33.386719 183.191406 33.394531 183.496094 33.742188 C 183.140625 33.769531 183.085938 34.03125 183.085938 34.144531 C 183.085938 34.371094 183.242188 34.546875 183.488281 34.546875 C 183.71875 34.546875 183.890625 34.398438 183.890625 34.136719 C 183.890625 33.519531 183.226562 33.167969 182.550781 33.167969 C 181.460938 33.167969 180.652344 34.144531 180.652344 35.222656 C 180.652344 36.332031 181.519531 37.191406 182.535156 37.191406 C 183.710938 37.191406 183.988281 36.152344 183.988281 36.0625 "/>
<path style=" stroke:none;fill-rule:nonzero;fill:rgb(0%,0%,0%);fill-opacity:1;" d="M 188.441406 35.21875 C 188.441406 34.09375 187.566406 33.167969 186.507812 33.167969 C 185.414062 33.167969 184.566406 34.121094 184.566406 35.21875 C 184.566406 36.351562 185.476562 37.191406 186.5 37.191406 C 187.558594 37.191406 188.441406 36.332031 188.441406 35.21875 M 187.71875 35.148438 C 187.71875 35.464844 187.71875 35.9375 187.523438 36.324219 C 187.332031 36.71875 186.945312 36.972656 186.507812 36.972656 C 186.132812 36.972656 185.746094 36.789062 185.511719 36.386719 C 185.292969 36 185.292969 35.464844 185.292969 35.148438 C 185.292969 34.804688 185.292969 34.332031 185.503906 33.945312 C 185.738281 33.542969 186.148438 33.359375 186.5 33.359375 C 186.886719 33.359375 187.261719 33.554688 187.488281 33.929688 C 187.71875 34.304688 187.71875 34.816406 187.71875 35.148438 "/>
<path style=" stroke:none;fill-rule:nonzero;fill:rgb(0%,0%,0%);fill-opacity:1;" d="M 193.664062 37.109375 L 193.664062 36.839844 C 193.054688 36.839844 192.984375 36.773438 192.984375 36.3125 L 192.984375 31.03125 L 191.722656 31.113281 L 191.722656 31.386719 C 192.335938 31.386719 192.40625 31.449219 192.40625 31.882812 L 192.40625 33.789062 C 192.152344 33.476562 191.777344 33.25 191.304688 33.25 C 190.269531 33.25 189.351562 34.101562 189.351562 35.226562 C 189.351562 36.332031 190.210938 37.191406 191.207031 37.191406 C 191.765625 37.191406 192.160156 36.894531 192.378906 36.617188 L 192.378906 37.191406 L 193.664062 37.109375 M 192.378906 36.078125 C 192.378906 36.234375 192.378906 36.253906 192.28125 36.402344 C 192.019531 36.800781 191.628906 37 191.25 37 C 190.855469 37 190.539062 36.765625 190.332031 36.421875 C 190.105469 36.058594 190.078125 35.570312 190.078125 35.214844 C 190.078125 34.898438 190.09375 34.382812 190.347656 33.992188 C 190.53125 33.726562 190.863281 33.441406 191.339844 33.441406 C 191.644531 33.441406 192.011719 33.570312 192.28125 33.957031 C 192.378906 34.105469 192.378906 34.121094 192.378906 34.277344 L 192.378906 36.078125 "/>
<path style=" stroke:none;fill-rule:nonzero;fill:rgb(0%,0%,0%);fill-opacity:1;" d="M 197.667969 36.054688 C 197.667969 35.96875 197.597656 35.949219 197.550781 35.949219 C 197.472656 35.949219 197.457031 36.003906 197.4375 36.074219 C 197.132812 36.972656 196.34375 36.972656 196.257812 36.972656 C 195.820312 36.972656 195.46875 36.710938 195.269531 36.386719 C 195.007812 35.96875 195.007812 35.390625 195.007812 35.078125 L 197.445312 35.078125 C 197.640625 35.078125 197.667969 35.078125 197.667969 34.890625 C 197.667969 34.019531 197.195312 33.167969 196.101562 33.167969 C 195.085938 33.167969 194.277344 34.074219 194.277344 35.171875 C 194.277344 36.34375 195.199219 37.191406 196.203125 37.191406 C 197.273438 37.191406 197.667969 36.222656 197.667969 36.054688 M 197.089844 34.890625 L 195.015625 34.890625 C 195.066406 33.582031 195.800781 33.359375 196.101562 33.359375 C 197.003906 33.359375 197.089844 34.546875 197.089844 34.890625 "/>
<path style=" stroke:none;fill-rule:nonzero;fill:rgb(0%,0%,0%);fill-opacity:1;" d="M 7.023438 60.238281 C 7.023438 60.125 6.960938 60.125 6.785156 60.125 C 6.277344 60.125 6.277344 60.054688 6.277344 59.976562 C 6.277344 59.976562 6.277344 59.90625 6.3125 59.777344 L 7.496094 55.027344 C 7.566406 54.742188 7.636719 54.671875 8.1875 54.671875 C 8.371094 54.671875 8.449219 54.671875 8.449219 54.515625 C 8.449219 54.417969 8.386719 54.398438 8.324219 54.398438 C 7.992188 54.398438 7.636719 54.425781 7.292969 54.425781 C 6.941406 54.425781 6.585938 54.398438 6.242188 54.398438 C 6.191406 54.398438 6.078125 54.398438 6.078125 54.566406 C 6.078125 54.671875 6.148438 54.671875 6.3125 54.671875 C 6.585938 54.671875 6.820312 54.671875 6.820312 54.824219 C 6.820312 54.847656 6.820312 54.867188 6.785156 54.992188 L 6.253906 57.167969 L 3.855469 57.167969 L 4.378906 55.027344 C 4.449219 54.742188 4.519531 54.671875 5.070312 54.671875 C 5.253906 54.671875 5.332031 54.671875 5.332031 54.515625 C 5.332031 54.417969 5.273438 54.398438 5.210938 54.398438 C 4.878906 54.398438 4.519531 54.425781 4.175781 54.425781 C 3.828125 54.425781 3.46875 54.398438 3.128906 54.398438 C 3.074219 54.398438 2.960938 54.398438 2.960938 54.566406 C 2.960938 54.671875 3.03125 54.671875 3.195312 54.671875 C 3.46875 54.671875 3.707031 54.671875 3.707031 54.824219 C 3.707031 54.847656 3.707031 54.867188 3.671875 54.992188 L 2.488281 59.761719 C 2.417969 60.054688 2.363281 60.125 1.769531 60.125 C 1.628906 60.125 1.535156 60.125 1.535156 60.292969 C 1.535156 60.394531 1.628906 60.394531 1.65625 60.394531 C 1.988281 60.394531 2.347656 60.371094 2.691406 60.371094 C 3.039062 60.371094 3.398438 60.394531 3.738281 60.394531 C 3.800781 60.394531 3.90625 60.394531 3.90625 60.238281 C 3.90625 60.125 3.84375 60.125 3.671875 60.125 C 3.164062 60.125 3.164062 60.054688 3.164062 59.976562 C 3.164062 59.941406 3.164062 59.925781 3.195312 59.800781 L 3.78125 57.4375 L 6.183594 57.4375 L 5.605469 59.761719 C 5.535156 60.054688 5.480469 60.125 4.886719 60.125 C 4.746094 60.125 4.648438 60.125 4.648438 60.292969 C 4.648438 60.394531 4.746094 60.394531 4.773438 60.394531 C 5.105469 60.394531 5.464844 60.371094 5.804688 60.371094 C 6.15625 60.371094 6.515625 60.394531 6.855469 60.394531 C 6.917969 60.394531 7.023438 60.394531 7.023438 60.238281 "/>
<path style=" stroke:none;fill-rule:nonzero;fill:rgb(0%,0%,0%);fill-opacity:1;" d="M 11.726562 59.476562 C 11.726562 59.433594 11.660156 59.335938 11.589844 59.335938 C 11.554688 59.335938 11.542969 59.347656 11.476562 59.433594 C 10.828125 60.25 10.046875 60.285156 9.898438 60.285156 C 9.332031 60.285156 9.234375 59.667969 9.234375 59.328125 C 9.234375 59 9.320312 58.605469 9.382812 58.371094 L 9.726562 58.371094 C 9.988281 58.371094 10.574219 58.34375 10.992188 58.179688 C 11.683594 57.902344 11.683594 57.335938 11.683594 57.277344 C 11.683594 56.875 11.359375 56.535156 10.800781 56.535156 C 9.882812 56.535156 8.628906 57.414062 8.628906 58.953125 C 8.628906 59.738281 9.050781 60.476562 9.882812 60.476562 C 11 60.476562 11.726562 59.609375 11.726562 59.476562 M 11.351562 57.257812 C 11.351562 58.179688 9.90625 58.179688 9.621094 58.179688 L 9.433594 58.179688 C 9.8125 56.753906 10.714844 56.730469 10.800781 56.730469 C 11.152344 56.730469 11.351562 56.960938 11.351562 57.257812 "/>
<path style=" stroke:none;fill-rule:nonzero;fill:rgb(0%,0%,0%);fill-opacity:1;" d="M 14.195312 59.132812 C 14.195312 59.046875 14.128906 59.046875 14.066406 59.046875 C 14.023438 59.046875 13.96875 59.046875 13.941406 59.089844 L 13.882812 59.308594 C 13.734375 59.917969 13.566406 60.285156 13.320312 60.285156 C 13.09375 60.285156 13.09375 60.050781 13.09375 59.925781 C 13.09375 59.867188 13.09375 59.734375 13.148438 59.527344 L 14.398438 54.539062 C 14.40625 54.511719 14.425781 54.421875 14.425781 54.421875 C 14.425781 54.34375 14.371094 54.316406 14.300781 54.316406 C 14.277344 54.316406 14.1875 54.328125 14.160156 54.335938 L 13.296875 54.40625 C 13.191406 54.414062 13.09375 54.421875 13.09375 54.589844 C 13.09375 54.6875 13.179688 54.6875 13.304688 54.6875 C 13.722656 54.6875 13.742188 54.746094 13.742188 54.832031 C 13.742188 54.859375 13.714844 54.984375 13.714844 54.984375 L 12.621094 59.351562 C 12.613281 59.386719 12.570312 59.558594 12.570312 59.691406 C 12.570312 60.15625 12.882812 60.476562 13.304688 60.476562 C 13.636719 60.476562 13.8125 60.242188 13.925781 60.023438 C 14.074219 59.71875 14.195312 59.160156 14.195312 59.132812 "/>
<path style=" stroke:none;fill-rule:nonzero;fill:rgb(0%,0%,0%);fill-opacity:1;" d="M 17.167969 59.132812 C 17.167969 59.046875 17.101562 59.046875 17.039062 59.046875 C 16.996094 59.046875 16.941406 59.046875 16.914062 59.089844 L 16.855469 59.308594 C 16.707031 59.917969 16.539062 60.285156 16.292969 60.285156 C 16.066406 60.285156 16.066406 60.050781 16.066406 59.925781 C 16.066406 59.867188 16.066406 59.734375 16.121094 59.527344 L 17.371094 54.539062 C 17.378906 54.511719 17.398438 54.421875 17.398438 54.421875 C 17.398438 54.34375 17.34375 54.316406 17.273438 54.316406 C 17.25 54.316406 17.160156 54.328125 17.136719 54.335938 L 16.269531 54.40625 C 16.164062 54.414062 16.066406 54.421875 16.066406 54.589844 C 16.066406 54.6875 16.15625 54.6875 16.277344 54.6875 C 16.699219 54.6875 16.714844 54.746094 16.714844 54.832031 C 16.714844 54.859375 16.6875 54.984375 16.6875 54.984375 L 15.59375 59.351562 C 15.585938 59.386719 15.542969 59.558594 15.542969 59.691406 C 15.542969 60.15625 15.855469 60.476562 16.277344 60.476562 C 16.609375 60.476562 16.785156 60.242188 16.898438 60.023438 C 17.046875 59.71875 17.167969 59.160156 17.167969 59.132812 "/>
<path style=" stroke:none;fill-rule:nonzero;fill:rgb(0%,0%,0%);fill-opacity:1;" d="M 21.453125 57.964844 C 21.453125 57.136719 20.9375 56.535156 20.175781 56.535156 C 19.089844 56.535156 17.960938 57.773438 17.960938 59.042969 C 17.960938 59.9375 18.511719 60.476562 19.238281 60.476562 C 20.324219 60.476562 21.453125 59.242188 21.453125 57.964844 M 20.84375 57.625 C 20.84375 58 20.648438 58.894531 20.367188 59.417969 C 20.117188 59.894531 19.667969 60.285156 19.238281 60.285156 C 18.898438 60.285156 18.574219 60.015625 18.574219 59.390625 C 18.574219 58.957031 18.800781 57.988281 19.082031 57.519531 C 19.40625 56.988281 19.824219 56.730469 20.167969 56.730469 C 20.597656 56.730469 20.84375 57.113281 20.84375 57.625 "/>
<path style=" stroke:none;fill-rule:nonzero;fill:rgb(0%,0%,0%);fill-opacity:1;" d="M 23.527344 59.84375 C 23.527344 59.652344 23.386719 59.46875 23.140625 59.46875 C 22.859375 59.46875 22.570312 59.730469 22.570312 60.019531 C 22.570312 60.25 22.730469 60.394531 22.957031 60.394531 C 23.253906 60.394531 23.527344 60.105469 23.527344 59.84375 "/>
<path style=" stroke:none;fill-rule:nonzero;fill:rgb(0%,0%,0%);fill-opacity:1;" d="M 26.285156 60.890625 L 27.097656 57.613281 C 27.109375 57.585938 27.144531 57.445312 27.144531 57.324219 C 27.144531 56.914062 26.878906 56.535156 26.390625 56.535156 C 25.523438 56.535156 25.058594 57.824219 25.058594 57.882812 C 25.058594 57.972656 25.148438 57.972656 25.191406 57.972656 C 25.304688 57.972656 25.304688 57.964844 25.355469 57.824219 C 25.578125 57.269531 25.925781 56.730469 26.382812 56.730469 C 26.601562 56.730469 26.617188 56.921875 26.617188 57.078125 C 26.617188 57.21875 26.589844 57.386719 26.558594 57.523438 L 25.714844 60.898438 C 25.707031 60.949219 25.4375 62.011719 24.796875 62.011719 C 24.753906 62.011719 24.605469 62.011719 24.449219 61.921875 C 24.753906 61.828125 24.761719 61.511719 24.761719 61.511719 C 24.761719 61.398438 24.683594 61.230469 24.457031 61.230469 C 24.28125 61.230469 24.027344 61.378906 24.027344 61.6875 C 24.027344 62.082031 24.472656 62.203125 24.789062 62.203125 C 25.515625 62.203125 26.117188 61.546875 26.285156 60.890625 M 27.46875 55.082031 C 27.46875 54.898438 27.335938 54.707031 27.074219 54.707031 C 26.792969 54.707031 26.511719 54.976562 26.511719 55.257812 C 26.511719 55.449219 26.652344 55.632812 26.90625 55.632812 C 27.1875 55.632812 27.46875 55.363281 27.46875 55.082031 "/>
<path style=" stroke:none;fill-rule:nonzero;fill:rgb(0%,0%,0%);fill-opacity:1;" d="M 31.679688 59.136719 C 31.679688 59.050781 31.609375 59.050781 31.546875 59.050781 C 31.441406 59.050781 31.433594 59.058594 31.382812 59.25 C 31.257812 59.738281 31.09375 60.285156 30.792969 60.285156 C 30.566406 60.285156 30.566406 60.050781 30.566406 59.929688 C 30.566406 59.867188 30.566406 59.730469 30.628906 59.484375 L 31.222656 57.121094 C 31.257812 57 31.257812 56.980469 31.257812 56.9375 C 31.257812 56.753906 31.109375 56.710938 31.023438 56.710938 C 30.742188 56.710938 30.679688 57.007812 30.671875 57.050781 C 30.507812 56.675781 30.226562 56.535156 29.945312 56.535156 C 28.976562 56.535156 27.941406 57.859375 27.941406 59.128906 C 27.941406 59.867188 28.34375 60.476562 29 60.476562 C 29.316406 60.476562 29.703125 60.292969 30.050781 59.867188 C 30.148438 60.292969 30.472656 60.476562 30.777344 60.476562 C 31.101562 60.476562 31.285156 60.261719 31.417969 59.988281 C 31.574219 59.660156 31.679688 59.136719 31.679688 59.136719 M 30.113281 59.304688 C 30.042969 59.582031 29.5 60.285156 29.019531 60.285156 C 28.605469 60.285156 28.539062 59.773438 28.539062 59.511719 C 28.539062 59.078125 28.808594 58.058594 28.964844 57.695312 C 29.183594 57.164062 29.585938 56.730469 29.945312 56.730469 C 30.332031 56.730469 30.550781 57.179688 30.550781 57.546875 C 30.550781 57.546875 30.542969 57.605469 30.523438 57.660156 L 30.113281 59.304688 "/>
<path style=" stroke:none;fill-rule:nonzero;fill:rgb(0%,0%,0%);fill-opacity:1;" d="M 35.984375 57.113281 C 35.984375 56.808594 35.878906 56.535156 35.625 56.535156 C 35.421875 56.535156 35.203125 56.738281 35.203125 56.9375 C 35.203125 57.050781 35.265625 57.113281 35.320312 57.171875 C 35.527344 57.398438 35.554688 57.675781 35.554688 57.859375 C 35.554688 58.101562 35.144531 60.285156 34.136719 60.285156 C 33.664062 60.285156 33.566406 59.851562 33.566406 59.5625 C 33.566406 59.058594 33.847656 58.300781 34.085938 57.675781 C 34.128906 57.539062 34.179688 57.40625 34.179688 57.242188 C 34.179688 56.808594 33.890625 56.535156 33.515625 56.535156 C 32.699219 56.535156 32.394531 57.824219 32.394531 57.875 C 32.394531 57.964844 32.480469 57.964844 32.527344 57.964844 C 32.640625 57.964844 32.648438 57.945312 32.683594 57.824219 C 32.753906 57.554688 32.988281 56.730469 33.496094 56.730469 C 33.59375 56.730469 33.691406 56.753906 33.691406 56.980469 C 33.691406 57.191406 33.601562 57.425781 33.480469 57.761719 C 33.210938 58.503906 33.03125 59.023438 33.03125 59.433594 C 33.03125 60.226562 33.59375 60.476562 34.109375 60.476562 C 35.582031 60.476562 35.984375 57.335938 35.984375 57.113281 "/>
<path style=" stroke:none;fill-rule:nonzero;fill:rgb(0%,0%,0%);fill-opacity:1;" d="M 40.375 59.136719 C 40.375 59.050781 40.308594 59.050781 40.246094 59.050781 C 40.140625 59.050781 40.132812 59.058594 40.078125 59.25 C 39.957031 59.738281 39.789062 60.285156 39.492188 60.285156 C 39.265625 60.285156 39.265625 60.050781 39.265625 59.929688 C 39.265625 59.867188 39.265625 59.730469 39.328125 59.484375 L 39.921875 57.121094 C 39.957031 57 39.957031 56.980469 39.957031 56.9375 C 39.957031 56.753906 39.808594 56.710938 39.71875 56.710938 C 39.441406 56.710938 39.378906 57.007812 39.371094 57.050781 C 39.203125 56.675781 38.921875 56.535156 38.644531 56.535156 C 37.671875 56.535156 36.640625 57.859375 36.640625 59.128906 C 36.640625 59.867188 37.042969 60.476562 37.699219 60.476562 C 38.015625 60.476562 38.398438 60.292969 38.75 59.867188 C 38.84375 60.292969 39.167969 60.476562 39.476562 60.476562 C 39.800781 60.476562 39.980469 60.261719 40.113281 59.988281 C 40.273438 59.660156 40.375 59.136719 40.375 59.136719 M 38.808594 59.304688 C 38.738281 59.582031 38.199219 60.285156 37.714844 60.285156 C 37.304688 60.285156 37.234375 59.773438 37.234375 59.511719 C 37.234375 59.078125 37.507812 58.058594 37.664062 57.695312 C 37.882812 57.164062 38.285156 56.730469 38.644531 56.730469 C 39.027344 56.730469 39.246094 57.179688 39.246094 57.546875 C 39.246094 57.546875 39.238281 57.605469 39.222656 57.660156 L 38.808594 59.304688 "/>
<path style=" stroke:none;fill-rule:nonzero;fill:rgb(0%,0%,0%);fill-opacity:1;" d="M 175.183594 60.238281 C 175.183594 60.125 175.121094 60.125 174.949219 60.125 C 174.441406 60.125 174.441406 60.054688 174.441406 59.976562 C 174.441406 59.976562 174.441406 59.90625 174.476562 59.777344 L 175.65625 55.027344 C 175.726562 54.742188 175.796875 54.671875 176.347656 54.671875 C 176.53125 54.671875 176.609375 54.671875 176.609375 54.515625 C 176.609375 54.417969 176.550781 54.398438 176.488281 54.398438 C 176.15625 54.398438 175.796875 54.425781 175.457031 54.425781 C 175.105469 54.425781 174.746094 54.398438 174.40625 54.398438 C 174.355469 54.398438 174.238281 54.398438 174.238281 54.566406 C 174.238281 54.671875 174.308594 54.671875 174.476562 54.671875 C 174.746094 54.671875 174.984375 54.671875 174.984375 54.824219 C 174.984375 54.847656 174.984375 54.867188 174.949219 54.992188 L 174.414062 57.167969 L 172.015625 57.167969 L 172.539062 55.027344 C 172.613281 54.742188 172.679688 54.671875 173.234375 54.671875 C 173.417969 54.671875 173.496094 54.671875 173.496094 54.515625 C 173.496094 54.417969 173.433594 54.398438 173.371094 54.398438 C 173.039062 54.398438 172.679688 54.425781 172.339844 54.425781 C 171.988281 54.425781 171.632812 54.398438 171.289062 54.398438 C 171.238281 54.398438 171.121094 54.398438 171.121094 54.566406 C 171.121094 54.671875 171.195312 54.671875 171.359375 54.671875 C 171.632812 54.671875 171.867188 54.671875 171.867188 54.824219 C 171.867188 54.847656 171.867188 54.867188 171.832031 54.992188 L 170.652344 59.761719 C 170.578125 60.054688 170.527344 60.125 169.933594 60.125 C 169.792969 60.125 169.695312 60.125 169.695312 60.292969 C 169.695312 60.394531 169.792969 60.394531 169.820312 60.394531 C 170.152344 60.394531 170.511719 60.371094 170.851562 60.371094 C 171.203125 60.371094 171.5625 60.394531 171.902344 60.394531 C 171.964844 60.394531 172.070312 60.394531 172.070312 60.238281 C 172.070312 60.125 172.007812 60.125 171.832031 60.125 C 171.324219 60.125 171.324219 60.054688 171.324219 59.976562 C 171.324219 59.941406 171.324219 59.925781 171.359375 59.800781 L 171.945312 57.4375 L 174.34375 57.4375 L 173.765625 59.761719 C 173.695312 60.054688 173.644531 60.125 173.050781 60.125 C 172.910156 60.125 172.8125 60.125 172.8125 60.292969 C 172.8125 60.394531 172.910156 60.394531 172.9375 60.394531 C 173.269531 60.394531 173.628906 60.371094 173.96875 60.371094 C 174.316406 60.371094 174.675781 60.394531 175.019531 60.394531 C 175.078125 60.394531 175.183594 60.394531 175.183594 60.238281 "/>
<path style=" stroke:none;fill-rule:nonzero;fill:rgb(0%,0%,0%);fill-opacity:1;" d="M 179.890625 59.476562 C 179.890625 59.433594 179.820312 59.335938 179.75 59.335938 C 179.714844 59.335938 179.707031 59.347656 179.636719 59.433594 C 178.988281 60.25 178.210938 60.285156 178.0625 60.285156 C 177.492188 60.285156 177.398438 59.667969 177.398438 59.328125 C 177.398438 59 177.484375 58.605469 177.546875 58.371094 L 177.886719 58.371094 C 178.148438 58.371094 178.734375 58.34375 179.15625 58.179688 C 179.847656 57.902344 179.847656 57.335938 179.847656 57.277344 C 179.847656 56.875 179.523438 56.535156 178.964844 56.535156 C 178.042969 56.535156 176.792969 57.414062 176.792969 58.953125 C 176.792969 59.738281 177.214844 60.476562 178.042969 60.476562 C 179.164062 60.476562 179.890625 59.609375 179.890625 59.476562 M 179.515625 57.257812 C 179.515625 58.179688 178.070312 58.179688 177.78125 58.179688 L 177.597656 58.179688 C 177.976562 56.753906 178.875 56.730469 178.964844 56.730469 C 179.3125 56.730469 179.515625 56.960938 179.515625 57.257812 "/>
<path style=" stroke:none;fill-rule:nonzero;fill:rgb(0%,0%,0%);fill-opacity:1;" d="M 182.359375 59.132812 C 182.359375 59.046875 182.289062 59.046875 182.226562 59.046875 C 182.183594 59.046875 182.132812 59.046875 182.105469 59.089844 L 182.046875 59.308594 C 181.894531 59.917969 181.730469 60.285156 181.484375 60.285156 C 181.257812 60.285156 181.257812 60.050781 181.257812 59.925781 C 181.257812 59.867188 181.257812 59.734375 181.308594 59.527344 L 182.5625 54.539062 C 182.570312 54.511719 182.589844 54.421875 182.589844 54.421875 C 182.589844 54.34375 182.535156 54.316406 182.464844 54.316406 C 182.4375 54.316406 182.351562 54.328125 182.324219 54.335938 L 181.457031 54.40625 C 181.351562 54.414062 181.257812 54.421875 181.257812 54.589844 C 181.257812 54.6875 181.34375 54.6875 181.46875 54.6875 C 181.886719 54.6875 181.90625 54.746094 181.90625 54.832031 C 181.90625 54.859375 181.878906 54.984375 181.878906 54.984375 L 180.785156 59.351562 C 180.773438 59.386719 180.730469 59.558594 180.730469 59.691406 C 180.730469 60.15625 181.046875 60.476562 181.46875 60.476562 C 181.800781 60.476562 181.972656 60.242188 182.089844 60.023438 C 182.238281 59.71875 182.359375 59.160156 182.359375 59.132812 "/>
<path style=" stroke:none;fill-rule:nonzero;fill:rgb(0%,0%,0%);fill-opacity:1;" d="M 185.332031 59.132812 C 185.332031 59.046875 185.261719 59.046875 185.203125 59.046875 C 185.15625 59.046875 185.105469 59.046875 185.078125 59.089844 L 185.019531 59.308594 C 184.867188 59.917969 184.703125 60.285156 184.457031 60.285156 C 184.230469 60.285156 184.230469 60.050781 184.230469 59.925781 C 184.230469 59.867188 184.230469 59.734375 184.28125 59.527344 L 185.535156 54.539062 C 185.542969 54.511719 185.5625 54.421875 185.5625 54.421875 C 185.5625 54.34375 185.507812 54.316406 185.4375 54.316406 C 185.410156 54.316406 185.324219 54.328125 185.296875 54.335938 L 184.433594 54.40625 C 184.324219 54.414062 184.230469 54.421875 184.230469 54.589844 C 184.230469 54.6875 184.316406 54.6875 184.441406 54.6875 C 184.859375 54.6875 184.878906 54.746094 184.878906 54.832031 C 184.878906 54.859375 184.851562 54.984375 184.851562 54.984375 L 183.757812 59.351562 C 183.75 59.386719 183.703125 59.558594 183.703125 59.691406 C 183.703125 60.15625 184.019531 60.476562 184.441406 60.476562 C 184.773438 60.476562 184.945312 60.242188 185.0625 60.023438 C 185.210938 59.71875 185.332031 59.160156 185.332031 59.132812 "/>
<path style=" stroke:none;fill-rule:nonzero;fill:rgb(0%,0%,0%);fill-opacity:1;" d="M 189.617188 57.964844 C 189.617188 57.136719 189.101562 56.535156 188.339844 56.535156 C 187.253906 56.535156 186.125 57.773438 186.125 59.042969 C 186.125 59.9375 186.675781 60.476562 187.402344 60.476562 C 188.488281 60.476562 189.617188 59.242188 189.617188 57.964844 M 189.003906 57.625 C 189.003906 58 188.8125 58.894531 188.53125 59.417969 C 188.277344 59.894531 187.832031 60.285156 187.402344 60.285156 C 187.0625 60.285156 186.738281 60.015625 186.738281 59.390625 C 186.738281 58.957031 186.964844 57.988281 187.246094 57.519531 C 187.566406 56.988281 187.988281 56.730469 188.328125 56.730469 C 188.757812 56.730469 189.003906 57.113281 189.003906 57.625 "/>
<path style=" stroke:none;fill-rule:nonzero;fill:rgb(0%,0%,0%);fill-opacity:1;" d="M 191.6875 59.84375 C 191.6875 59.652344 191.546875 59.46875 191.304688 59.46875 C 191.023438 59.46875 190.734375 59.730469 190.734375 60.019531 C 190.734375 60.25 190.894531 60.394531 191.121094 60.394531 C 191.417969 60.394531 191.6875 60.105469 191.6875 59.84375 "/>
<path style=" stroke:none;fill-rule:nonzero;fill:rgb(0%,0%,0%);fill-opacity:1;" d="M 196.59375 59.476562 C 196.59375 59.433594 196.523438 59.335938 196.453125 59.335938 C 196.417969 59.335938 196.410156 59.34375 196.339844 59.433594 C 195.691406 60.25 194.910156 60.285156 194.761719 60.285156 C 194.289062 60.285156 194.070312 59.894531 194.070312 59.386719 C 194.070312 58.925781 194.308594 58.011719 194.535156 57.59375 C 194.851562 57.027344 195.289062 56.730469 195.683594 56.730469 C 195.777344 56.730469 196.171875 56.746094 196.304688 57.09375 C 195.867188 57.144531 195.867188 57.523438 195.867188 57.523438 C 195.867188 57.664062 195.960938 57.800781 196.164062 57.800781 C 196.398438 57.800781 196.609375 57.609375 196.609375 57.277344 C 196.609375 56.855469 196.234375 56.535156 195.671875 56.535156 C 194.589844 56.535156 193.460938 57.769531 193.460938 59.039062 C 193.460938 59.902344 193.976562 60.476562 194.746094 60.476562 C 195.867188 60.476562 196.59375 59.605469 196.59375 59.476562 "/>
<path style=" stroke:none;fill-rule:nonzero;fill:rgb(0%,0%,0%);fill-opacity:1;" d="M 199.058594 59.132812 C 199.058594 59.046875 198.992188 59.046875 198.929688 59.046875 C 198.886719 59.046875 198.832031 59.046875 198.804688 59.089844 L 198.746094 59.308594 C 198.597656 59.917969 198.429688 60.285156 198.183594 60.285156 C 197.957031 60.285156 197.957031 60.050781 197.957031 59.925781 C 197.957031 59.867188 197.957031 59.734375 198.011719 59.527344 L 199.261719 54.539062 C 199.269531 54.511719 199.289062 54.421875 199.289062 54.421875 C 199.289062 54.34375 199.234375 54.316406 199.164062 54.316406 C 199.140625 54.316406 199.050781 54.328125 199.023438 54.335938 L 198.160156 54.40625 C 198.054688 54.414062 197.957031 54.421875 197.957031 54.589844 C 197.957031 54.6875 198.046875 54.6875 198.167969 54.6875 C 198.589844 54.6875 198.605469 54.746094 198.605469 54.832031 C 198.605469 54.859375 198.578125 54.984375 198.578125 54.984375 L 197.484375 59.351562 C 197.476562 59.386719 197.433594 59.558594 197.433594 59.691406 C 197.433594 60.15625 197.746094 60.476562 198.167969 60.476562 C 198.5 60.476562 198.675781 60.242188 198.789062 60.023438 C 198.9375 59.71875 199.058594 59.160156 199.058594 59.132812 "/>
<path style=" stroke:none;fill-rule:nonzero;fill:rgb(0%,0%,0%);fill-opacity:1;" d="M 203.484375 59.136719 C 203.484375 59.050781 203.414062 59.050781 203.355469 59.050781 C 203.246094 59.050781 203.238281 59.058594 203.1875 59.25 C 203.0625 59.738281 202.898438 60.285156 202.601562 60.285156 C 202.371094 60.285156 202.371094 60.050781 202.371094 59.929688 C 202.371094 59.867188 202.371094 59.730469 202.433594 59.484375 L 203.03125 57.121094 C 203.0625 57 203.0625 56.980469 203.0625 56.9375 C 203.0625 56.753906 202.914062 56.710938 202.828125 56.710938 C 202.546875 56.710938 202.488281 57.007812 202.476562 57.050781 C 202.3125 56.675781 202.03125 56.535156 201.753906 56.535156 C 200.78125 56.535156 199.746094 57.859375 199.746094 59.128906 C 199.746094 59.867188 200.148438 60.476562 200.804688 60.476562 C 201.121094 60.476562 201.507812 60.292969 201.855469 59.867188 C 201.953125 60.292969 202.277344 60.476562 202.582031 60.476562 C 202.90625 60.476562 203.089844 60.261719 203.222656 59.988281 C 203.378906 59.660156 203.484375 59.136719 203.484375 59.136719 M 201.917969 59.304688 C 201.847656 59.582031 201.304688 60.285156 200.824219 60.285156 C 200.410156 60.285156 200.34375 59.773438 200.34375 59.511719 C 200.34375 59.078125 200.613281 58.058594 200.769531 57.695312 C 200.988281 57.164062 201.394531 56.730469 201.753906 56.730469 C 202.136719 56.730469 202.355469 57.179688 202.355469 57.546875 C 202.355469 57.546875 202.347656 57.605469 202.328125 57.660156 L 201.917969 59.304688 "/>
<path style=" stroke:none;fill-rule:nonzero;fill:rgb(0%,0%,0%);fill-opacity:1;" d="M 206.914062 59.007812 C 206.914062 58.261719 206.230469 58.109375 205.871094 58.03125 C 205.625 57.980469 205.3125 57.914062 205.3125 57.539062 C 205.3125 57.328125 205.496094 56.730469 206.195312 56.730469 C 206.433594 56.730469 206.753906 56.816406 206.851562 57.164062 C 206.570312 57.199219 206.503906 57.433594 206.503906 57.523438 C 206.503906 57.621094 206.554688 57.769531 206.765625 57.769531 C 206.914062 57.769531 207.140625 57.664062 207.140625 57.285156 C 207.140625 56.878906 206.78125 56.535156 206.203125 56.535156 C 205.179688 56.535156 204.820312 57.382812 204.820312 57.835938 C 204.820312 58.492188 205.390625 58.613281 205.636719 58.664062 C 206.019531 58.75 206.414062 58.835938 206.414062 59.300781 C 206.414062 59.582031 206.179688 60.285156 205.277344 60.285156 C 205.085938 60.285156 204.578125 60.242188 204.4375 59.792969 C 204.882812 59.746094 204.882812 59.363281 204.882812 59.363281 C 204.882812 59.195312 204.769531 59.082031 204.585938 59.082031 C 204.382812 59.082031 204.140625 59.230469 204.140625 59.625 C 204.140625 60.164062 204.644531 60.476562 205.269531 60.476562 C 206.582031 60.476562 206.914062 59.40625 206.914062 59.007812 "/>
<path style=" stroke:none;fill-rule:nonzero;fill:rgb(0%,0%,0%);fill-opacity:1;" d="M 210.582031 59.007812 C 210.582031 58.261719 209.898438 58.109375 209.539062 58.03125 C 209.292969 57.980469 208.980469 57.914062 208.980469 57.539062 C 208.980469 57.328125 209.164062 56.730469 209.863281 56.730469 C 210.101562 56.730469 210.421875 56.816406 210.519531 57.164062 C 210.238281 57.199219 210.167969 57.433594 210.167969 57.523438 C 210.167969 57.621094 210.222656 57.769531 210.433594 57.769531 C 210.582031 57.769531 210.808594 57.664062 210.808594 57.285156 C 210.808594 56.878906 210.449219 56.535156 209.871094 56.535156 C 208.847656 56.535156 208.488281 57.382812 208.488281 57.835938 C 208.488281 58.492188 209.058594 58.613281 209.300781 58.664062 C 209.6875 58.75 210.082031 58.835938 210.082031 59.300781 C 210.082031 59.582031 209.84375 60.285156 208.941406 60.285156 C 208.75 60.285156 208.242188 60.242188 208.105469 59.792969 C 208.550781 59.746094 208.550781 59.363281 208.550781 59.363281 C 208.550781 59.195312 208.4375 59.082031 208.253906 59.082031 C 208.050781 59.082031 207.804688 59.230469 207.804688 59.625 C 207.804688 60.164062 208.3125 60.476562 208.9375 60.476562 C 210.246094 60.476562 210.582031 59.40625 210.582031 59.007812 "/>
<path style="fill:none;stroke-width:9.9211;stroke-linecap:butt;stroke-linejoin:miter;stroke:rgb(0%,0%,0%);stroke-opacity:1;stroke-miterlimit:10;" d="M 2471.835938 224.453125 L 3005.117188 224.453125 L 3005.117188 522.109375 L 2471.835938 522.109375 Z M 2471.835938 224.453125 " transform="matrix(0.1,0,0,-0.1,0,63)"/>
<path style=" stroke:none;fill-rule:nonzero;fill:rgb(0%,0%,0%);fill-opacity:1;" d="M 255.554688 30.191406 L 255.554688 29.921875 L 255.328125 29.921875 C 254.636719 29.921875 254.609375 29.824219 254.609375 29.507812 L 254.609375 24.878906 C 254.609375 24.5625 254.636719 24.46875 255.328125 24.46875 L 255.554688 24.46875 L 255.554688 24.195312 C 255.246094 24.222656 254.558594 24.222656 254.226562 24.222656 C 253.882812 24.222656 253.191406 24.222656 252.886719 24.195312 L 252.886719 24.46875 L 253.113281 24.46875 C 253.804688 24.46875 253.828125 24.5625 253.828125 24.878906 L 253.828125 29.507812 C 253.828125 29.824219 253.804688 29.921875 253.113281 29.921875 L 252.886719 29.921875 L 252.886719 30.191406 C 253.191406 30.164062 253.882812 30.164062 254.214844 30.164062 C 254.558594 30.164062 255.246094 30.164062 255.554688 30.191406 "/>
<path style=" stroke:none;fill-rule:nonzero;fill:rgb(0%,0%,0%);fill-opacity:1;" d="M 260.542969 30.191406 L 260.542969 29.921875 C 260.089844 29.921875 259.871094 29.921875 259.859375 29.660156 L 259.859375 27.992188 C 259.859375 27.238281 259.859375 26.96875 259.589844 26.65625 C 259.46875 26.507812 259.179688 26.332031 258.671875 26.332031 C 258.03125 26.332031 257.621094 26.707031 257.375 27.25 L 257.375 26.332031 L 256.140625 26.414062 L 256.140625 26.683594 C 256.753906 26.683594 256.824219 26.746094 256.824219 27.175781 L 256.824219 29.527344 C 256.824219 29.921875 256.730469 29.921875 256.140625 29.921875 L 256.140625 30.191406 L 257.128906 30.164062 L 258.109375 30.191406 L 258.109375 29.921875 C 257.523438 29.921875 257.429688 29.921875 257.429688 29.527344 L 257.429688 27.914062 C 257.429688 27.011719 258.050781 26.523438 258.609375 26.523438 C 259.160156 26.523438 259.257812 26.996094 259.257812 27.492188 L 259.257812 29.527344 C 259.257812 29.921875 259.160156 29.921875 258.574219 29.921875 L 258.574219 30.191406 L 259.5625 30.164062 L 260.542969 30.191406 "/>
<path style=" stroke:none;fill-rule:nonzero;fill:rgb(0%,0%,0%);fill-opacity:1;" d="M 263.5 29.117188 L 263.5 28.632812 L 263.28125 28.632812 L 263.28125 29.101562 C 263.28125 29.730469 263.019531 30.054688 262.695312 30.054688 C 262.109375 30.054688 262.109375 29.277344 262.109375 29.132812 L 262.109375 26.683594 L 263.359375 26.683594 L 263.359375 26.414062 L 262.109375 26.414062 L 262.109375 24.769531 L 261.890625 24.769531 C 261.882812 25.503906 261.617188 26.457031 260.761719 26.492188 L 260.761719 26.683594 L 261.503906 26.683594 L 261.503906 29.09375 C 261.503906 30.167969 262.316406 30.273438 262.632812 30.273438 C 263.253906 30.273438 263.5 29.652344 263.5 29.09375 L 263.5 29.117188 "/>
<path style=" stroke:none;fill-rule:nonzero;fill:rgb(0%,0%,0%);fill-opacity:1;" d="M 267.722656 29.136719 C 267.722656 29.050781 267.648438 29.03125 267.605469 29.03125 C 267.527344 29.03125 267.511719 29.085938 267.492188 29.15625 C 267.1875 30.054688 266.398438 30.054688 266.3125 30.054688 C 265.875 30.054688 265.523438 29.792969 265.320312 29.46875 C 265.0625 29.050781 265.0625 28.472656 265.0625 28.160156 L 267.5 28.160156 C 267.695312 28.160156 267.722656 28.160156 267.722656 27.972656 C 267.722656 27.101562 267.246094 26.25 266.152344 26.25 C 265.140625 26.25 264.332031 27.15625 264.332031 28.253906 C 264.332031 29.425781 265.253906 30.273438 266.257812 30.273438 C 267.328125 30.273438 267.722656 29.304688 267.722656 29.136719 M 267.144531 27.972656 L 265.066406 27.972656 C 265.121094 26.664062 265.855469 26.441406 266.152344 26.441406 C 267.054688 26.441406 267.144531 27.632812 267.144531 27.972656 "/>
<path style=" stroke:none;fill-rule:nonzero;fill:rgb(0%,0%,0%);fill-opacity:1;" d="M 271.238281 26.867188 C 271.238281 26.585938 270.96875 26.332031 270.589844 26.332031 C 269.953125 26.332031 269.636719 26.917969 269.515625 27.292969 L 269.515625 26.332031 L 268.296875 26.414062 L 268.296875 26.683594 C 268.910156 26.683594 268.980469 26.746094 268.980469 27.175781 L 268.980469 29.527344 C 268.980469 29.921875 268.882812 29.921875 268.296875 29.921875 L 268.296875 30.191406 L 269.296875 30.164062 C 269.644531 30.164062 270.058594 30.164062 270.40625 30.191406 L 270.40625 29.921875 L 270.222656 29.921875 C 269.574219 29.921875 269.558594 29.824219 269.558594 29.507812 L 269.558594 28.160156 C 269.558594 27.304688 269.925781 26.523438 270.589844 26.523438 C 270.652344 26.523438 270.671875 26.523438 270.6875 26.53125 C 270.660156 26.542969 270.488281 26.648438 270.488281 26.875 C 270.488281 27.117188 270.671875 27.25 270.863281 27.25 C 271.019531 27.25 271.238281 27.144531 271.238281 26.867188 "/>
<path style=" stroke:none;fill-rule:nonzero;fill:rgb(0%,0%,0%);fill-opacity:1;" d="M 276.132812 28.308594 C 276.132812 27.199219 275.28125 26.332031 274.300781 26.332031 C 273.617188 26.332031 273.253906 26.71875 273.078125 26.910156 L 273.078125 26.332031 L 271.816406 26.414062 L 271.816406 26.683594 C 272.4375 26.683594 272.5 26.738281 272.5 27.121094 L 272.5 31.199219 C 272.5 31.589844 272.402344 31.589844 271.816406 31.589844 L 271.816406 31.859375 L 272.796875 31.832031 L 273.785156 31.859375 L 273.785156 31.589844 C 273.199219 31.589844 273.101562 31.589844 273.101562 31.199219 L 273.101562 29.664062 C 273.148438 29.800781 273.515625 30.273438 274.179688 30.273438 C 275.222656 30.273438 276.132812 29.417969 276.132812 28.292969 L 276.132812 28.308594 M 275.40625 28.292969 C 275.40625 29.347656 274.792969 30.082031 274.144531 30.082031 C 273.796875 30.082031 273.464844 29.90625 273.226562 29.546875 C 273.101562 29.367188 273.101562 29.355469 273.101562 29.183594 L 273.101562 27.234375 C 273.355469 26.804688 273.785156 26.550781 274.230469 26.550781 C 274.871094 26.550781 275.40625 27.320312 275.40625 28.308594 L 275.40625 28.292969 "/>
<path style=" stroke:none;fill-rule:nonzero;fill:rgb(0%,0%,0%);fill-opacity:1;" d="M 279.738281 26.867188 C 279.738281 26.585938 279.46875 26.332031 279.089844 26.332031 C 278.453125 26.332031 278.136719 26.917969 278.011719 27.292969 L 278.011719 26.332031 L 276.796875 26.414062 L 276.796875 26.683594 C 277.410156 26.683594 277.480469 26.746094 277.480469 27.175781 L 277.480469 29.527344 C 277.480469 29.921875 277.382812 29.921875 276.796875 29.921875 L 276.796875 30.191406 L 277.796875 30.164062 C 278.144531 30.164062 278.554688 30.164062 278.90625 30.191406 L 278.90625 29.921875 L 278.722656 29.921875 C 278.074219 29.921875 278.058594 29.824219 278.058594 29.507812 L 278.058594 28.160156 C 278.058594 27.304688 278.425781 26.523438 279.089844 26.523438 C 279.152344 26.523438 279.171875 26.523438 279.1875 26.53125 C 279.160156 26.542969 278.984375 26.648438 278.984375 26.875 C 278.984375 27.117188 279.171875 27.25 279.363281 27.25 C 279.519531 27.25 279.738281 27.144531 279.738281 26.867188 "/>
<path style=" stroke:none;fill-rule:nonzero;fill:rgb(0%,0%,0%);fill-opacity:1;" d="M 283.703125 29.136719 C 283.703125 29.050781 283.632812 29.03125 283.589844 29.03125 C 283.511719 29.03125 283.492188 29.085938 283.476562 29.15625 C 283.171875 30.054688 282.382812 30.054688 282.292969 30.054688 C 281.855469 30.054688 281.507812 29.792969 281.304688 29.46875 C 281.042969 29.050781 281.042969 28.472656 281.042969 28.160156 L 283.484375 28.160156 C 283.675781 28.160156 283.703125 28.160156 283.703125 27.972656 C 283.703125 27.101562 283.230469 26.25 282.136719 26.25 C 281.121094 26.25 280.316406 27.15625 280.316406 28.253906 C 280.316406 29.425781 281.234375 30.273438 282.242188 30.273438 C 283.308594 30.273438 283.703125 29.304688 283.703125 29.136719 M 283.125 27.972656 L 281.050781 27.972656 C 281.105469 26.664062 281.839844 26.441406 282.136719 26.441406 C 283.039062 26.441406 283.125 27.632812 283.125 27.972656 "/>
<path style=" stroke:none;fill-rule:nonzero;fill:rgb(0%,0%,0%);fill-opacity:1;" d="M 286.941406 29.117188 L 286.941406 28.632812 L 286.722656 28.632812 L 286.722656 29.101562 C 286.722656 29.730469 286.460938 30.054688 286.136719 30.054688 C 285.550781 30.054688 285.550781 29.277344 285.550781 29.132812 L 285.550781 26.683594 L 286.800781 26.683594 L 286.800781 26.414062 L 285.550781 26.414062 L 285.550781 24.769531 L 285.332031 24.769531 C 285.320312 25.503906 285.058594 26.457031 284.203125 26.492188 L 284.203125 26.683594 L 284.945312 26.683594 L 284.945312 29.09375 C 284.945312 30.167969 285.761719 30.273438 286.074219 30.273438 C 286.695312 30.273438 286.941406 29.652344 286.941406 29.09375 L 286.941406 29.117188 "/>
<path style=" stroke:none;fill-rule:nonzero;fill:rgb(0%,0%,0%);fill-opacity:1;" d="M 291.160156 29.136719 C 291.160156 29.050781 291.089844 29.03125 291.046875 29.03125 C 290.96875 29.03125 290.953125 29.085938 290.933594 29.15625 C 290.628906 30.054688 289.839844 30.054688 289.753906 30.054688 C 289.316406 30.054688 288.964844 29.792969 288.761719 29.46875 C 288.503906 29.050781 288.503906 28.472656 288.503906 28.160156 L 290.941406 28.160156 C 291.136719 28.160156 291.160156 28.160156 291.160156 27.972656 C 291.160156 27.101562 290.691406 26.25 289.59375 26.25 C 288.578125 26.25 287.773438 27.15625 287.773438 28.253906 C 287.773438 29.425781 288.695312 30.273438 289.699219 30.273438 C 290.769531 30.273438 291.160156 29.304688 291.160156 29.136719 M 290.585938 27.972656 L 288.507812 27.972656 C 288.5625 26.664062 289.296875 26.441406 289.59375 26.441406 C 290.496094 26.441406 290.585938 27.632812 290.585938 27.972656 "/>
<path style=" stroke:none;fill-rule:nonzero;fill:rgb(0%,0%,0%);fill-opacity:1;" d="M 294.679688 26.867188 C 294.679688 26.585938 294.410156 26.332031 294.03125 26.332031 C 293.394531 26.332031 293.078125 26.917969 292.953125 27.292969 L 292.953125 26.332031 L 291.738281 26.414062 L 291.738281 26.683594 C 292.351562 26.683594 292.421875 26.746094 292.421875 27.175781 L 292.421875 29.527344 C 292.421875 29.921875 292.324219 29.921875 291.738281 29.921875 L 291.738281 30.191406 L 292.738281 30.164062 C 293.089844 30.164062 293.496094 30.164062 293.847656 30.191406 L 293.847656 29.921875 L 293.664062 29.921875 C 293.015625 29.921875 293 29.824219 293 29.507812 L 293 28.160156 C 293 27.304688 293.367188 26.523438 294.03125 26.523438 C 294.09375 26.523438 294.113281 26.523438 294.128906 26.53125 C 294.101562 26.542969 293.929688 26.648438 293.929688 26.875 C 293.929688 27.117188 294.113281 27.25 294.304688 27.25 C 294.460938 27.25 294.679688 27.144531 294.679688 26.867188 "/>
<path style=" stroke:none;fill-rule:nonzero;fill:rgb(0%,0%,0%);fill-opacity:1;" d="M 70.1875 50.875 L 70.1875 47.054688 C 70.1875 46.785156 70.136719 46.695312 69.839844 46.695312 L 68.453125 46.695312 C 68.316406 46.695312 68.09375 46.695312 68.09375 46.96875 C 68.09375 47.230469 68.316406 47.230469 68.445312 47.230469 L 69.585938 47.230469 L 69.585938 50.832031 C 69.585938 50.980469 69.585938 51.3125 69.355469 51.621094 C 69.121094 51.953125 68.847656 51.953125 68.648438 51.953125 C 68.394531 51.953125 68.289062 51.9375 68.15625 51.917969 C 68.164062 51.894531 68.164062 51.875 68.164062 51.8125 C 68.164062 51.566406 67.964844 51.417969 67.78125 51.417969 C 67.578125 51.417969 67.386719 51.566406 67.386719 51.824219 C 67.386719 52.488281 68.242188 52.488281 68.601562 52.488281 C 69.871094 52.488281 70.1875 51.4375 70.1875 50.878906 L 70.1875 50.875 M 70.195312 45.601562 C 70.195312 45.359375 70.003906 45.164062 69.757812 45.164062 C 69.515625 45.164062 69.320312 45.359375 69.320312 45.601562 C 69.320312 45.847656 69.515625 46.039062 69.757812 46.039062 C 70.003906 46.039062 70.195312 45.847656 70.195312 45.601562 "/>
<path style=" stroke:none;fill-rule:nonzero;fill:rgb(0%,0%,0%);fill-opacity:1;" d="M 76.21875 50.203125 C 76.21875 49.941406 76 49.941406 75.867188 49.941406 C 75.5 49.941406 75.414062 49.898438 75.34375 49.871094 L 75.34375 47.972656 C 75.34375 47.351562 74.871094 46.613281 73.609375 46.613281 C 73.234375 46.613281 72.339844 46.613281 72.339844 47.253906 C 72.339844 47.519531 72.523438 47.65625 72.734375 47.65625 C 72.863281 47.65625 73.109375 47.578125 73.117188 47.253906 C 73.117188 47.183594 73.128906 47.175781 73.300781 47.15625 C 73.425781 47.148438 73.539062 47.148438 73.617188 47.148438 C 74.28125 47.148438 74.738281 47.421875 74.738281 48.042969 C 73.1875 48.070312 72.113281 48.511719 72.113281 49.351562 C 72.113281 49.988281 72.664062 50.554688 73.558594 50.554688 C 73.878906 50.554688 74.421875 50.496094 74.835938 50.222656 C 75.027344 50.46875 75.449219 50.472656 75.78125 50.472656 C 76.023438 50.472656 76.21875 50.472656 76.21875 50.203125 M 74.738281 49.304688 C 74.738281 49.503906 74.738281 49.6875 74.398438 49.84375 C 74.082031 50.023438 73.6875 50.023438 73.617188 50.023438 C 73.074219 50.023438 72.714844 49.726562 72.714844 49.386719 C 72.714844 48.957031 73.46875 48.632812 74.738281 48.597656 L 74.738281 49.304688 "/>
<path style=" stroke:none;fill-rule:nonzero;fill:rgb(0%,0%,0%);fill-opacity:1;" d="M 80.761719 46.96875 C 80.761719 46.695312 80.550781 46.695312 80.410156 46.695312 L 79.386719 46.695312 C 79.253906 46.695312 79.035156 46.695312 79.035156 46.960938 C 79.035156 47.230469 79.246094 47.230469 79.386719 47.230469 L 79.628906 47.230469 L 78.675781 50.023438 L 77.722656 47.230469 L 77.96875 47.230469 C 78.097656 47.230469 78.316406 47.230469 78.316406 46.96875 C 78.316406 46.695312 78.105469 46.695312 77.96875 46.695312 L 76.945312 46.695312 C 76.804688 46.695312 76.59375 46.695312 76.59375 46.96875 C 76.59375 47.230469 76.8125 47.230469 76.945312 47.230469 L 77.207031 47.230469 L 78.210938 50.179688 C 78.316406 50.472656 78.492188 50.472656 78.675781 50.472656 C 78.84375 50.472656 79.042969 50.472656 79.140625 50.1875 L 80.148438 47.230469 L 80.410156 47.230469 C 80.539062 47.230469 80.761719 47.230469 80.761719 46.96875 "/>
<path style=" stroke:none;fill-rule:nonzero;fill:rgb(0%,0%,0%);fill-opacity:1;" d="M 85.632812 50.203125 C 85.632812 49.941406 85.414062 49.941406 85.28125 49.941406 C 84.914062 49.941406 84.828125 49.898438 84.757812 49.871094 L 84.757812 47.972656 C 84.757812 47.351562 84.285156 46.613281 83.027344 46.613281 C 82.648438 46.613281 81.757812 46.613281 81.757812 47.253906 C 81.757812 47.519531 81.941406 47.65625 82.152344 47.65625 C 82.28125 47.65625 82.527344 47.578125 82.535156 47.253906 C 82.535156 47.183594 82.542969 47.175781 82.71875 47.15625 C 82.84375 47.148438 82.957031 47.148438 83.035156 47.148438 C 83.699219 47.148438 84.15625 47.421875 84.15625 48.042969 C 82.605469 48.070312 81.53125 48.511719 81.53125 49.351562 C 81.53125 49.988281 82.082031 50.554688 82.972656 50.554688 C 83.296875 50.554688 83.839844 50.496094 84.25 50.222656 C 84.445312 50.46875 84.863281 50.472656 85.195312 50.472656 C 85.441406 50.472656 85.632812 50.472656 85.632812 50.203125 M 84.15625 49.304688 C 84.15625 49.503906 84.15625 49.6875 83.8125 49.84375 C 83.496094 50.023438 83.105469 50.023438 83.035156 50.023438 C 82.492188 50.023438 82.132812 49.726562 82.132812 49.386719 C 82.132812 48.957031 82.886719 48.632812 84.15625 48.597656 L 84.15625 49.304688 "/>
<path style=" stroke:none;fill-rule:nonzero;fill:rgb(0%,0%,0%);fill-opacity:1;" d="M 89.878906 49.542969 C 89.878906 49.296875 89.625 49.296875 89.570312 49.296875 C 89.429688 49.296875 89.34375 49.3125 89.28125 49.492188 C 89.230469 49.605469 89.0625 50.023438 88.417969 50.023438 C 87.671875 50.023438 87.042969 49.402344 87.042969 48.59375 C 87.042969 48.167969 87.285156 47.148438 88.46875 47.148438 C 88.652344 47.148438 88.992188 47.148438 88.992188 47.230469 C 89.003906 47.539062 89.167969 47.664062 89.378906 47.664062 C 89.589844 47.664062 89.773438 47.511719 89.773438 47.257812 C 89.773438 46.613281 88.863281 46.613281 88.46875 46.613281 C 86.964844 46.613281 86.4375 47.816406 86.4375 48.59375 C 86.4375 49.660156 87.261719 50.554688 88.363281 50.554688 C 89.582031 50.554688 89.878906 49.695312 89.878906 49.542969 "/>
<path style=" stroke:none;fill-rule:nonzero;fill:rgb(0%,0%,0%);fill-opacity:1;" d="M 99.609375 50.214844 C 99.609375 49.941406 99.398438 49.941406 99.257812 49.941406 L 99.039062 49.941406 L 99.039062 45.671875 L 99.257812 45.671875 C 99.390625 45.671875 99.609375 45.671875 99.609375 45.40625 C 99.609375 45.136719 99.398438 45.136719 99.257812 45.136719 L 98.21875 45.136719 C 98.085938 45.136719 97.867188 45.136719 97.867188 45.398438 C 97.867188 45.671875 98.078125 45.671875 98.21875 45.671875 L 98.4375 45.671875 L 98.4375 47.433594 L 96.582031 47.433594 L 96.582031 45.671875 L 96.800781 45.671875 C 96.929688 45.671875 97.148438 45.671875 97.148438 45.40625 C 97.148438 45.136719 96.941406 45.136719 96.800781 45.136719 L 95.757812 45.136719 C 95.617188 45.136719 95.410156 45.136719 95.410156 45.40625 C 95.410156 45.671875 95.625 45.671875 95.757812 45.671875 L 95.976562 45.671875 L 95.976562 49.941406 L 95.757812 49.941406 C 95.617188 49.941406 95.410156 49.941406 95.410156 50.214844 C 95.410156 50.472656 95.625 50.472656 95.757812 50.472656 L 96.800781 50.472656 C 96.929688 50.472656 97.148438 50.472656 97.148438 50.214844 C 97.148438 49.941406 96.941406 49.941406 96.800781 49.941406 L 96.582031 49.941406 L 96.582031 47.96875 L 98.4375 47.96875 L 98.4375 49.941406 L 98.21875 49.941406 C 98.085938 49.941406 97.867188 49.941406 97.867188 50.203125 C 97.867188 50.472656 98.078125 50.472656 98.21875 50.472656 L 99.257812 50.472656 C 99.390625 50.472656 99.609375 50.472656 99.609375 50.214844 "/>
<path style=" stroke:none;fill-rule:nonzero;fill:rgb(0%,0%,0%);fill-opacity:1;" d="M 103.984375 49.542969 C 103.984375 49.300781 103.730469 49.300781 103.679688 49.300781 C 103.519531 49.300781 103.449219 49.324219 103.390625 49.488281 C 103.195312 49.933594 102.722656 50.015625 102.480469 50.015625 C 101.824219 50.015625 101.164062 49.578125 101.027344 48.832031 L 103.632812 48.832031 C 103.820312 48.832031 103.984375 48.832031 103.984375 48.507812 C 103.984375 47.484375 103.425781 46.613281 102.285156 46.613281 C 101.246094 46.613281 100.40625 47.503906 100.40625 48.605469 C 100.40625 49.671875 101.289062 50.554688 102.417969 50.554688 C 103.574219 50.554688 103.984375 49.769531 103.984375 49.550781 L 103.984375 49.542969 M 103.363281 48.308594 L 101.035156 48.308594 C 101.15625 47.644531 101.675781 47.148438 102.285156 47.148438 C 102.742188 47.148438 103.285156 47.375 103.363281 48.308594 "/>
<path style=" stroke:none;fill-rule:nonzero;fill:rgb(0%,0%,0%);fill-opacity:1;" d="M 108.71875 50.214844 C 108.71875 49.941406 108.507812 49.941406 108.367188 49.941406 L 107.230469 49.941406 L 107.230469 45.496094 C 107.230469 45.222656 107.179688 45.136719 106.882812 45.136719 L 105.496094 45.136719 C 105.359375 45.136719 105.140625 45.136719 105.140625 45.40625 C 105.140625 45.671875 105.367188 45.671875 105.488281 45.671875 L 106.628906 45.671875 L 106.628906 49.941406 L 105.496094 49.941406 C 105.359375 49.941406 105.140625 49.941406 105.140625 50.214844 C 105.140625 50.472656 105.367188 50.472656 105.488281 50.472656 L 108.367188 50.472656 C 108.5 50.472656 108.71875 50.472656 108.71875 50.214844 "/>
<path style=" stroke:none;fill-rule:nonzero;fill:rgb(0%,0%,0%);fill-opacity:1;" d="M 113.429688 50.214844 C 113.429688 49.941406 113.21875 49.941406 113.078125 49.941406 L 111.9375 49.941406 L 111.9375 45.496094 C 111.9375 45.222656 111.886719 45.136719 111.589844 45.136719 L 110.207031 45.136719 C 110.066406 45.136719 109.847656 45.136719 109.847656 45.40625 C 109.847656 45.671875 110.074219 45.671875 110.199219 45.671875 L 111.335938 45.671875 L 111.335938 49.941406 L 110.207031 49.941406 C 110.066406 49.941406 109.847656 49.941406 109.847656 50.214844 C 109.847656 50.472656 110.074219 50.472656 110.199219 50.472656 L 113.078125 50.472656 C 113.207031 50.472656 113.429688 50.472656 113.429688 50.214844 "/>
<path style=" stroke:none;fill-rule:nonzero;fill:rgb(0%,0%,0%);fill-opacity:1;" d="M 118.136719 48.59375 C 118.136719 47.484375 117.320312 46.613281 116.339844 46.613281 C 115.359375 46.613281 114.546875 47.484375 114.546875 48.59375 C 114.546875 49.722656 115.378906 50.554688 116.339844 50.554688 C 117.304688 50.554688 118.136719 49.714844 118.136719 48.59375 M 117.53125 48.53125 C 117.53125 49.359375 116.988281 50.023438 116.339844 50.023438 C 115.695312 50.023438 115.152344 49.359375 115.152344 48.53125 C 115.152344 47.726562 115.71875 47.148438 116.339844 47.148438 C 116.972656 47.148438 117.53125 47.726562 117.53125 48.53125 "/>
<path style=" stroke:none;fill-rule:nonzero;fill:rgb(0%,0%,0%);fill-opacity:1;" d="M 121.601562 49.933594 C 121.601562 49.609375 121.339844 49.382812 121.058594 49.382812 C 120.726562 49.382812 120.507812 49.652344 120.507812 49.925781 C 120.507812 50.246094 120.769531 50.472656 121.046875 50.472656 C 121.382812 50.472656 121.601562 50.203125 121.601562 49.933594 "/>
<path style=" stroke:none;fill-rule:nonzero;fill:rgb(0%,0%,0%);fill-opacity:1;" d="M 126.683594 50.875 L 126.683594 47.054688 C 126.683594 46.785156 126.632812 46.695312 126.335938 46.695312 L 124.953125 46.695312 C 124.8125 46.695312 124.59375 46.695312 124.59375 46.96875 C 124.59375 47.230469 124.8125 47.230469 124.941406 47.230469 L 126.082031 47.230469 L 126.082031 50.832031 C 126.082031 50.980469 126.082031 51.3125 125.851562 51.621094 C 125.617188 51.953125 125.347656 51.953125 125.144531 51.953125 C 124.890625 51.953125 124.785156 51.9375 124.652344 51.917969 C 124.664062 51.894531 124.664062 51.875 124.664062 51.8125 C 124.664062 51.566406 124.460938 51.417969 124.277344 51.417969 C 124.078125 51.417969 123.882812 51.566406 123.882812 51.824219 C 123.882812 52.488281 124.742188 52.488281 125.101562 52.488281 C 126.371094 52.488281 126.683594 51.4375 126.683594 50.878906 L 126.683594 50.875 M 126.695312 45.601562 C 126.695312 45.359375 126.5 45.164062 126.257812 45.164062 C 126.011719 45.164062 125.816406 45.359375 125.816406 45.601562 C 125.816406 45.847656 126.011719 46.039062 126.257812 46.039062 C 126.5 46.039062 126.695312 45.847656 126.695312 45.601562 "/>
<path style=" stroke:none;fill-rule:nonzero;fill:rgb(0%,0%,0%);fill-opacity:1;" d="M 132.714844 50.203125 C 132.714844 49.941406 132.496094 49.941406 132.363281 49.941406 C 131.996094 49.941406 131.910156 49.898438 131.839844 49.871094 L 131.839844 47.972656 C 131.839844 47.351562 131.367188 46.613281 130.105469 46.613281 C 129.730469 46.613281 128.839844 46.613281 128.839844 47.253906 C 128.839844 47.519531 129.019531 47.65625 129.230469 47.65625 C 129.363281 47.65625 129.605469 47.578125 129.617188 47.253906 C 129.617188 47.183594 129.625 47.175781 129.800781 47.15625 C 129.921875 47.148438 130.035156 47.148438 130.117188 47.148438 C 130.78125 47.148438 131.234375 47.421875 131.234375 48.042969 C 129.6875 48.070312 128.609375 48.511719 128.609375 49.351562 C 128.609375 49.988281 129.160156 50.554688 130.054688 50.554688 C 130.378906 50.554688 130.921875 50.496094 131.332031 50.222656 C 131.523438 50.46875 131.945312 50.472656 132.277344 50.472656 C 132.523438 50.472656 132.714844 50.472656 132.714844 50.203125 M 131.234375 49.304688 C 131.234375 49.503906 131.234375 49.6875 130.894531 49.84375 C 130.578125 50.023438 130.183594 50.023438 130.117188 50.023438 C 129.574219 50.023438 129.214844 49.726562 129.214844 49.386719 C 129.214844 48.957031 129.96875 48.632812 131.234375 48.597656 L 131.234375 49.304688 "/>
<path style=" stroke:none;fill-rule:nonzero;fill:rgb(0%,0%,0%);fill-opacity:1;" d="M 137.257812 46.96875 C 137.257812 46.695312 137.046875 46.695312 136.90625 46.695312 L 135.882812 46.695312 C 135.753906 46.695312 135.53125 46.695312 135.53125 46.960938 C 135.53125 47.230469 135.742188 47.230469 135.882812 47.230469 L 136.128906 47.230469 L 135.171875 50.023438 L 134.21875 47.230469 L 134.464844 47.230469 C 134.59375 47.230469 134.816406 47.230469 134.816406 46.96875 C 134.816406 46.695312 134.605469 46.695312 134.464844 46.695312 L 133.441406 46.695312 C 133.300781 46.695312 133.089844 46.695312 133.089844 46.96875 C 133.089844 47.230469 133.308594 47.230469 133.441406 47.230469 L 133.703125 47.230469 L 134.710938 50.179688 C 134.816406 50.472656 134.988281 50.472656 135.171875 50.472656 C 135.339844 50.472656 135.539062 50.472656 135.636719 50.1875 L 136.644531 47.230469 L 136.90625 47.230469 C 137.039062 47.230469 137.257812 47.230469 137.257812 46.96875 "/>
<path style=" stroke:none;fill-rule:nonzero;fill:rgb(0%,0%,0%);fill-opacity:1;" d="M 142.132812 50.203125 C 142.132812 49.941406 141.914062 49.941406 141.78125 49.941406 C 141.414062 49.941406 141.324219 49.898438 141.253906 49.871094 L 141.253906 47.972656 C 141.253906 47.351562 140.78125 46.613281 139.523438 46.613281 C 139.148438 46.613281 138.253906 46.613281 138.253906 47.253906 C 138.253906 47.519531 138.4375 47.65625 138.648438 47.65625 C 138.777344 47.65625 139.023438 47.578125 139.03125 47.253906 C 139.03125 47.183594 139.042969 47.175781 139.214844 47.15625 C 139.339844 47.148438 139.453125 47.148438 139.53125 47.148438 C 140.195312 47.148438 140.652344 47.421875 140.652344 48.042969 C 139.101562 48.070312 138.027344 48.511719 138.027344 49.351562 C 138.027344 49.988281 138.578125 50.554688 139.46875 50.554688 C 139.792969 50.554688 140.335938 50.496094 140.746094 50.222656 C 140.941406 50.46875 141.359375 50.472656 141.691406 50.472656 C 141.9375 50.472656 142.132812 50.472656 142.132812 50.203125 M 140.652344 49.304688 C 140.652344 49.503906 140.652344 49.6875 140.3125 49.84375 C 139.996094 50.023438 139.601562 50.023438 139.53125 50.023438 C 138.988281 50.023438 138.628906 49.726562 138.628906 49.386719 C 138.628906 48.957031 139.382812 48.632812 140.652344 48.597656 L 140.652344 49.304688 "/>
<path style=" stroke:none;fill-rule:nonzero;fill:rgb(0%,0%,0%);fill-opacity:1;" d="M 253.503906 50.875 L 253.503906 47.054688 C 253.503906 46.785156 253.453125 46.695312 253.15625 46.695312 L 251.773438 46.695312 C 251.632812 46.695312 251.414062 46.695312 251.414062 46.96875 C 251.414062 47.230469 251.632812 47.230469 251.761719 47.230469 L 252.902344 47.230469 L 252.902344 50.832031 C 252.902344 50.980469 252.902344 51.3125 252.671875 51.621094 C 252.4375 51.953125 252.164062 51.953125 251.964844 51.953125 C 251.710938 51.953125 251.605469 51.9375 251.472656 51.917969 C 251.484375 51.894531 251.484375 51.875 251.484375 51.8125 C 251.484375 51.566406 251.28125 51.417969 251.097656 51.417969 C 250.898438 51.417969 250.703125 51.566406 250.703125 51.824219 C 250.703125 52.488281 251.5625 52.488281 251.921875 52.488281 C 253.191406 52.488281 253.503906 51.4375 253.503906 50.878906 L 253.503906 50.875 M 253.511719 45.601562 C 253.511719 45.359375 253.320312 45.164062 253.074219 45.164062 C 252.832031 45.164062 252.636719 45.359375 252.636719 45.601562 C 252.636719 45.847656 252.832031 46.039062 253.074219 46.039062 C 253.320312 46.039062 253.511719 45.847656 253.511719 45.601562 "/>
<path style=" stroke:none;fill-rule:nonzero;fill:rgb(0%,0%,0%);fill-opacity:1;" d="M 259.535156 50.203125 C 259.535156 49.941406 259.316406 49.941406 259.183594 49.941406 C 258.816406 49.941406 258.730469 49.898438 258.660156 49.871094 L 258.660156 47.972656 C 258.660156 47.351562 258.1875 46.613281 256.925781 46.613281 C 256.550781 46.613281 255.65625 46.613281 255.65625 47.253906 C 255.65625 47.519531 255.839844 47.65625 256.050781 47.65625 C 256.183594 47.65625 256.425781 47.578125 256.4375 47.253906 C 256.4375 47.183594 256.445312 47.175781 256.621094 47.15625 C 256.742188 47.148438 256.855469 47.148438 256.9375 47.148438 C 257.601562 47.148438 258.054688 47.421875 258.054688 48.042969 C 256.507812 48.070312 255.429688 48.511719 255.429688 49.351562 C 255.429688 49.988281 255.980469 50.554688 256.875 50.554688 C 257.195312 50.554688 257.738281 50.496094 258.152344 50.222656 C 258.34375 50.46875 258.765625 50.472656 259.097656 50.472656 C 259.34375 50.472656 259.535156 50.472656 259.535156 50.203125 M 258.054688 49.304688 C 258.054688 49.503906 258.054688 49.6875 257.714844 49.84375 C 257.398438 50.023438 257.003906 50.023438 256.9375 50.023438 C 256.394531 50.023438 256.035156 49.726562 256.035156 49.386719 C 256.035156 48.957031 256.785156 48.632812 258.054688 48.597656 L 258.054688 49.304688 "/>
<path style=" stroke:none;fill-rule:nonzero;fill:rgb(0%,0%,0%);fill-opacity:1;" d="M 264.078125 46.96875 C 264.078125 46.695312 263.867188 46.695312 263.726562 46.695312 L 262.703125 46.695312 C 262.570312 46.695312 262.351562 46.695312 262.351562 46.960938 C 262.351562 47.230469 262.5625 47.230469 262.703125 47.230469 L 262.949219 47.230469 L 261.992188 50.023438 L 261.039062 47.230469 L 261.285156 47.230469 C 261.414062 47.230469 261.636719 47.230469 261.636719 46.96875 C 261.636719 46.695312 261.425781 46.695312 261.285156 46.695312 L 260.261719 46.695312 C 260.121094 46.695312 259.910156 46.695312 259.910156 46.96875 C 259.910156 47.230469 260.128906 47.230469 260.261719 47.230469 L 260.523438 47.230469 L 261.53125 50.179688 C 261.636719 50.472656 261.808594 50.472656 261.992188 50.472656 C 262.160156 50.472656 262.359375 50.472656 262.457031 50.1875 L 263.464844 47.230469 L 263.726562 47.230469 C 263.855469 47.230469 264.078125 47.230469 264.078125 46.96875 "/>
<path style=" stroke:none;fill-rule:nonzero;fill:rgb(0%,0%,0%);fill-opacity:1;" d="M 268.949219 50.203125 C 268.949219 49.941406 268.730469 49.941406 268.601562 49.941406 C 268.234375 49.941406 268.144531 49.898438 268.074219 49.871094 L 268.074219 47.972656 C 268.074219 47.351562 267.601562 46.613281 266.34375 46.613281 C 265.96875 46.613281 265.074219 46.613281 265.074219 47.253906 C 265.074219 47.519531 265.257812 47.65625 265.46875 47.65625 C 265.597656 47.65625 265.84375 47.578125 265.851562 47.253906 C 265.851562 47.183594 265.863281 47.175781 266.035156 47.15625 C 266.160156 47.148438 266.273438 47.148438 266.351562 47.148438 C 267.015625 47.148438 267.472656 47.421875 267.472656 48.042969 C 265.921875 48.070312 264.847656 48.511719 264.847656 49.351562 C 264.847656 49.988281 265.398438 50.554688 266.289062 50.554688 C 266.613281 50.554688 267.15625 50.496094 267.566406 50.222656 C 267.761719 50.46875 268.179688 50.472656 268.511719 50.472656 C 268.757812 50.472656 268.949219 50.472656 268.949219 50.203125 M 267.472656 49.304688 C 267.472656 49.503906 267.472656 49.6875 267.132812 49.84375 C 266.816406 50.023438 266.421875 50.023438 266.351562 50.023438 C 265.808594 50.023438 265.449219 49.726562 265.449219 49.386719 C 265.449219 48.957031 266.203125 48.632812 267.472656 48.597656 L 267.472656 49.304688 "/>
<path style=" stroke:none;fill-rule:nonzero;fill:rgb(0%,0%,0%);fill-opacity:1;" d="M 278.21875 50.214844 C 278.21875 49.941406 278.007812 49.941406 277.867188 49.941406 L 277.648438 49.941406 L 277.648438 45.671875 L 277.867188 45.671875 C 278 45.671875 278.21875 45.671875 278.21875 45.40625 C 278.21875 45.136719 278.007812 45.136719 277.867188 45.136719 L 276.828125 45.136719 C 276.695312 45.136719 276.476562 45.136719 276.476562 45.398438 C 276.476562 45.671875 276.6875 45.671875 276.828125 45.671875 L 277.046875 45.671875 L 277.046875 47.433594 L 275.1875 47.433594 L 275.1875 45.671875 L 275.410156 45.671875 C 275.539062 45.671875 275.757812 45.671875 275.757812 45.40625 C 275.757812 45.136719 275.546875 45.136719 275.410156 45.136719 L 274.367188 45.136719 C 274.226562 45.136719 274.019531 45.136719 274.019531 45.40625 C 274.019531 45.671875 274.234375 45.671875 274.367188 45.671875 L 274.585938 45.671875 L 274.585938 49.941406 L 274.367188 49.941406 C 274.226562 49.941406 274.019531 49.941406 274.019531 50.214844 C 274.019531 50.472656 274.234375 50.472656 274.367188 50.472656 L 275.410156 50.472656 C 275.539062 50.472656 275.757812 50.472656 275.757812 50.214844 C 275.757812 49.941406 275.546875 49.941406 275.410156 49.941406 L 275.1875 49.941406 L 275.1875 47.96875 L 277.046875 47.96875 L 277.046875 49.941406 L 276.828125 49.941406 C 276.695312 49.941406 276.476562 49.941406 276.476562 50.203125 C 276.476562 50.472656 276.6875 50.472656 276.828125 50.472656 L 277.867188 50.472656 C 278 50.472656 278.21875 50.472656 278.21875 50.214844 "/>
<path style=" stroke:none;fill-rule:nonzero;fill:rgb(0%,0%,0%);fill-opacity:1;" d="M 282.59375 49.542969 C 282.59375 49.300781 282.339844 49.300781 282.285156 49.300781 C 282.128906 49.300781 282.058594 49.324219 281.996094 49.488281 C 281.804688 49.933594 281.332031 50.015625 281.089844 50.015625 C 280.433594 50.015625 279.773438 49.578125 279.636719 48.832031 L 282.242188 48.832031 C 282.429688 48.832031 282.59375 48.832031 282.59375 48.507812 C 282.59375 47.484375 282.035156 46.613281 280.894531 46.613281 C 279.855469 46.613281 279.015625 47.503906 279.015625 48.605469 C 279.015625 49.671875 279.898438 50.554688 281.027344 50.554688 C 282.183594 50.554688 282.59375 49.769531 282.59375 49.550781 L 282.59375 49.542969 M 281.972656 48.308594 L 279.644531 48.308594 C 279.765625 47.644531 280.285156 47.148438 280.894531 47.148438 C 281.351562 47.148438 281.894531 47.375 281.972656 48.308594 "/>
<path style=" stroke:none;fill-rule:nonzero;fill:rgb(0%,0%,0%);fill-opacity:1;" d="M 287.328125 50.214844 C 287.328125 49.941406 287.117188 49.941406 286.980469 49.941406 L 285.839844 49.941406 L 285.839844 45.496094 C 285.839844 45.222656 285.789062 45.136719 285.488281 45.136719 L 284.105469 45.136719 C 283.96875 45.136719 283.746094 45.136719 283.746094 45.40625 C 283.746094 45.671875 283.976562 45.671875 284.097656 45.671875 L 285.238281 45.671875 L 285.238281 49.941406 L 284.105469 49.941406 C 283.96875 49.941406 283.746094 49.941406 283.746094 50.214844 C 283.746094 50.472656 283.976562 50.472656 284.097656 50.472656 L 286.980469 50.472656 C 287.109375 50.472656 287.328125 50.472656 287.328125 50.214844 "/>
<path style=" stroke:none;fill-rule:nonzero;fill:rgb(0%,0%,0%);fill-opacity:1;" d="M 292.035156 50.214844 C 292.035156 49.941406 291.824219 49.941406 291.6875 49.941406 L 290.546875 49.941406 L 290.546875 45.496094 C 290.546875 45.222656 290.496094 45.136719 290.199219 45.136719 L 288.816406 45.136719 C 288.675781 45.136719 288.457031 45.136719 288.457031 45.40625 C 288.457031 45.671875 288.683594 45.671875 288.808594 45.671875 L 289.945312 45.671875 L 289.945312 49.941406 L 288.816406 49.941406 C 288.675781 49.941406 288.457031 49.941406 288.457031 50.214844 C 288.457031 50.472656 288.683594 50.472656 288.808594 50.472656 L 291.6875 50.472656 C 291.816406 50.472656 292.035156 50.472656 292.035156 50.214844 "/>
<path style=" stroke:none;fill-rule:nonzero;fill:rgb(0%,0%,0%);fill-opacity:1;" d="M 296.746094 48.59375 C 296.746094 47.484375 295.929688 46.613281 294.949219 46.613281 C 293.96875 46.613281 293.15625 47.484375 293.15625 48.59375 C 293.15625 49.722656 293.988281 50.554688 294.949219 50.554688 C 295.914062 50.554688 296.746094 49.714844 296.746094 48.59375 M 296.140625 48.53125 C 296.140625 49.359375 295.597656 50.023438 294.949219 50.023438 C 294.304688 50.023438 293.761719 49.359375 293.761719 48.53125 C 293.761719 47.726562 294.328125 47.148438 294.949219 47.148438 C 295.578125 47.148438 296.140625 47.726562 296.140625 48.53125 "/>
<path style="fill:none;stroke-width:9.9211;stroke-linecap:butt;stroke-linejoin:miter;stroke:rgb(0%,0%,0%);stroke-opacity:1;stroke-miterlimit:10;" d="M 3005.117188 298.867188 L 3080.507812 224.453125 L 3080.507812 422.890625 L 3005.117188 373.28125 " transform="matrix(0.1,0,0,-0.1,0,63)"/>
<path style="fill:none;stroke-width:9.9211;stroke-linecap:butt;stroke-linejoin:miter;stroke:rgb(0%,0%,0%);stroke-opacity:1;stroke-miterlimit:10;" d="M 2471.835938 373.28125 L 2386.015625 323.671875 L 2386.015625 522.109375 L 2471.835938 447.695312 " transform="matrix(0.1,0,0,-0.1,0,63)"/>
<path style="fill:none;stroke-width:9.9211;stroke-linecap:butt;stroke-linejoin:miter;stroke:rgb(0%,0%,0%);stroke-opacity:1;stroke-miterlimit:10;" d="M 421.640625 417.929688 L 664.257812 415.664062 " transform="matrix(0.1,0,0,-0.1,0,63)"/>
<path style="fill:none;stroke-width:9.9211;stroke-linecap:butt;stroke-linejoin:miter;stroke:rgb(0%,0%,0%);stroke-opacity:1;stroke-miterlimit:10;" d="M 625.507812 391.210938 L 675.351562 415.546875 L 625.976562 440.820312 " transform="matrix(0.1,0,0,-0.1,0,63)"/>
<path style="fill:none;stroke-width:9.9211;stroke-linecap:butt;stroke-linejoin:miter;stroke:rgb(0%,0%,0%);stroke-opacity:1;stroke-miterlimit:10;" d="M 1412.226562 317.109375 L 1654.84375 314.84375 " transform="matrix(0.1,0,0,-0.1,0,63)"/>
<path style="fill:none;stroke-width:9.9211;stroke-linecap:butt;stroke-linejoin:miter;stroke:rgb(0%,0%,0%);stroke-opacity:1;stroke-miterlimit:10;" d="M 1616.09375 290.390625 L 1665.9375 314.726562 L 1616.5625 340 " transform="matrix(0.1,0,0,-0.1,0,63)"/>
<path style="fill:none;stroke-width:9.9211;stroke-linecap:butt;stroke-linejoin:miter;stroke:rgb(0%,0%,0%);stroke-opacity:1;stroke-miterlimit:10;" d="M 2108.203125 413.359375 L 2350.820312 411.09375 " transform="matrix(0.1,0,0,-0.1,0,63)"/>
<path style="fill:none;stroke-width:9.9211;stroke-linecap:butt;stroke-linejoin:miter;stroke:rgb(0%,0%,0%);stroke-opacity:1;stroke-miterlimit:10;" d="M 2312.070312 386.640625 L 2361.914062 410.976562 L 2312.539062 436.25 " transform="matrix(0.1,0,0,-0.1,0,63)"/>
<path style="fill:none;stroke-width:9.9211;stroke-linecap:butt;stroke-linejoin:miter;stroke:rgb(0%,0%,0%);stroke-opacity:1;stroke-miterlimit:10;" d="M 3096.835938 316.132812 L 3339.453125 313.867188 " transform="matrix(0.1,0,0,-0.1,0,63)"/>
<path style="fill:none;stroke-width:9.9211;stroke-linecap:butt;stroke-linejoin:miter;stroke:rgb(0%,0%,0%);stroke-opacity:1;stroke-miterlimit:10;" d="M 3300.703125 289.414062 L 3350.546875 313.75 L 3301.171875 339.023438 " transform="matrix(0.1,0,0,-0.1,0,63)"/>
</g>
</svg>
