<?xml version="1.0" encoding="UTF-8"?>
<svg xmlns="http://www.w3.org/2000/svg" xmlns:xlink="http://www.w3.org/1999/xlink" width="166pt" height="166pt" viewBox="0 0 166 166" version="1.1">
<g id="surface1">
<path style="fill:none;stroke-width:18;stroke-linecap:butt;stroke-linejoin:miter;stroke:rgb(52.929688%,81.054688%,100%);stroke-opacity:1;stroke-miterlimit:10;" d="M 20 740 L 200 740 L 200 920 L 20 920 Z M 20 740 " transform="matrix(0.1,0,0,-0.1,0,166)"/>
<path style="fill:none;stroke-width:18;stroke-linecap:butt;stroke-linejoin:miter;stroke:rgb(52.929688%,81.054688%,100%);stroke-opacity:1;stroke-miterlimit:10;" d="M 200 740 L 380 740 L 380 920 L 200 920 Z M 200 740 " transform="matrix(0.1,0,0,-0.1,0,166)"/>
<path style="fill:none;stroke-width:18;stroke-linecap:butt;stroke-linejoin:miter;stroke:rgb(52.929688%,81.054688%,100%);stroke-opacity:1;stroke-miterlimit:10;" d="M 380 740 L 560 740 L 560 920 L 380 920 Z M 380 740 " transform="matrix(0.1,0,0,-0.1,0,166)"/>
<path style="fill:none;stroke-width:18;stroke-linecap:butt;stroke-linejoin:miter;stroke:rgb(52.929688%,81.054688%,100%);stroke-opacity:1;stroke-miterlimit:10;" d="M 560 740 L 740 740 L 740 920 L 560 920 Z M 560 740 " transform="matrix(0.1,0,0,-0.1,0,166)"/>
<path style="fill:none;stroke-width:18;stroke-linecap:butt;stroke-linejoin:miter;stroke:rgb(52.929688%,81.054688%,100%);stroke-opacity:1;stroke-miterlimit:10;" d="M 740 740 L 920 740 L 920 920 L 740 920 Z M 740 740 " transform="matrix(0.1,0,0,-0.1,0,166)"/>
<path style="fill:none;stroke-width:18;stroke-linecap:butt;stroke-linejoin:miter;stroke:rgb(52.929688%,81.054688%,100%);stroke-opacity:1;stroke-miterlimit:10;" d="M 920 740 L 1100 740 L 1100 920 L 920 920 Z M 920 740 " transform="matrix(0.1,0,0,-0.1,0,166)"/>
<path style="fill:none;stroke-width:18;stroke-linecap:butt;stroke-linejoin:miter;stroke:rgb(52.929688%,81.054688%,100%);stroke-opacity:1;stroke-miterlimit:10;" d="M 1100 740 L 1280 740 L 1280 920 L 1100 920 Z M 1100 740 " transform="matrix(0.1,0,0,-0.1,0,166)"/>
<path style="fill:none;stroke-width:18;stroke-linecap:butt;stroke-linejoin:miter;stroke:rgb(52.929688%,81.054688%,100%);stroke-opacity:1;stroke-miterlimit:10;" d="M 1280 740 L 1460 740 L 1460 920 L 1280 920 Z M 1280 740 " transform="matrix(0.1,0,0,-0.1,0,166)"/>
<path style="fill:none;stroke-width:18;stroke-linecap:butt;stroke-linejoin:miter;stroke:rgb(52.929688%,81.054688%,100%);stroke-opacity:1;stroke-miterlimit:10;" d="M 20 920 L 200 920 L 200 1100 L 20 1100 Z M 20 920 " transform="matrix(0.1,0,0,-0.1,0,166)"/>
<path style="fill:none;stroke-width:18;stroke-linecap:butt;stroke-linejoin:miter;stroke:rgb(52.929688%,81.054688%,100%);stroke-opacity:1;stroke-miterlimit:10;" d="M 200 920 L 380 920 L 380 1100 L 200 1100 Z M 200 920 " transform="matrix(0.1,0,0,-0.1,0,166)"/>
<path style="fill:none;stroke-width:18;stroke-linecap:butt;stroke-linejoin:miter;stroke:rgb(52.929688%,81.054688%,100%);stroke-opacity:1;stroke-miterlimit:10;" d="M 380 920 L 560 920 L 560 1100 L 380 1100 Z M 380 920 " transform="matrix(0.1,0,0,-0.1,0,166)"/>
<path style="fill:none;stroke-width:18;stroke-linecap:butt;stroke-linejoin:miter;stroke:rgb(52.929688%,81.054688%,100%);stroke-opacity:1;stroke-miterlimit:10;" d="M 560 920 L 740 920 L 740 1100 L 560 1100 Z M 560 920 " transform="matrix(0.1,0,0,-0.1,0,166)"/>
<path style="fill:none;stroke-width:18;stroke-linecap:butt;stroke-linejoin:miter;stroke:rgb(52.929688%,81.054688%,100%);stroke-opacity:1;stroke-miterlimit:10;" d="M 740 920 L 920 920 L 920 1100 L 740 1100 Z M 740 920 " transform="matrix(0.1,0,0,-0.1,0,166)"/>
<path style="fill:none;stroke-width:18;stroke-linecap:butt;stroke-linejoin:miter;stroke:rgb(52.929688%,81.054688%,100%);stroke-opacity:1;stroke-miterlimit:10;" d="M 920 920 L 1100 920 L 1100 1100 L 920 1100 Z M 920 920 " transform="matrix(0.1,0,0,-0.1,0,166)"/>
<path style="fill:none;stroke-width:18;stroke-linecap:butt;stroke-linejoin:miter;stroke:rgb(52.929688%,81.054688%,100%);stroke-opacity:1;stroke-miterlimit:10;" d="M 1100 920 L 1280 920 L 1280 1100 L 1100 1100 Z M 1100 920 " transform="matrix(0.1,0,0,-0.1,0,166)"/>
<path style="fill:none;stroke-width:18;stroke-linecap:butt;stroke-linejoin:miter;stroke:rgb(52.929688%,81.054688%,100%);stroke-opacity:1;stroke-miterlimit:10;" d="M 1280 920 L 1460 920 L 1460 1100 L 1280 1100 Z M 1280 920 " transform="matrix(0.1,0,0,-0.1,0,166)"/>
<path style="fill:none;stroke-width:18;stroke-linecap:butt;stroke-linejoin:miter;stroke:rgb(52.929688%,81.054688%,100%);stroke-opacity:1;stroke-miterlimit:10;" d="M 20 1100 L 200 1100 L 200 1280 L 20 1280 Z M 20 1100 " transform="matrix(0.1,0,0,-0.1,0,166)"/>
<path style="fill:none;stroke-width:18;stroke-linecap:butt;stroke-linejoin:miter;stroke:rgb(52.929688%,81.054688%,100%);stroke-opacity:1;stroke-miterlimit:10;" d="M 200 1100 L 380 1100 L 380 1280 L 200 1280 Z M 200 1100 " transform="matrix(0.1,0,0,-0.1,0,166)"/>
<path style="fill:none;stroke-width:18;stroke-linecap:butt;stroke-linejoin:miter;stroke:rgb(52.929688%,81.054688%,100%);stroke-opacity:1;stroke-miterlimit:10;" d="M 380 1100 L 560 1100 L 560 1280 L 380 1280 Z M 380 1100 " transform="matrix(0.1,0,0,-0.1,0,166)"/>
<path style="fill:none;stroke-width:18;stroke-linecap:butt;stroke-linejoin:miter;stroke:rgb(52.929688%,81.054688%,100%);stroke-opacity:1;stroke-miterlimit:10;" d="M 560 1100 L 740 1100 L 740 1280 L 560 1280 Z M 560 1100 " transform="matrix(0.1,0,0,-0.1,0,166)"/>
<path style="fill:none;stroke-width:18;stroke-linecap:butt;stroke-linejoin:miter;stroke:rgb(52.929688%,81.054688%,100%);stroke-opacity:1;stroke-miterlimit:10;" d="M 740 1100 L 920 1100 L 920 1280 L 740 1280 Z M 740 1100 " transform="matrix(0.1,0,0,-0.1,0,166)"/>
<path style="fill:none;stroke-width:18;stroke-linecap:butt;stroke-linejoin:miter;stroke:rgb(52.929688%,81.054688%,100%);stroke-opacity:1;stroke-miterlimit:10;" d="M 920 1100 L 1100 1100 L 1100 1280 L 920 1280 Z M 920 1100 " transform="matrix(0.1,0,0,-0.1,0,166)"/>
<path style="fill:none;stroke-width:18;stroke-linecap:butt;stroke-linejoin:miter;stroke:rgb(52.929688%,81.054688%,100%);stroke-opacity:1;stroke-miterlimit:10;" d="M 1100 1100 L 1280 1100 L 1280 1280 L 1100 1280 Z M 1100 1100 " transform="matrix(0.1,0,0,-0.1,0,166)"/>
<path style="fill:none;stroke-width:18;stroke-linecap:butt;stroke-linejoin:miter;stroke:rgb(52.929688%,81.054688%,100%);stroke-opacity:1;stroke-miterlimit:10;" d="M 1280 1100 L 1460 1100 L 1460 1280 L 1280 1280 Z M 1280 1100 " transform="matrix(0.1,0,0,-0.1,0,166)"/>
<path style="fill:none;stroke-width:18;stroke-linecap:butt;stroke-linejoin:miter;stroke:rgb(52.929688%,81.054688%,100%);stroke-opacity:1;stroke-miterlimit:10;" d="M 20 1280 L 200 1280 L 200 1460 L 20 1460 Z M 20 1280 " transform="matrix(0.1,0,0,-0.1,0,166)"/>
<path style="fill:none;stroke-width:18;stroke-linecap:butt;stroke-linejoin:miter;stroke:rgb(52.929688%,81.054688%,100%);stroke-opacity:1;stroke-miterlimit:10;" d="M 200 1280 L 380 1280 L 380 1460 L 200 1460 Z M 200 1280 " transform="matrix(0.1,0,0,-0.1,0,166)"/>
<path style="fill:none;stroke-width:18;stroke-linecap:butt;stroke-linejoin:miter;stroke:rgb(52.929688%,81.054688%,100%);stroke-opacity:1;stroke-miterlimit:10;" d="M 380 1280 L 560 1280 L 560 1460 L 380 1460 Z M 380 1280 " transform="matrix(0.1,0,0,-0.1,0,166)"/>
<path style="fill:none;stroke-width:18;stroke-linecap:butt;stroke-linejoin:miter;stroke:rgb(52.929688%,81.054688%,100%);stroke-opacity:1;stroke-miterlimit:10;" d="M 560 1280 L 740 1280 L 740 1460 L 560 1460 Z M 560 1280 " transform="matrix(0.1,0,0,-0.1,0,166)"/>
<path style="fill:none;stroke-width:18;stroke-linecap:butt;stroke-linejoin:miter;stroke:rgb(52.929688%,81.054688%,100%);stroke-opacity:1;stroke-miterlimit:10;" d="M 740 1280 L 920 1280 L 920 1460 L 740 1460 Z M 740 1280 " transform="matrix(0.1,0,0,-0.1,0,166)"/>
<path style="fill:none;stroke-width:18;stroke-linecap:butt;stroke-linejoin:miter;stroke:rgb(52.929688%,81.054688%,100%);stroke-opacity:1;stroke-miterlimit:10;" d="M 920 1280 L 1100 1280 L 1100 1460 L 920 1460 Z M 920 1280 " transform="matrix(0.1,0,0,-0.1,0,166)"/>
<path style="fill:none;stroke-width:18;stroke-linecap:butt;stroke-linejoin:miter;stroke:rgb(52.929688%,81.054688%,100%);stroke-opacity:1;stroke-miterlimit:10;" d="M 1100 1280 L 1280 1280 L 1280 1460 L 1100 1460 Z M 1100 1280 " transform="matrix(0.1,0,0,-0.1,0,166)"/>
<path style="fill:none;stroke-width:18;stroke-linecap:butt;stroke-linejoin:miter;stroke:rgb(52.929688%,81.054688%,100%);stroke-opacity:1;stroke-miterlimit:10;" d="M 1280 1280 L 1460 1280 L 1460 1460 L 1280 1460 Z M 1280 1280 " transform="matrix(0.1,0,0,-0.1,0,166)"/>
<path style="fill:none;stroke-width:18;stroke-linecap:butt;stroke-linejoin:miter;stroke:rgb(52.929688%,81.054688%,100%);stroke-opacity:1;stroke-miterlimit:10;" d="M 20 20 L 200 20 L 200 200 L 20 200 Z M 20 20 " transform="matrix(0.1,0,0,-0.1,0,166)"/>
<path style="fill:none;stroke-width:18;stroke-linecap:butt;stroke-linejoin:miter;stroke:rgb(52.929688%,81.054688%,100%);stroke-opacity:1;stroke-miterlimit:10;" d="M 200 20 L 380 20 L 380 200 L 200 200 Z M 200 20 " transform="matrix(0.1,0,0,-0.1,0,166)"/>
<path style="fill:none;stroke-width:18;stroke-linecap:butt;stroke-linejoin:miter;stroke:rgb(52.929688%,81.054688%,100%);stroke-opacity:1;stroke-miterlimit:10;" d="M 380 20 L 560 20 L 560 200 L 380 200 Z M 380 20 " transform="matrix(0.1,0,0,-0.1,0,166)"/>
<path style="fill:none;stroke-width:18;stroke-linecap:butt;stroke-linejoin:miter;stroke:rgb(52.929688%,81.054688%,100%);stroke-opacity:1;stroke-miterlimit:10;" d="M 560 20 L 740 20 L 740 200 L 560 200 Z M 560 20 " transform="matrix(0.1,0,0,-0.1,0,166)"/>
<path style="fill:none;stroke-width:18;stroke-linecap:butt;stroke-linejoin:miter;stroke:rgb(52.929688%,81.054688%,100%);stroke-opacity:1;stroke-miterlimit:10;" d="M 740 20 L 920 20 L 920 200 L 740 200 Z M 740 20 " transform="matrix(0.1,0,0,-0.1,0,166)"/>
<path style="fill:none;stroke-width:18;stroke-linecap:butt;stroke-linejoin:miter;stroke:rgb(52.929688%,81.054688%,100%);stroke-opacity:1;stroke-miterlimit:10;" d="M 920 20 L 1100 20 L 1100 200 L 920 200 Z M 920 20 " transform="matrix(0.1,0,0,-0.1,0,166)"/>
<path style="fill:none;stroke-width:18;stroke-linecap:butt;stroke-linejoin:miter;stroke:rgb(52.929688%,81.054688%,100%);stroke-opacity:1;stroke-miterlimit:10;" d="M 1100 20 L 1280 20 L 1280 200 L 1100 200 Z M 1100 20 " transform="matrix(0.1,0,0,-0.1,0,166)"/>
<path style="fill:none;stroke-width:18;stroke-linecap:butt;stroke-linejoin:miter;stroke:rgb(52.929688%,81.054688%,100%);stroke-opacity:1;stroke-miterlimit:10;" d="M 1280 20 L 1460 20 L 1460 200 L 1280 200 Z M 1280 20 " transform="matrix(0.1,0,0,-0.1,0,166)"/>
<path style="fill:none;stroke-width:18;stroke-linecap:butt;stroke-linejoin:miter;stroke:rgb(52.929688%,81.054688%,100%);stroke-opacity:1;stroke-miterlimit:10;" d="M 20 200 L 200 200 L 200 380 L 20 380 Z M 20 200 " transform="matrix(0.1,0,0,-0.1,0,166)"/>
<path style="fill:none;stroke-width:18;stroke-linecap:butt;stroke-linejoin:miter;stroke:rgb(52.929688%,81.054688%,100%);stroke-opacity:1;stroke-miterlimit:10;" d="M 200 200 L 380 200 L 380 380 L 200 380 Z M 200 200 " transform="matrix(0.1,0,0,-0.1,0,166)"/>
<path style="fill:none;stroke-width:18;stroke-linecap:butt;stroke-linejoin:miter;stroke:rgb(52.929688%,81.054688%,100%);stroke-opacity:1;stroke-miterlimit:10;" d="M 380 200 L 560 200 L 560 380 L 380 380 Z M 380 200 " transform="matrix(0.1,0,0,-0.1,0,166)"/>
<path style="fill:none;stroke-width:18;stroke-linecap:butt;stroke-linejoin:miter;stroke:rgb(52.929688%,81.054688%,100%);stroke-opacity:1;stroke-miterlimit:10;" d="M 560 200 L 740 200 L 740 380 L 560 380 Z M 560 200 " transform="matrix(0.1,0,0,-0.1,0,166)"/>
<path style="fill:none;stroke-width:18;stroke-linecap:butt;stroke-linejoin:miter;stroke:rgb(52.929688%,81.054688%,100%);stroke-opacity:1;stroke-miterlimit:10;" d="M 740 200 L 920 200 L 920 380 L 740 380 Z M 740 200 " transform="matrix(0.1,0,0,-0.1,0,166)"/>
<path style="fill:none;stroke-width:18;stroke-linecap:butt;stroke-linejoin:miter;stroke:rgb(52.929688%,81.054688%,100%);stroke-opacity:1;stroke-miterlimit:10;" d="M 920 200 L 1100 200 L 1100 380 L 920 380 Z M 920 200 " transform="matrix(0.1,0,0,-0.1,0,166)"/>
<path style="fill:none;stroke-width:18;stroke-linecap:butt;stroke-linejoin:miter;stroke:rgb(52.929688%,81.054688%,100%);stroke-opacity:1;stroke-miterlimit:10;" d="M 1100 200 L 1280 200 L 1280 380 L 1100 380 Z M 1100 200 " transform="matrix(0.1,0,0,-0.1,0,166)"/>
<path style="fill:none;stroke-width:18;stroke-linecap:butt;stroke-linejoin:miter;stroke:rgb(52.929688%,81.054688%,100%);stroke-opacity:1;stroke-miterlimit:10;" d="M 1280 200 L 1460 200 L 1460 380 L 1280 380 Z M 1280 200 " transform="matrix(0.1,0,0,-0.1,0,166)"/>
<path style="fill:none;stroke-width:18;stroke-linecap:butt;stroke-linejoin:miter;stroke:rgb(52.929688%,81.054688%,100%);stroke-opacity:1;stroke-miterlimit:10;" d="M 20 380 L 200 380 L 200 560 L 20 560 Z M 20 380 " transform="matrix(0.1,0,0,-0.1,0,166)"/>
<path style="fill:none;stroke-width:18;stroke-linecap:butt;stroke-linejoin:miter;stroke:rgb(52.929688%,81.054688%,100%);stroke-opacity:1;stroke-miterlimit:10;" d="M 200 380 L 380 380 L 380 560 L 200 560 Z M 200 380 " transform="matrix(0.1,0,0,-0.1,0,166)"/>
<path style="fill:none;stroke-width:18;stroke-linecap:butt;stroke-linejoin:miter;stroke:rgb(52.929688%,81.054688%,100%);stroke-opacity:1;stroke-miterlimit:10;" d="M 380 380 L 560 380 L 560 560 L 380 560 Z M 380 380 " transform="matrix(0.1,0,0,-0.1,0,166)"/>
<path style="fill:none;stroke-width:18;stroke-linecap:butt;stroke-linejoin:miter;stroke:rgb(52.929688%,81.054688%,100%);stroke-opacity:1;stroke-miterlimit:10;" d="M 560 380 L 740 380 L 740 560 L 560 560 Z M 560 380 " transform="matrix(0.1,0,0,-0.1,0,166)"/>
<path style="fill:none;stroke-width:18;stroke-linecap:butt;stroke-linejoin:miter;stroke:rgb(52.929688%,81.054688%,100%);stroke-opacity:1;stroke-miterlimit:10;" d="M 740 380 L 920 380 L 920 560 L 740 560 Z M 740 380 " transform="matrix(0.1,0,0,-0.1,0,166)"/>
<path style="fill:none;stroke-width:18;stroke-linecap:butt;stroke-linejoin:miter;stroke:rgb(52.929688%,81.054688%,100%);stroke-opacity:1;stroke-miterlimit:10;" d="M 920 380 L 1100 380 L 1100 560 L 920 560 Z M 920 380 " transform="matrix(0.1,0,0,-0.1,0,166)"/>
<path style="fill:none;stroke-width:18;stroke-linecap:butt;stroke-linejoin:miter;stroke:rgb(52.929688%,81.054688%,100%);stroke-opacity:1;stroke-miterlimit:10;" d="M 1100 380 L 1280 380 L 1280 560 L 1100 560 Z M 1100 380 " transform="matrix(0.1,0,0,-0.1,0,166)"/>
<path style="fill:none;stroke-width:18;stroke-linecap:butt;stroke-linejoin:miter;stroke:rgb(52.929688%,81.054688%,100%);stroke-opacity:1;stroke-miterlimit:10;" d="M 1280 380 L 1460 380 L 1460 560 L 1280 560 Z M 1280 380 " transform="matrix(0.1,0,0,-0.1,0,166)"/>
<path style="fill:none;stroke-width:18;stroke-linecap:butt;stroke-linejoin:miter;stroke:rgb(52.929688%,81.054688%,100%);stroke-opacity:1;stroke-miterlimit:10;" d="M 20 560 L 200 560 L 200 740 L 20 740 Z M 20 560 " transform="matrix(0.1,0,0,-0.1,0,166)"/>
<path style="fill:none;stroke-width:18;stroke-linecap:butt;stroke-linejoin:miter;stroke:rgb(52.929688%,81.054688%,100%);stroke-opacity:1;stroke-miterlimit:10;" d="M 200 560 L 380 560 L 380 740 L 200 740 Z M 200 560 " transform="matrix(0.1,0,0,-0.1,0,166)"/>
<path style="fill:none;stroke-width:18;stroke-linecap:butt;stroke-linejoin:miter;stroke:rgb(52.929688%,81.054688%,100%);stroke-opacity:1;stroke-miterlimit:10;" d="M 380 560 L 560 560 L 560 740 L 380 740 Z M 380 560 " transform="matrix(0.1,0,0,-0.1,0,166)"/>
<path style="fill:none;stroke-width:18;stroke-linecap:butt;stroke-linejoin:miter;stroke:rgb(52.929688%,81.054688%,100%);stroke-opacity:1;stroke-miterlimit:10;" d="M 560 560 L 740 560 L 740 740 L 560 740 Z M 560 560 " transform="matrix(0.1,0,0,-0.1,0,166)"/>
<path style="fill:none;stroke-width:18;stroke-linecap:butt;stroke-linejoin:miter;stroke:rgb(52.929688%,81.054688%,100%);stroke-opacity:1;stroke-miterlimit:10;" d="M 740 560 L 920 560 L 920 740 L 740 740 Z M 740 560 " transform="matrix(0.1,0,0,-0.1,0,166)"/>
<path style="fill:none;stroke-width:18;stroke-linecap:butt;stroke-linejoin:miter;stroke:rgb(52.929688%,81.054688%,100%);stroke-opacity:1;stroke-miterlimit:10;" d="M 920 560 L 1100 560 L 1100 740 L 920 740 Z M 920 560 " transform="matrix(0.1,0,0,-0.1,0,166)"/>
<path style="fill:none;stroke-width:18;stroke-linecap:butt;stroke-linejoin:miter;stroke:rgb(52.929688%,81.054688%,100%);stroke-opacity:1;stroke-miterlimit:10;" d="M 1100 560 L 1280 560 L 1280 740 L 1100 740 Z M 1100 560 " transform="matrix(0.1,0,0,-0.1,0,166)"/>
<path style="fill:none;stroke-width:18;stroke-linecap:butt;stroke-linejoin:miter;stroke:rgb(52.929688%,81.054688%,100%);stroke-opacity:1;stroke-miterlimit:10;" d="M 1280 560 L 1460 560 L 1460 740 L 1280 740 Z M 1280 560 " transform="matrix(0.1,0,0,-0.1,0,166)"/>
<path style=" stroke:none;fill-rule:evenodd;fill:rgb(80.076599%,80.076599%,80.076599%);fill-opacity:1;" d="M 51.5 65 C 51.5 67.484375 49.484375 69.5 47 69.5 C 44.515625 69.5 42.5 67.484375 42.5 65 C 42.5 62.515625 44.515625 60.5 47 60.5 C 49.484375 60.5 51.5 62.515625 51.5 65 "/>
<path style="fill:none;stroke-width:4.5;stroke-linecap:butt;stroke-linejoin:miter;stroke:rgb(0%,0%,0%);stroke-opacity:1;stroke-miterlimit:10;" d="M 515 1010 C 515 985.15625 494.84375 965 470 965 C 445.15625 965 425 985.15625 425 1010 C 425 1034.84375 445.15625 1055 470 1055 C 494.84375 1055 515 1034.84375 515 1010 Z M 515 1010 " transform="matrix(0.1,0,0,-0.1,0,166)"/>
<path style=" stroke:none;fill-rule:evenodd;fill:rgb(80.076599%,80.076599%,80.076599%);fill-opacity:1;" d="M 141.5 29 C 141.5 31.484375 139.484375 33.5 137 33.5 C 134.515625 33.5 132.5 31.484375 132.5 29 C 132.5 26.515625 134.515625 24.5 137 24.5 C 139.484375 24.5 141.5 26.515625 141.5 29 "/>
<path style="fill:none;stroke-width:4.5;stroke-linecap:butt;stroke-linejoin:miter;stroke:rgb(0%,0%,0%);stroke-opacity:1;stroke-miterlimit:10;" d="M 1415 1370 C 1415 1345.15625 1394.84375 1325 1370 1325 C 1345.15625 1325 1325 1345.15625 1325 1370 C 1325 1394.84375 1345.15625 1415 1370 1415 C 1394.84375 1415 1415 1394.84375 1415 1370 Z M 1415 1370 " transform="matrix(0.1,0,0,-0.1,0,166)"/>
<path style=" stroke:none;fill-rule:evenodd;fill:rgb(80.076599%,80.076599%,80.076599%);fill-opacity:1;" d="M 141.5 119 C 141.5 121.484375 139.484375 123.5 137 123.5 C 134.515625 123.5 132.5 121.484375 132.5 119 C 132.5 116.515625 134.515625 114.5 137 114.5 C 139.484375 114.5 141.5 116.515625 141.5 119 "/>
<path style="fill:none;stroke-width:4.5;stroke-linecap:butt;stroke-linejoin:miter;stroke:rgb(0%,0%,0%);stroke-opacity:1;stroke-miterlimit:10;" d="M 1415 470 C 1415 445.15625 1394.84375 425 1370 425 C 1345.15625 425 1325 445.15625 1325 470 C 1325 494.84375 1345.15625 515 1370 515 C 1394.84375 515 1415 494.84375 1415 470 Z M 1415 470 " transform="matrix(0.1,0,0,-0.1,0,166)"/>
<path style="fill:none;stroke-width:9;stroke-linecap:butt;stroke-linejoin:miter;stroke:rgb(0%,0%,0%);stroke-opacity:1;stroke-dasharray:9,27;stroke-dashoffset:27;stroke-miterlimit:10;" d="M 1100 1100 L 1640 1100 L 1640 1640 L 1100 1640 Z M 1100 1100 " transform="matrix(0.1,0,0,-0.1,0,166)"/>
<path style="fill:none;stroke-width:9;stroke-linecap:butt;stroke-linejoin:miter;stroke:rgb(0%,0%,0%);stroke-opacity:1;stroke-dasharray:9,27;stroke-dashoffset:27;stroke-miterlimit:10;" d="M 1100 200 L 1640 200 L 1640 740 L 1100 740 Z M 1100 200 " transform="matrix(0.1,0,0,-0.1,0,166)"/>
<path style="fill:none;stroke-width:9;stroke-linecap:butt;stroke-linejoin:miter;stroke:rgb(0%,0%,0%);stroke-opacity:1;stroke-dasharray:9,27;stroke-dashoffset:27;stroke-miterlimit:10;" d="M 200 740 L 740 740 L 740 1280 L 200 1280 Z M 200 740 " transform="matrix(0.1,0,0,-0.1,0,166)"/>
</g>
</svg>
