<?xml version="1.0" encoding="UTF-8"?>
<svg xmlns="http://www.w3.org/2000/svg" xmlns:xlink="http://www.w3.org/1999/xlink" width="189pt" height="143pt" viewBox="0 0 189 143" version="1.1">
<g id="surface1">
<path style="fill:none;stroke-width:14.173;stroke-linecap:butt;stroke-linejoin:miter;stroke:rgb(11.767578%,56.443787%,100%);stroke-opacity:1;stroke-miterlimit:10;" d="M 613.945312 1283.710938 L 1282.109375 1283.710938 L 1727.539062 716.796875 L 1282.109375 149.882812 L 613.945312 149.882812 L 168.515625 716.796875 Z M 613.945312 1283.710938 " transform="matrix(0.1,0,0,-0.1,0,143)"/>
<path style=" stroke:none;fill-rule:nonzero;fill:rgb(0%,0%,0%);fill-opacity:1;" d="M 106.777344 37.878906 L 106.519531 38.765625 C 106.082031 38.578125 105.683594 38.488281 105.324219 38.488281 C 104.746094 38.488281 104.300781 38.652344 103.984375 38.988281 C 103.671875 39.320312 103.511719 39.800781 103.511719 40.429688 L 103.511719 43.625 L 102.542969 43.625 L 102.542969 37.757812 L 103.332031 37.757812 L 103.449219 38.820312 L 103.488281 38.820312 C 103.761719 38.398438 104.050781 38.09375 104.359375 37.914062 C 104.667969 37.730469 105.050781 37.640625 105.5 37.640625 C 105.917969 37.640625 106.34375 37.71875 106.777344 37.878906 "/>
<path style=" stroke:none;fill-rule:nonzero;fill:rgb(0%,0%,0%);fill-opacity:1;" d="M 116.355469 78.90625 L 114.265625 76.050781 L 115.367188 76.050781 L 116.910156 78.242188 L 118.460938 76.050781 L 119.566406 76.050781 L 117.460938 78.90625 L 119.660156 81.917969 L 118.5625 81.917969 L 116.910156 79.585938 L 115.253906 81.917969 L 114.152344 81.917969 L 116.355469 78.90625 "/>
<path style="fill:none;stroke-width:14.173;stroke-linecap:butt;stroke-linejoin:miter;stroke:rgb(0%,0%,0%);stroke-opacity:1;stroke-dasharray:28.346;stroke-miterlimit:10;" d="M 1282.109375 1283.710938 L 948.007812 716.796875 " transform="matrix(0.1,0,0,-0.1,0,143)"/>
<path style="fill:none;stroke-width:14.173;stroke-linecap:butt;stroke-linejoin:miter;stroke:rgb(0%,0%,0%);stroke-opacity:1;stroke-dasharray:28.346;stroke-miterlimit:10;" d="M 1302.34375 716.796875 L 948.007812 716.796875 " transform="matrix(0.1,0,0,-0.1,0,143)"/>
<path style="fill:none;stroke-width:14.173;stroke-linecap:butt;stroke-linejoin:miter;stroke:rgb(0%,0%,0%);stroke-opacity:1;stroke-dasharray:28.346;stroke-miterlimit:10;" d="M 1302.34375 1255.390625 L 1302.34375 716.796875 " transform="matrix(0.1,0,0,-0.1,0,143)"/>
<path style=" stroke:none;fill-rule:nonzero;fill:rgb(0%,0%,0%);fill-opacity:1;" d="M 134.214844 45.421875 L 135.21875 45.421875 L 136.613281 48.957031 C 136.902344 49.695312 137.0625 50.214844 137.085938 50.519531 L 137.117188 50.519531 C 137.199219 50.117188 137.359375 49.59375 137.597656 48.945312 L 138.871094 45.421875 L 139.878906 45.421875 L 137.347656 52.015625 C 137.109375 52.632812 136.832031 53.09375 136.515625 53.40625 C 136.203125 53.714844 135.765625 53.871094 135.207031 53.871094 C 134.898438 53.871094 134.601562 53.839844 134.3125 53.78125 L 134.3125 53.007812 C 134.53125 53.046875 134.773438 53.066406 135.035156 53.066406 C 135.378906 53.066406 135.640625 52.996094 135.832031 52.859375 C 136.023438 52.722656 136.191406 52.488281 136.339844 52.15625 L 136.648438 51.40625 L 134.214844 45.421875 "/>
<path style=" stroke:none;fill-rule:nonzero;fill:rgb(0%,0%,0%);fill-opacity:1;" d="M 106.566406 68.601562 C 105.753906 68.601562 105.136719 68.261719 104.71875 67.582031 C 104.296875 66.898438 104.089844 65.90625 104.089844 64.605469 C 104.089844 63.253906 104.289062 62.25 104.695312 61.601562 C 105.101562 60.949219 105.726562 60.625 106.566406 60.625 C 107.386719 60.625 108.007812 60.964844 108.433594 61.640625 C 108.855469 62.320312 109.066406 63.308594 109.066406 64.605469 C 109.066406 67.269531 108.234375 68.601562 106.566406 68.601562 M 105.074219 64.144531 L 108.074219 64.144531 C 108.050781 63.230469 107.917969 62.550781 107.683594 62.101562 C 107.445312 61.652344 107.074219 61.429688 106.566406 61.429688 C 106.074219 61.429688 105.707031 61.648438 105.472656 62.085938 C 105.234375 62.527344 105.101562 63.210938 105.074219 64.144531 M 108.074219 64.84375 L 105.074219 64.84375 C 105.097656 65.859375 105.222656 66.605469 105.457031 67.082031 C 105.691406 67.558594 106.0625 67.796875 106.566406 67.796875 C 107.070312 67.796875 107.441406 67.5625 107.683594 67.09375 C 107.921875 66.628906 108.054688 65.875 108.074219 64.84375 "/>
<path style=" stroke:none;fill-rule:nonzero;fill:rgb(0%,0%,0%);fill-opacity:1;" d="M 180.21875 67.226562 L 181.277344 67.226562 L 178.675781 74.96875 L 177.675781 74.96875 L 175.082031 67.226562 L 176.128906 67.226562 L 177.699219 72.136719 C 177.84375 72.585938 178 73.171875 178.167969 73.90625 C 178.277344 73.390625 178.441406 72.792969 178.664062 72.105469 L 180.21875 67.226562 "/>
<path style=" stroke:none;fill-rule:nonzero;fill:rgb(0%,0%,0%);fill-opacity:1;" d="M 184.894531 75.085938 C 184.078125 75.085938 183.464844 74.746094 183.046875 74.0625 C 182.625 73.378906 182.414062 72.390625 182.414062 71.09375 C 182.414062 68.4375 183.242188 67.109375 184.894531 67.109375 C 185.71875 67.109375 186.339844 67.449219 186.761719 68.136719 C 187.183594 68.820312 187.394531 69.804688 187.394531 71.09375 C 187.394531 73.757812 186.558594 75.085938 184.894531 75.085938 M 184.894531 74.261719 C 185.414062 74.261719 185.800781 74.015625 186.042969 73.519531 C 186.289062 73.023438 186.410156 72.214844 186.410156 71.09375 C 186.410156 69.976562 186.289062 69.171875 186.042969 68.675781 C 185.800781 68.179688 185.414062 67.933594 184.894531 67.933594 C 184.378906 67.933594 184 68.179688 183.761719 68.671875 C 183.519531 69.167969 183.402344 69.972656 183.402344 71.09375 C 183.402344 72.214844 183.519531 73.023438 183.761719 73.519531 C 184 74.015625 184.378906 74.261719 184.894531 74.261719 "/>
<path style=" stroke:none;fill-rule:nonzero;fill:rgb(0%,0%,0%);fill-opacity:1;" d="M 130.429688 3.625 L 131.492188 3.625 L 128.886719 11.367188 L 127.886719 11.367188 L 125.292969 3.625 L 126.339844 3.625 L 127.910156 8.535156 C 128.054688 8.980469 128.210938 9.570312 128.378906 10.304688 C 128.488281 9.789062 128.65625 9.191406 128.875 8.503906 L 130.429688 3.625 "/>
<path style=" stroke:none;fill-rule:nonzero;fill:rgb(0%,0%,0%);fill-opacity:1;" d="M 135.882812 11.367188 L 134.945312 11.367188 L 134.945312 6.53125 C 134.945312 6.101562 134.960938 5.460938 134.988281 4.617188 C 134.847656 4.769531 134.632812 4.96875 134.34375 5.214844 L 133.558594 5.855469 L 133.042969 5.203125 L 135.085938 3.625 L 135.882812 3.625 L 135.882812 11.367188 "/>
<path style=" stroke:none;fill-rule:nonzero;fill:rgb(0%,0%,0%);fill-opacity:1;" d="M 57.222656 3.625 L 58.28125 3.625 L 55.675781 11.367188 L 54.679688 11.367188 L 52.085938 3.625 L 53.128906 3.625 L 54.699219 8.535156 C 54.847656 8.980469 55.003906 9.570312 55.167969 10.304688 C 55.28125 9.789062 55.445312 9.191406 55.664062 8.503906 L 57.222656 3.625 "/>
<path style=" stroke:none;fill-rule:nonzero;fill:rgb(0%,0%,0%);fill-opacity:1;" d="M 64.332031 11.367188 L 59.476562 11.367188 L 59.476562 10.539062 L 61.339844 8.519531 C 62.035156 7.769531 62.488281 7.207031 62.710938 6.839844 C 62.929688 6.46875 63.039062 6.0625 63.039062 5.617188 C 63.039062 5.21875 62.925781 4.90625 62.699219 4.675781 C 62.476562 4.445312 62.171875 4.332031 61.789062 4.332031 C 61.21875 4.332031 60.65625 4.574219 60.09375 5.058594 L 59.550781 4.425781 C 60.234375 3.8125 60.980469 3.507812 61.796875 3.507812 C 62.488281 3.507812 63.03125 3.695312 63.429688 4.070312 C 63.828125 4.445312 64.027344 4.945312 64.027344 5.578125 C 64.027344 6 63.921875 6.429688 63.710938 6.871094 C 63.503906 7.3125 62.984375 7.976562 62.160156 8.859375 L 60.664062 10.441406 L 60.664062 10.484375 L 64.332031 10.484375 L 64.332031 11.367188 "/>
<path style=" stroke:none;fill-rule:nonzero;fill:rgb(0%,0%,0%);fill-opacity:1;" d="M 5.3125 67.226562 L 6.371094 67.226562 L 3.769531 74.96875 L 2.769531 74.96875 L 0.175781 67.226562 L 1.222656 67.226562 L 2.792969 72.136719 C 2.9375 72.585938 3.09375 73.171875 3.261719 73.90625 C 3.371094 73.390625 3.535156 72.792969 3.757812 72.105469 L 5.3125 67.226562 "/>
<path style=" stroke:none;fill-rule:nonzero;fill:rgb(0%,0%,0%);fill-opacity:1;" d="M 10.421875 70.84375 L 10.421875 70.878906 C 11.707031 71.042969 12.347656 71.667969 12.347656 72.746094 C 12.347656 73.472656 12.101562 74.042969 11.613281 74.460938 C 11.121094 74.878906 10.414062 75.085938 9.488281 75.085938 C 8.625 75.085938 7.9375 74.945312 7.425781 74.664062 L 7.425781 73.761719 C 8.078125 74.09375 8.757812 74.261719 9.464844 74.261719 C 10.722656 74.261719 11.351562 73.746094 11.351562 72.714844 C 11.351562 71.796875 10.675781 71.335938 9.320312 71.335938 L 8.613281 71.335938 L 8.613281 70.511719 L 9.320312 70.511719 C 9.890625 70.511719 10.332031 70.378906 10.640625 70.117188 C 10.953125 69.855469 11.109375 69.507812 11.109375 69.078125 C 11.109375 68.726562 10.988281 68.445312 10.746094 68.242188 C 10.507812 68.035156 10.183594 67.933594 9.777344 67.933594 C 9.144531 67.933594 8.535156 68.148438 7.945312 68.574219 L 7.457031 67.90625 C 8.117188 67.375 8.894531 67.109375 9.777344 67.109375 C 10.511719 67.109375 11.082031 67.28125 11.492188 67.628906 C 11.902344 67.972656 12.105469 68.433594 12.105469 69.011719 C 12.105469 69.492188 11.960938 69.894531 11.671875 70.222656 C 11.378906 70.546875 10.964844 70.753906 10.421875 70.84375 "/>
<path style=" stroke:none;fill-rule:nonzero;fill:rgb(0%,0%,0%);fill-opacity:1;" d="M 57.222656 132.492188 L 58.28125 132.492188 L 55.675781 140.238281 L 54.679688 140.238281 L 52.085938 132.492188 L 53.128906 132.492188 L 54.699219 137.402344 C 54.847656 137.851562 55.003906 138.441406 55.167969 139.171875 C 55.28125 138.660156 55.445312 138.058594 55.664062 137.371094 L 57.222656 132.492188 "/>
<path style=" stroke:none;fill-rule:nonzero;fill:rgb(0%,0%,0%);fill-opacity:1;" d="M 64.632812 138.539062 L 63.5 138.539062 L 63.5 140.238281 L 62.5625 140.238281 L 62.5625 138.539062 L 58.960938 138.539062 L 58.960938 137.695312 L 62.496094 132.492188 L 63.5 132.492188 L 63.5 137.65625 L 64.632812 137.65625 L 64.632812 138.539062 M 62.5625 137.65625 L 62.5625 135.773438 C 62.5625 135.152344 62.585938 134.390625 62.632812 133.484375 L 62.582031 133.484375 C 62.457031 133.84375 62.292969 134.164062 62.101562 134.4375 L 59.914062 137.65625 L 62.5625 137.65625 "/>
<path style=" stroke:none;fill-rule:nonzero;fill:rgb(0%,0%,0%);fill-opacity:1;" d="M 130.429688 132.492188 L 131.492188 132.492188 L 128.886719 140.238281 L 127.886719 140.238281 L 125.292969 132.492188 L 126.339844 132.492188 L 127.910156 137.402344 C 128.054688 137.851562 128.210938 138.441406 128.378906 139.171875 C 128.488281 138.660156 128.65625 138.058594 128.875 137.371094 L 130.429688 132.492188 "/>
<path style=" stroke:none;fill-rule:nonzero;fill:rgb(0%,0%,0%);fill-opacity:1;" d="M 132.761719 139.933594 L 132.761719 139.015625 C 133.273438 139.359375 133.910156 139.527344 134.679688 139.527344 C 135.871094 139.527344 136.46875 138.984375 136.46875 137.898438 C 136.46875 136.878906 135.859375 136.367188 134.636719 136.367188 C 134.320312 136.367188 133.910156 136.414062 133.40625 136.5 L 132.925781 136.195312 L 133.21875 132.492188 L 136.894531 132.492188 L 136.894531 133.375 L 134.0625 133.375 L 133.855469 135.648438 C 134.234375 135.578125 134.605469 135.542969 134.964844 135.542969 C 135.710938 135.542969 136.3125 135.742188 136.773438 136.144531 C 137.234375 136.542969 137.464844 137.09375 137.464844 137.789062 C 137.464844 138.605469 137.21875 139.238281 136.730469 139.683594 C 136.238281 140.128906 135.550781 140.355469 134.65625 140.355469 C 133.863281 140.355469 133.230469 140.214844 132.761719 139.933594 "/>
</g>
</svg>
