<?xml version="1.0" encoding="UTF-8"?>
<svg xmlns="http://www.w3.org/2000/svg" xmlns:xlink="http://www.w3.org/1999/xlink" width="220pt" height="52pt" viewBox="0 0 220 52" version="1.1">
<g id="surface1">
<path style="fill:none;stroke-width:9.9211;stroke-linecap:butt;stroke-linejoin:miter;stroke:rgb(0%,0%,0%);stroke-opacity:1;stroke-miterlimit:10;" d="M 4.960938 505.78125 L 305.429688 505.78125 L 405.585938 405.585938 L 405.585938 4.960938 L 4.960938 4.960938 Z M 4.960938 505.78125 " transform="matrix(0.1,0,0,-0.1,0,52)"/>
<path style="fill:none;stroke-width:9.9211;stroke-linecap:butt;stroke-linejoin:miter;stroke:rgb(0%,0%,0%);stroke-opacity:1;stroke-miterlimit:10;" d="M 305.429688 505.78125 L 305.429688 405.585938 L 405.585938 405.585938 " transform="matrix(0.1,0,0,-0.1,0,52)"/>
<path style=" stroke:none;fill-rule:nonzero;fill:rgb(0%,0%,0%);fill-opacity:1;" d="M 11.9375 24.820312 C 11.9375 23.941406 11.359375 23.21875 10.621094 23.039062 L 9.503906 22.769531 C 8.960938 22.648438 8.617188 22.207031 8.617188 21.699219 C 8.617188 21.085938 9.089844 20.546875 9.773438 20.546875 C 11.234375 20.546875 11.425781 21.984375 11.480469 22.371094 C 11.488281 22.421875 11.488281 22.46875 11.585938 22.46875 C 11.699219 22.46875 11.699219 22.429688 11.699219 22.273438 L 11.699219 20.515625 C 11.699219 20.367188 11.699219 20.304688 11.601562 20.304688 C 11.542969 20.304688 11.53125 20.3125 11.472656 20.417969 L 11.164062 20.917969 C 10.902344 20.664062 10.542969 20.304688 9.765625 20.304688 C 8.792969 20.304688 8.058594 21.074219 8.058594 22.003906 C 8.058594 22.695312 8.523438 23.332031 9.207031 23.570312 C 9.300781 23.605469 9.746094 23.710938 10.359375 23.859375 C 10.597656 23.921875 10.859375 23.984375 11.105469 24.3125 C 11.289062 24.542969 11.375 24.832031 11.375 25.117188 C 11.375 25.730469 10.9375 26.355469 10.203125 26.355469 C 9.949219 26.355469 9.28125 26.3125 8.820312 25.890625 C 8.3125 25.421875 8.285156 24.863281 8.277344 24.550781 C 8.269531 24.460938 8.199219 24.460938 8.171875 24.460938 C 8.058594 24.460938 8.058594 24.523438 8.058594 24.679688 L 8.058594 26.417969 C 8.058594 26.566406 8.058594 26.628906 8.152344 26.628906 C 8.214844 26.628906 8.226562 26.609375 8.285156 26.515625 C 8.285156 26.515625 8.3125 26.480469 8.601562 26.019531 C 8.871094 26.3125 9.433594 26.628906 10.210938 26.628906 C 11.234375 26.628906 11.9375 25.777344 11.9375 24.820312 "/>
<path style=" stroke:none;fill-rule:nonzero;fill:rgb(0%,0%,0%);fill-opacity:1;" d="M 16.671875 24.574219 C 16.671875 23.449219 15.796875 22.523438 14.738281 22.523438 C 13.644531 22.523438 12.792969 23.476562 12.792969 24.574219 C 12.792969 25.707031 13.703125 26.546875 14.726562 26.546875 C 15.785156 26.546875 16.671875 25.6875 16.671875 24.574219 M 15.945312 24.503906 C 15.945312 24.820312 15.945312 25.292969 15.753906 25.679688 C 15.558594 26.074219 15.175781 26.328125 14.738281 26.328125 C 14.359375 26.328125 13.976562 26.144531 13.738281 25.738281 C 13.519531 25.355469 13.519531 24.820312 13.519531 24.503906 C 13.519531 24.160156 13.519531 23.6875 13.730469 23.300781 C 13.964844 22.898438 14.378906 22.714844 14.726562 22.714844 C 15.113281 22.714844 15.488281 22.90625 15.71875 23.285156 C 15.945312 23.660156 15.945312 24.171875 15.945312 24.503906 "/>
<path style=" stroke:none;fill-rule:nonzero;fill:rgb(0%,0%,0%);fill-opacity:1;" d="M 21.714844 26.464844 L 21.714844 26.191406 C 21.105469 26.191406 21.03125 26.132812 21.03125 25.703125 L 21.03125 22.601562 L 19.746094 22.683594 L 19.746094 22.957031 C 20.359375 22.957031 20.429688 23.019531 20.429688 23.445312 L 20.429688 24.992188 C 20.429688 25.75 20.007812 26.351562 19.371094 26.351562 C 18.636719 26.351562 18.601562 25.9375 18.601562 25.476562 L 18.601562 22.601562 L 17.3125 22.683594 L 17.3125 22.957031 C 17.996094 22.957031 17.996094 22.984375 17.996094 23.757812 L 17.996094 25.0625 C 17.996094 25.742188 17.996094 26.546875 19.328125 26.546875 C 19.816406 26.546875 20.203125 26.300781 20.457031 25.75 L 20.457031 26.546875 L 21.714844 26.464844 "/>
<path style=" stroke:none;fill-rule:nonzero;fill:rgb(0%,0%,0%);fill-opacity:1;" d="M 25.199219 23.140625 C 25.199219 22.859375 24.929688 22.601562 24.550781 22.601562 C 23.914062 22.601562 23.597656 23.191406 23.476562 23.566406 L 23.476562 22.601562 L 22.257812 22.683594 L 22.257812 22.957031 C 22.871094 22.957031 22.941406 23.019531 22.941406 23.449219 L 22.941406 25.800781 C 22.941406 26.191406 22.84375 26.191406 22.257812 26.191406 L 22.257812 26.464844 L 23.257812 26.4375 C 23.609375 26.4375 24.019531 26.4375 24.367188 26.464844 L 24.367188 26.191406 L 24.183594 26.191406 C 23.535156 26.191406 23.519531 26.097656 23.519531 25.78125 L 23.519531 24.429688 C 23.519531 23.578125 23.886719 22.796875 24.550781 22.796875 C 24.613281 22.796875 24.632812 22.796875 24.648438 22.804688 C 24.621094 22.8125 24.449219 22.917969 24.449219 23.148438 C 24.449219 23.390625 24.632812 23.523438 24.824219 23.523438 C 24.980469 23.523438 25.199219 23.417969 25.199219 23.140625 "/>
<path style=" stroke:none;fill-rule:nonzero;fill:rgb(0%,0%,0%);fill-opacity:1;" d="M 29.164062 25.417969 C 29.164062 25.332031 29.078125 25.332031 29.050781 25.332031 C 28.972656 25.332031 28.957031 25.367188 28.9375 25.417969 C 28.683594 26.222656 28.113281 26.328125 27.789062 26.328125 C 27.328125 26.328125 26.554688 25.957031 26.554688 24.558594 C 26.554688 23.140625 27.277344 22.742188 27.738281 22.742188 C 27.816406 22.742188 28.367188 22.75 28.675781 23.097656 C 28.316406 23.125 28.261719 23.386719 28.261719 23.5 C 28.261719 23.726562 28.421875 23.902344 28.667969 23.902344 C 28.894531 23.902344 29.070312 23.753906 29.070312 23.488281 C 29.070312 22.875 28.40625 22.523438 27.730469 22.523438 C 26.636719 22.523438 25.832031 23.5 25.832031 24.578125 C 25.832031 25.6875 26.699219 26.546875 27.714844 26.546875 C 28.886719 26.546875 29.164062 25.503906 29.164062 25.417969 "/>
<path style=" stroke:none;fill-rule:nonzero;fill:rgb(0%,0%,0%);fill-opacity:1;" d="M 33.128906 25.410156 C 33.128906 25.324219 33.058594 25.304688 33.015625 25.304688 C 32.9375 25.304688 32.917969 25.355469 32.902344 25.425781 C 32.597656 26.328125 31.808594 26.328125 31.722656 26.328125 C 31.285156 26.328125 30.933594 26.066406 30.730469 25.742188 C 30.46875 25.324219 30.46875 24.746094 30.46875 24.429688 L 32.910156 24.429688 C 33.101562 24.429688 33.128906 24.429688 33.128906 24.246094 C 33.128906 23.375 32.65625 22.523438 31.5625 22.523438 C 30.546875 22.523438 29.742188 23.425781 29.742188 24.527344 C 29.742188 25.699219 30.664062 26.546875 31.667969 26.546875 C 32.734375 26.546875 33.128906 25.574219 33.128906 25.410156 M 32.550781 24.246094 L 30.476562 24.246094 C 30.53125 22.933594 31.265625 22.714844 31.5625 22.714844 C 32.464844 22.714844 32.550781 23.902344 32.550781 24.246094 "/>
<path style=" stroke:none;fill-rule:nonzero;fill:rgb(0%,0%,0%);fill-opacity:1;" d="M 15.332031 36.617188 C 15.332031 36.53125 15.242188 36.53125 15.214844 36.53125 C 15.136719 36.53125 15.121094 36.566406 15.101562 36.617188 C 14.847656 37.421875 14.28125 37.527344 13.957031 37.527344 C 13.492188 37.527344 12.722656 37.15625 12.722656 35.761719 C 12.722656 34.339844 13.441406 33.941406 13.902344 33.941406 C 13.984375 33.941406 14.53125 33.949219 14.839844 34.296875 C 14.480469 34.324219 14.429688 34.585938 14.429688 34.699219 C 14.429688 34.925781 14.585938 35.101562 14.832031 35.101562 C 15.058594 35.101562 15.234375 34.953125 15.234375 34.691406 C 15.234375 34.074219 14.570312 33.722656 13.894531 33.722656 C 12.800781 33.722656 11.996094 34.699219 11.996094 35.777344 C 11.996094 36.886719 12.863281 37.746094 13.878906 37.746094 C 15.050781 37.746094 15.332031 36.707031 15.332031 36.617188 "/>
<path style=" stroke:none;fill-rule:nonzero;fill:rgb(0%,0%,0%);fill-opacity:1;" d="M 19.785156 35.773438 C 19.785156 34.652344 18.910156 33.722656 17.851562 33.722656 C 16.757812 33.722656 15.90625 34.675781 15.90625 35.773438 C 15.90625 36.90625 16.816406 37.746094 17.84375 37.746094 C 18.902344 37.746094 19.785156 36.886719 19.785156 35.773438 M 19.058594 35.703125 C 19.058594 36.019531 19.058594 36.492188 18.867188 36.878906 C 18.671875 37.273438 18.289062 37.527344 17.851562 37.527344 C 17.472656 37.527344 17.089844 37.34375 16.851562 36.941406 C 16.632812 36.554688 16.632812 36.019531 16.632812 35.703125 C 16.632812 35.359375 16.632812 34.886719 16.84375 34.5 C 17.078125 34.097656 17.492188 33.914062 17.84375 33.914062 C 18.226562 33.914062 18.601562 34.105469 18.832031 34.484375 C 19.058594 34.859375 19.058594 35.371094 19.058594 35.703125 "/>
<path style=" stroke:none;fill-rule:nonzero;fill:rgb(0%,0%,0%);fill-opacity:1;" d="M 25.007812 37.664062 L 25.007812 37.394531 C 24.394531 37.394531 24.324219 37.328125 24.324219 36.867188 L 24.324219 31.585938 L 23.066406 31.667969 L 23.066406 31.941406 C 23.675781 31.941406 23.746094 32 23.746094 32.4375 L 23.746094 34.34375 C 23.492188 34.03125 23.117188 33.804688 22.644531 33.804688 C 21.613281 33.804688 20.691406 34.65625 20.691406 35.78125 C 20.691406 36.886719 21.550781 37.746094 22.546875 37.746094 C 23.109375 37.746094 23.503906 37.449219 23.722656 37.171875 L 23.722656 37.746094 L 25.007812 37.664062 M 23.722656 36.632812 C 23.722656 36.789062 23.722656 36.804688 23.625 36.957031 C 23.363281 37.355469 22.96875 37.554688 22.59375 37.554688 C 22.199219 37.554688 21.882812 37.320312 21.671875 36.976562 C 21.445312 36.613281 21.417969 36.125 21.417969 35.769531 C 21.417969 35.453125 21.4375 34.933594 21.691406 34.546875 C 21.875 34.28125 22.207031 33.996094 22.679688 33.996094 C 22.984375 33.996094 23.355469 34.125 23.625 34.511719 C 23.722656 34.660156 23.722656 34.675781 23.722656 34.832031 L 23.722656 36.632812 "/>
<path style=" stroke:none;fill-rule:nonzero;fill:rgb(0%,0%,0%);fill-opacity:1;" d="M 29.007812 36.609375 C 29.007812 36.523438 28.9375 36.503906 28.894531 36.503906 C 28.816406 36.503906 28.796875 36.558594 28.78125 36.625 C 28.472656 37.527344 27.6875 37.527344 27.597656 37.527344 C 27.160156 37.527344 26.8125 37.265625 26.609375 36.941406 C 26.347656 36.523438 26.347656 35.945312 26.347656 35.632812 L 28.789062 35.632812 C 28.980469 35.632812 29.007812 35.632812 29.007812 35.445312 C 29.007812 34.574219 28.535156 33.722656 27.441406 33.722656 C 26.425781 33.722656 25.621094 34.628906 25.621094 35.726562 C 25.621094 36.898438 26.539062 37.746094 27.546875 37.746094 C 28.613281 37.746094 29.007812 36.777344 29.007812 36.609375 M 28.429688 35.445312 L 26.355469 35.445312 C 26.40625 34.132812 27.144531 33.914062 27.441406 33.914062 C 28.34375 33.914062 28.429688 35.101562 28.429688 35.445312 "/>
<path style="fill:none;stroke-width:9.9211;stroke-linecap:butt;stroke-linejoin:miter;stroke:rgb(0%,0%,0%);stroke-opacity:1;stroke-miterlimit:10;" d="M 1691.5625 92.382812 L 2187.617188 92.382812 L 2187.617188 505.78125 L 1691.5625 505.78125 Z M 1691.5625 92.382812 " transform="matrix(0.1,0,0,-0.1,0,52)"/>
<path style="fill:none;stroke-width:0.99211;stroke-linecap:butt;stroke-linejoin:miter;stroke:rgb(0%,0%,0%);stroke-opacity:1;stroke-miterlimit:10;" d="M 1691.5625 92.382812 L 2187.617188 92.382812 L 2187.617188 505.78125 L 1691.5625 505.78125 Z M 1691.5625 92.382812 " transform="matrix(0.1,0,0,-0.1,0,52)"/>
<path style="fill:none;stroke-width:9.9211;stroke-linecap:butt;stroke-linejoin:miter;stroke:rgb(0%,0%,0%);stroke-opacity:1;stroke-miterlimit:10;" d="M 1719.101562 147.5 L 2160.039062 147.5 L 2160.039062 478.203125 L 1719.101562 478.203125 Z M 1719.101562 147.5 " transform="matrix(0.1,0,0,-0.1,0,52)"/>
<path style="fill:none;stroke-width:0.99211;stroke-linecap:butt;stroke-linejoin:miter;stroke:rgb(0%,0%,0%);stroke-opacity:1;stroke-miterlimit:10;" d="M 1719.101562 147.5 L 2160.039062 147.5 L 2160.039062 478.203125 L 1719.101562 478.203125 Z M 1719.101562 147.5 " transform="matrix(0.1,0,0,-0.1,0,52)"/>
<path style="fill:none;stroke-width:9.9211;stroke-linecap:butt;stroke-linejoin:miter;stroke:rgb(0%,0%,0%);stroke-opacity:1;stroke-miterlimit:10;" d="M 1774.21875 92.382812 L 2104.921875 92.382812 L 2022.265625 64.804688 L 1856.914062 64.804688 Z M 1774.21875 92.382812 " transform="matrix(0.1,0,0,-0.1,0,52)"/>
<path style="fill:none;stroke-width:0.99211;stroke-linecap:butt;stroke-linejoin:miter;stroke:rgb(0%,0%,0%);stroke-opacity:1;stroke-miterlimit:10;" d="M 1774.21875 92.382812 L 2104.921875 92.382812 L 2022.265625 64.804688 L 1856.914062 64.804688 Z M 1774.21875 92.382812 " transform="matrix(0.1,0,0,-0.1,0,52)"/>
<path style="fill:none;stroke-width:9.9211;stroke-linecap:butt;stroke-linejoin:miter;stroke:rgb(0%,0%,0%);stroke-opacity:1;stroke-miterlimit:10;" d="M 1856.914062 37.265625 L 2022.265625 37.265625 L 2022.265625 64.804688 L 1856.914062 64.804688 Z M 1856.914062 37.265625 " transform="matrix(0.1,0,0,-0.1,0,52)"/>
<path style="fill:none;stroke-width:0.99211;stroke-linecap:butt;stroke-linejoin:miter;stroke:rgb(0%,0%,0%);stroke-opacity:1;stroke-miterlimit:10;" d="M 1856.914062 37.265625 L 2022.265625 37.265625 L 2022.265625 64.804688 L 1856.914062 64.804688 Z M 1856.914062 37.265625 " transform="matrix(0.1,0,0,-0.1,0,52)"/>
<path style="fill:none;stroke-width:9.9211;stroke-linecap:butt;stroke-linejoin:miter;stroke:rgb(0%,0%,0%);stroke-opacity:1;stroke-miterlimit:10;" d="M 1774.21875 9.6875 L 2104.921875 9.6875 L 2104.921875 37.265625 L 1774.21875 37.265625 Z M 1774.21875 9.6875 " transform="matrix(0.1,0,0,-0.1,0,52)"/>
<path style="fill:none;stroke-width:0.99211;stroke-linecap:butt;stroke-linejoin:miter;stroke:rgb(0%,0%,0%);stroke-opacity:1;stroke-miterlimit:10;" d="M 1774.21875 9.6875 L 2104.921875 9.6875 L 2104.921875 37.265625 L 1774.21875 37.265625 Z M 1774.21875 9.6875 " transform="matrix(0.1,0,0,-0.1,0,52)"/>
<path style=" stroke:none;fill-rule:nonzero;fill:rgb(0%,0%,0%);fill-opacity:1;" d="M 185.808594 22.753906 C 185.808594 20.980469 184.484375 19.570312 182.894531 19.570312 C 181.324219 19.570312 179.984375 20.964844 179.984375 22.753906 C 179.984375 24.535156 181.335938 25.894531 182.894531 25.894531 C 184.484375 25.894531 185.808594 24.511719 185.808594 22.753906 M 184.90625 22.632812 C 184.90625 24.9375 183.707031 25.667969 182.902344 25.667969 C 182.0625 25.667969 180.890625 24.902344 180.890625 22.632812 C 180.890625 20.382812 182.167969 19.789062 182.894531 19.789062 C 183.652344 19.789062 184.90625 20.40625 184.90625 22.632812 "/>
<path style=" stroke:none;fill-rule:nonzero;fill:rgb(0%,0%,0%);fill-opacity:1;" d="M 191.140625 25.730469 L 191.140625 25.460938 C 190.53125 25.460938 190.460938 25.398438 190.460938 24.96875 L 190.460938 21.871094 L 189.171875 21.953125 L 189.171875 22.222656 C 189.785156 22.222656 189.855469 22.285156 189.855469 22.710938 L 189.855469 24.257812 C 189.855469 25.015625 189.433594 25.621094 188.796875 25.621094 C 188.0625 25.621094 188.027344 25.203125 188.027344 24.746094 L 188.027344 21.871094 L 186.738281 21.953125 L 186.738281 22.222656 C 187.421875 22.222656 187.421875 22.25 187.421875 23.023438 L 187.421875 24.328125 C 187.421875 25.007812 187.421875 25.8125 188.753906 25.8125 C 189.242188 25.8125 189.628906 25.566406 189.882812 25.015625 L 189.882812 25.8125 L 191.140625 25.730469 "/>
<path style=" stroke:none;fill-rule:nonzero;fill:rgb(0%,0%,0%);fill-opacity:1;" d="M 194.347656 24.65625 L 194.347656 24.167969 L 194.128906 24.167969 L 194.128906 24.640625 C 194.128906 25.269531 193.863281 25.59375 193.539062 25.59375 C 192.953125 25.59375 192.953125 24.816406 192.953125 24.671875 L 192.953125 22.222656 L 194.207031 22.222656 L 194.207031 21.953125 L 192.953125 21.953125 L 192.953125 20.308594 L 192.734375 20.308594 C 192.726562 21.042969 192.464844 21.996094 191.605469 22.03125 L 191.605469 22.222656 L 192.351562 22.222656 L 192.351562 24.632812 C 192.351562 25.707031 193.164062 25.8125 193.480469 25.8125 C 194.101562 25.8125 194.347656 25.191406 194.347656 24.632812 L 194.347656 24.65625 "/>
<path style=" stroke:none;fill-rule:nonzero;fill:rgb(0%,0%,0%);fill-opacity:1;" d="M 199.496094 23.847656 C 199.496094 22.738281 198.644531 21.871094 197.664062 21.871094 C 196.980469 21.871094 196.613281 22.257812 196.441406 22.449219 L 196.441406 21.871094 L 195.179688 21.953125 L 195.179688 22.222656 C 195.800781 22.222656 195.863281 22.277344 195.863281 22.660156 L 195.863281 26.738281 C 195.863281 27.125 195.765625 27.125 195.179688 27.125 L 195.179688 27.398438 L 196.160156 27.371094 L 197.148438 27.398438 L 197.148438 27.125 C 196.5625 27.125 196.464844 27.125 196.464844 26.738281 L 196.464844 25.203125 C 196.511719 25.339844 196.878906 25.8125 197.542969 25.8125 C 198.585938 25.8125 199.496094 24.957031 199.496094 23.832031 L 199.496094 23.847656 M 198.769531 23.832031 C 198.769531 24.886719 198.15625 25.621094 197.507812 25.621094 C 197.15625 25.621094 196.824219 25.445312 196.589844 25.085938 C 196.464844 24.90625 196.464844 24.894531 196.464844 24.722656 L 196.464844 22.773438 C 196.71875 22.34375 197.148438 22.089844 197.59375 22.089844 C 198.234375 22.089844 198.769531 22.859375 198.769531 23.847656 L 198.769531 23.832031 "/>
<path style=" stroke:none;fill-rule:nonzero;fill:rgb(0%,0%,0%);fill-opacity:1;" d="M 204.597656 25.730469 L 204.597656 25.460938 C 203.984375 25.460938 203.914062 25.398438 203.914062 24.96875 L 203.914062 21.871094 L 202.628906 21.953125 L 202.628906 22.222656 C 203.242188 22.222656 203.3125 22.285156 203.3125 22.710938 L 203.3125 24.257812 C 203.3125 25.015625 202.890625 25.621094 202.253906 25.621094 C 201.519531 25.621094 201.480469 25.203125 201.480469 24.746094 L 201.480469 21.871094 L 200.195312 21.953125 L 200.195312 22.222656 C 200.878906 22.222656 200.878906 22.25 200.878906 23.023438 L 200.878906 24.328125 C 200.878906 25.007812 200.878906 25.8125 202.207031 25.8125 C 202.699219 25.8125 203.082031 25.566406 203.335938 25.015625 L 203.335938 25.8125 L 204.597656 25.730469 "/>
<path style=" stroke:none;fill-rule:nonzero;fill:rgb(0%,0%,0%);fill-opacity:1;" d="M 207.800781 24.65625 L 207.800781 24.167969 L 207.582031 24.167969 L 207.582031 24.640625 C 207.582031 25.269531 207.320312 25.59375 206.996094 25.59375 C 206.410156 25.59375 206.410156 24.816406 206.410156 24.671875 L 206.410156 22.222656 L 207.660156 22.222656 L 207.660156 21.953125 L 206.410156 21.953125 L 206.410156 20.308594 L 206.191406 20.308594 C 206.183594 21.042969 205.917969 21.996094 205.0625 22.03125 L 205.0625 22.222656 L 205.804688 22.222656 L 205.804688 24.632812 C 205.804688 25.707031 206.621094 25.8125 206.9375 25.8125 C 207.558594 25.8125 207.800781 25.191406 207.800781 24.632812 L 207.800781 24.65625 "/>
<path style="fill:none;stroke-width:9.9211;stroke-linecap:butt;stroke-linejoin:miter;stroke:rgb(0%,0%,0%);stroke-opacity:1;stroke-miterlimit:10;" d="M 785.273438 108.90625 L 1318.515625 108.90625 L 1318.515625 406.5625 L 785.273438 406.5625 Z M 785.273438 108.90625 " transform="matrix(0.1,0,0,-0.1,0,52)"/>
<path style=" stroke:none;fill-rule:nonzero;fill:rgb(0%,0%,0%);fill-opacity:1;" d="M 86.898438 30.746094 L 86.898438 30.476562 L 86.667969 30.476562 C 85.976562 30.476562 85.949219 30.378906 85.949219 30.0625 L 85.949219 25.433594 C 85.949219 25.117188 85.976562 25.023438 86.667969 25.023438 L 86.898438 25.023438 L 86.898438 24.75 C 86.589844 24.777344 85.898438 24.777344 85.566406 24.777344 C 85.222656 24.777344 84.53125 24.777344 84.226562 24.75 L 84.226562 25.023438 L 84.453125 25.023438 C 85.144531 25.023438 85.171875 25.117188 85.171875 25.433594 L 85.171875 30.0625 C 85.171875 30.378906 85.144531 30.476562 84.453125 30.476562 L 84.226562 30.476562 L 84.226562 30.746094 C 84.53125 30.71875 85.222656 30.71875 85.554688 30.71875 C 85.898438 30.71875 86.589844 30.71875 86.898438 30.746094 "/>
<path style=" stroke:none;fill-rule:nonzero;fill:rgb(0%,0%,0%);fill-opacity:1;" d="M 91.886719 30.746094 L 91.886719 30.476562 C 91.429688 30.476562 91.210938 30.476562 91.203125 30.214844 L 91.203125 28.546875 C 91.203125 27.792969 91.203125 27.523438 90.929688 27.210938 C 90.808594 27.0625 90.519531 26.886719 90.011719 26.886719 C 89.375 26.886719 88.960938 27.261719 88.714844 27.804688 L 88.714844 26.886719 L 87.484375 26.96875 L 87.484375 27.238281 C 88.09375 27.238281 88.164062 27.300781 88.164062 27.730469 L 88.164062 30.082031 C 88.164062 30.476562 88.070312 30.476562 87.484375 30.476562 L 87.484375 30.746094 L 88.472656 30.71875 L 89.453125 30.746094 L 89.453125 30.476562 C 88.863281 30.476562 88.769531 30.476562 88.769531 30.082031 L 88.769531 28.46875 C 88.769531 27.566406 89.390625 27.078125 89.953125 27.078125 C 90.503906 27.078125 90.597656 27.550781 90.597656 28.046875 L 90.597656 30.082031 C 90.597656 30.476562 90.503906 30.476562 89.917969 30.476562 L 89.917969 30.746094 L 90.90625 30.71875 L 91.886719 30.746094 "/>
<path style=" stroke:none;fill-rule:nonzero;fill:rgb(0%,0%,0%);fill-opacity:1;" d="M 94.84375 29.671875 L 94.84375 29.183594 L 94.621094 29.183594 L 94.621094 29.65625 C 94.621094 30.285156 94.359375 30.609375 94.035156 30.609375 C 93.449219 30.609375 93.449219 29.832031 93.449219 29.6875 L 93.449219 27.238281 L 94.703125 27.238281 L 94.703125 26.96875 L 93.449219 26.96875 L 93.449219 25.324219 L 93.230469 25.324219 C 93.222656 26.058594 92.960938 27.011719 92.101562 27.046875 L 92.101562 27.238281 L 92.847656 27.238281 L 92.847656 29.648438 C 92.847656 30.722656 93.660156 30.828125 93.976562 30.828125 C 94.597656 30.828125 94.84375 30.207031 94.84375 29.648438 L 94.84375 29.671875 "/>
<path style=" stroke:none;fill-rule:nonzero;fill:rgb(0%,0%,0%);fill-opacity:1;" d="M 99.0625 29.691406 C 99.0625 29.605469 98.992188 29.585938 98.949219 29.585938 C 98.871094 29.585938 98.851562 29.640625 98.835938 29.710938 C 98.527344 30.609375 97.738281 30.609375 97.652344 30.609375 C 97.214844 30.609375 96.863281 30.347656 96.664062 30.023438 C 96.402344 29.605469 96.402344 29.027344 96.402344 28.714844 L 98.84375 28.714844 C 99.035156 28.714844 99.0625 28.714844 99.0625 28.527344 C 99.0625 27.65625 98.589844 26.804688 97.496094 26.804688 C 96.480469 26.804688 95.675781 27.710938 95.675781 28.808594 C 95.675781 29.980469 96.59375 30.828125 97.601562 30.828125 C 98.667969 30.828125 99.0625 29.859375 99.0625 29.691406 M 98.484375 28.527344 L 96.410156 28.527344 C 96.460938 27.21875 97.199219 26.996094 97.496094 26.996094 C 98.398438 26.996094 98.484375 28.1875 98.484375 28.527344 "/>
<path style=" stroke:none;fill-rule:nonzero;fill:rgb(0%,0%,0%);fill-opacity:1;" d="M 102.578125 27.421875 C 102.578125 27.140625 102.308594 26.886719 101.933594 26.886719 C 101.292969 26.886719 100.980469 27.472656 100.855469 27.847656 L 100.855469 26.886719 L 99.640625 26.96875 L 99.640625 27.238281 C 100.253906 27.238281 100.320312 27.300781 100.320312 27.730469 L 100.320312 30.082031 C 100.320312 30.476562 100.226562 30.476562 99.640625 30.476562 L 99.640625 30.746094 L 100.636719 30.71875 C 100.988281 30.71875 101.398438 30.71875 101.746094 30.746094 L 101.746094 30.476562 L 101.566406 30.476562 C 100.917969 30.476562 100.898438 30.378906 100.898438 30.0625 L 100.898438 28.714844 C 100.898438 27.859375 101.265625 27.078125 101.933594 27.078125 C 101.992188 27.078125 102.011719 27.078125 102.027344 27.085938 C 102.003906 27.097656 101.828125 27.203125 101.828125 27.429688 C 101.828125 27.671875 102.011719 27.804688 102.203125 27.804688 C 102.363281 27.804688 102.578125 27.699219 102.578125 27.421875 "/>
<path style=" stroke:none;fill-rule:nonzero;fill:rgb(0%,0%,0%);fill-opacity:1;" d="M 107.472656 28.863281 C 107.472656 27.753906 106.625 26.886719 105.644531 26.886719 C 104.960938 26.886719 104.59375 27.273438 104.417969 27.464844 L 104.417969 26.886719 L 103.15625 26.96875 L 103.15625 27.238281 C 103.78125 27.238281 103.839844 27.292969 103.839844 27.675781 L 103.839844 31.753906 C 103.839844 32.140625 103.742188 32.140625 103.15625 32.140625 L 103.15625 32.414062 L 104.136719 32.386719 L 105.128906 32.414062 L 105.128906 32.140625 C 104.539062 32.140625 104.445312 32.140625 104.445312 31.753906 L 104.445312 30.21875 C 104.488281 30.355469 104.855469 30.828125 105.519531 30.828125 C 106.5625 30.828125 107.472656 29.972656 107.472656 28.847656 L 107.472656 28.863281 M 106.746094 28.847656 C 106.746094 29.902344 106.132812 30.636719 105.488281 30.636719 C 105.136719 30.636719 104.804688 30.460938 104.566406 30.101562 C 104.445312 29.921875 104.445312 29.910156 104.445312 29.738281 L 104.445312 27.789062 C 104.699219 27.359375 105.128906 27.105469 105.574219 27.105469 C 106.214844 27.105469 106.746094 27.875 106.746094 28.863281 L 106.746094 28.847656 "/>
<path style=" stroke:none;fill-rule:nonzero;fill:rgb(0%,0%,0%);fill-opacity:1;" d="M 111.078125 27.421875 C 111.078125 27.140625 110.808594 26.886719 110.429688 26.886719 C 109.792969 26.886719 109.476562 27.472656 109.355469 27.847656 L 109.355469 26.886719 L 108.136719 26.96875 L 108.136719 27.238281 C 108.753906 27.238281 108.820312 27.300781 108.820312 27.730469 L 108.820312 30.082031 C 108.820312 30.476562 108.726562 30.476562 108.136719 30.476562 L 108.136719 30.746094 L 109.136719 30.71875 C 109.488281 30.71875 109.898438 30.71875 110.246094 30.746094 L 110.246094 30.476562 L 110.0625 30.476562 C 109.414062 30.476562 109.398438 30.378906 109.398438 30.0625 L 109.398438 28.714844 C 109.398438 27.859375 109.765625 27.078125 110.429688 27.078125 C 110.492188 27.078125 110.511719 27.078125 110.527344 27.085938 C 110.503906 27.097656 110.328125 27.203125 110.328125 27.429688 C 110.328125 27.671875 110.511719 27.804688 110.703125 27.804688 C 110.859375 27.804688 111.078125 27.699219 111.078125 27.421875 "/>
<path style=" stroke:none;fill-rule:nonzero;fill:rgb(0%,0%,0%);fill-opacity:1;" d="M 115.046875 29.691406 C 115.046875 29.605469 114.972656 29.585938 114.929688 29.585938 C 114.851562 29.585938 114.835938 29.640625 114.816406 29.710938 C 114.511719 30.609375 113.722656 30.609375 113.636719 30.609375 C 113.199219 30.609375 112.847656 30.347656 112.644531 30.023438 C 112.382812 29.605469 112.382812 29.027344 112.382812 28.714844 L 114.824219 28.714844 C 115.019531 28.714844 115.046875 28.714844 115.046875 28.527344 C 115.046875 27.65625 114.574219 26.804688 113.476562 26.804688 C 112.464844 26.804688 111.65625 27.710938 111.65625 28.808594 C 111.65625 29.980469 112.578125 30.828125 113.582031 30.828125 C 114.652344 30.828125 115.046875 29.859375 115.046875 29.691406 M 114.46875 28.527344 L 112.390625 28.527344 C 112.445312 27.21875 113.179688 26.996094 113.476562 26.996094 C 114.378906 26.996094 114.46875 28.1875 114.46875 28.527344 "/>
<path style=" stroke:none;fill-rule:nonzero;fill:rgb(0%,0%,0%);fill-opacity:1;" d="M 118.28125 29.671875 L 118.28125 29.183594 L 118.0625 29.183594 L 118.0625 29.65625 C 118.0625 30.285156 117.800781 30.609375 117.476562 30.609375 C 116.890625 30.609375 116.890625 29.832031 116.890625 29.6875 L 116.890625 27.238281 L 118.144531 27.238281 L 118.144531 26.96875 L 116.890625 26.96875 L 116.890625 25.324219 L 116.671875 25.324219 C 116.664062 26.058594 116.398438 27.011719 115.542969 27.046875 L 115.542969 27.238281 L 116.289062 27.238281 L 116.289062 29.648438 C 116.289062 30.722656 117.101562 30.828125 117.417969 30.828125 C 118.039062 30.828125 118.28125 30.207031 118.28125 29.648438 L 118.28125 29.671875 "/>
<path style=" stroke:none;fill-rule:nonzero;fill:rgb(0%,0%,0%);fill-opacity:1;" d="M 122.503906 29.691406 C 122.503906 29.605469 122.433594 29.585938 122.390625 29.585938 C 122.3125 29.585938 122.292969 29.640625 122.277344 29.710938 C 121.96875 30.609375 121.183594 30.609375 121.09375 30.609375 C 120.65625 30.609375 120.304688 30.347656 120.105469 30.023438 C 119.84375 29.605469 119.84375 29.027344 119.84375 28.714844 L 122.285156 28.714844 C 122.476562 28.714844 122.503906 28.714844 122.503906 28.527344 C 122.503906 27.65625 122.03125 26.804688 120.9375 26.804688 C 119.921875 26.804688 119.113281 27.710938 119.113281 28.808594 C 119.113281 29.980469 120.035156 30.828125 121.039062 30.828125 C 122.109375 30.828125 122.503906 29.859375 122.503906 29.691406 M 121.925781 28.527344 L 119.851562 28.527344 C 119.902344 27.21875 120.640625 26.996094 120.9375 26.996094 C 121.839844 26.996094 121.925781 28.1875 121.925781 28.527344 "/>
<path style=" stroke:none;fill-rule:nonzero;fill:rgb(0%,0%,0%);fill-opacity:1;" d="M 126.019531 27.421875 C 126.019531 27.140625 125.75 26.886719 125.371094 26.886719 C 124.734375 26.886719 124.421875 27.472656 124.296875 27.847656 L 124.296875 26.886719 L 123.078125 26.96875 L 123.078125 27.238281 C 123.691406 27.238281 123.761719 27.300781 123.761719 27.730469 L 123.761719 30.082031 C 123.761719 30.476562 123.664062 30.476562 123.078125 30.476562 L 123.078125 30.746094 L 124.078125 30.71875 C 124.429688 30.71875 124.839844 30.71875 125.191406 30.746094 L 125.191406 30.476562 L 125.007812 30.476562 C 124.359375 30.476562 124.339844 30.378906 124.339844 30.0625 L 124.339844 28.714844 C 124.339844 27.859375 124.710938 27.078125 125.371094 27.078125 C 125.433594 27.078125 125.453125 27.078125 125.46875 27.085938 C 125.445312 27.097656 125.269531 27.203125 125.269531 27.429688 C 125.269531 27.671875 125.453125 27.804688 125.644531 27.804688 C 125.804688 27.804688 126.019531 27.699219 126.019531 27.421875 "/>
<path style="fill:none;stroke-width:9.9211;stroke-linecap:butt;stroke-linejoin:miter;stroke:rgb(0%,0%,0%);stroke-opacity:1;stroke-miterlimit:10;" d="M 1318.515625 183.320312 L 1393.90625 108.90625 L 1393.90625 307.34375 L 1318.515625 257.734375 " transform="matrix(0.1,0,0,-0.1,0,52)"/>
<path style="fill:none;stroke-width:9.9211;stroke-linecap:butt;stroke-linejoin:miter;stroke:rgb(0%,0%,0%);stroke-opacity:1;stroke-miterlimit:10;" d="M 785.273438 257.734375 L 699.453125 208.125 L 699.453125 406.5625 L 785.273438 332.148438 " transform="matrix(0.1,0,0,-0.1,0,52)"/>
<path style="fill:none;stroke-width:9.9211;stroke-linecap:butt;stroke-linejoin:miter;stroke:rgb(0%,0%,0%);stroke-opacity:1;stroke-miterlimit:10;" d="M 421.601562 297.8125 L 664.21875 295.546875 " transform="matrix(0.1,0,0,-0.1,0,52)"/>
<path style="fill:none;stroke-width:9.9211;stroke-linecap:butt;stroke-linejoin:miter;stroke:rgb(0%,0%,0%);stroke-opacity:1;stroke-miterlimit:10;" d="M 625.46875 271.09375 L 675.3125 295.429688 L 625.9375 320.703125 " transform="matrix(0.1,0,0,-0.1,0,52)"/>
<path style="fill:none;stroke-width:9.9211;stroke-linecap:butt;stroke-linejoin:miter;stroke:rgb(0%,0%,0%);stroke-opacity:1;stroke-miterlimit:10;" d="M 1410.234375 200.585938 L 1652.851562 198.320312 " transform="matrix(0.1,0,0,-0.1,0,52)"/>
<path style="fill:none;stroke-width:9.9211;stroke-linecap:butt;stroke-linejoin:miter;stroke:rgb(0%,0%,0%);stroke-opacity:1;stroke-miterlimit:10;" d="M 1614.101562 173.867188 L 1663.945312 198.203125 L 1614.609375 223.476562 " transform="matrix(0.1,0,0,-0.1,0,52)"/>
</g>
</svg>
