<?xml version="1.0" encoding="UTF-8"?>
<svg xmlns="http://www.w3.org/2000/svg" xmlns:xlink="http://www.w3.org/1999/xlink" width="211pt" height="145pt" viewBox="0 0 211 145" version="1.1">
<g id="surface1">
<path style=" stroke:none;fill-rule:evenodd;fill:rgb(100%,100%,100%);fill-opacity:1;" d="M 45.085938 56.855469 L 89.464844 82.449219 L 45.085938 108.042969 L 0.707031 82.449219 "/>
<path style="fill:none;stroke-width:14.173;stroke-linecap:butt;stroke-linejoin:miter;stroke:rgb(27.43988%,50.976562%,70.506287%);stroke-opacity:1;stroke-miterlimit:10;" d="M 450.859375 881.445312 L 894.648438 625.507812 L 450.859375 369.570312 L 7.070312 625.507812 Z M 450.859375 881.445312 " transform="matrix(0.1,0,0,-0.1,0,145)"/>
<path style=" stroke:none;fill-rule:nonzero;fill:rgb(0%,0%,0%);fill-opacity:1;" d="M 32.03125 84.195312 C 32.03125 84.652344 31.988281 85.046875 31.902344 85.382812 C 31.820312 85.714844 31.699219 85.988281 31.535156 86.207031 C 31.375 86.421875 31.175781 86.582031 30.9375 86.6875 C 30.699219 86.789062 30.425781 86.84375 30.117188 86.84375 C 29.941406 86.84375 29.777344 86.824219 29.628906 86.78125 C 29.484375 86.742188 29.351562 86.683594 29.234375 86.613281 C 29.117188 86.535156 29.015625 86.449219 28.921875 86.347656 C 28.835938 86.242188 28.757812 86.128906 28.6875 86.007812 L 28.628906 86.007812 L 28.464844 86.726562 L 26.960938 86.726562 L 26.960938 86.332031 L 27.035156 86.332031 C 27.140625 86.332031 27.242188 86.324219 27.335938 86.308594 C 27.429688 86.292969 27.511719 86.261719 27.578125 86.214844 C 27.648438 86.167969 27.703125 86.097656 27.742188 86.007812 C 27.785156 85.917969 27.804688 85.800781 27.804688 85.65625 L 27.804688 80.601562 C 27.804688 80.464844 27.785156 80.351562 27.742188 80.269531 C 27.703125 80.183594 27.644531 80.121094 27.574219 80.074219 C 27.503906 80.027344 27.421875 79.996094 27.332031 79.984375 C 27.238281 79.96875 27.140625 79.960938 27.035156 79.960938 L 26.960938 79.960938 L 26.960938 79.570312 L 28.691406 79.570312 L 28.691406 81.292969 C 28.691406 81.398438 28.6875 81.519531 28.683594 81.660156 C 28.683594 81.800781 28.679688 81.933594 28.671875 82.0625 C 28.667969 82.207031 28.660156 82.359375 28.65625 82.515625 L 28.691406 82.515625 C 28.761719 82.367188 28.839844 82.238281 28.925781 82.121094 C 29.015625 82.003906 29.117188 81.902344 29.234375 81.820312 C 29.347656 81.738281 29.480469 81.675781 29.625 81.632812 C 29.773438 81.585938 29.9375 81.5625 30.121094 81.5625 C 30.425781 81.5625 30.699219 81.613281 30.9375 81.71875 C 31.175781 81.824219 31.375 81.980469 31.535156 82.199219 C 31.699219 82.410156 31.820312 82.683594 31.902344 83.015625 C 31.988281 83.347656 32.03125 83.738281 32.03125 84.195312 M 29.957031 82.164062 C 29.714844 82.164062 29.511719 82.207031 29.347656 82.289062 C 29.1875 82.371094 29.054688 82.496094 28.957031 82.664062 C 28.863281 82.832031 28.792969 83.039062 28.75 83.296875 C 28.710938 83.550781 28.691406 83.847656 28.691406 84.195312 C 28.691406 84.527344 28.710938 84.820312 28.75 85.074219 C 28.792969 85.328125 28.863281 85.542969 28.960938 85.714844 C 29.0625 85.890625 29.191406 86.019531 29.355469 86.109375 C 29.515625 86.199219 29.722656 86.242188 29.96875 86.242188 C 30.171875 86.242188 30.347656 86.199219 30.492188 86.109375 C 30.640625 86.019531 30.757812 85.890625 30.847656 85.714844 C 30.941406 85.542969 31.007812 85.328125 31.050781 85.070312 C 31.09375 84.816406 31.117188 84.519531 31.117188 84.183594 C 31.117188 83.847656 31.09375 83.550781 31.050781 83.296875 C 31.007812 83.042969 30.941406 82.835938 30.847656 82.667969 C 30.757812 82.5 30.636719 82.375 30.488281 82.289062 C 30.339844 82.207031 30.164062 82.164062 29.957031 82.164062 "/>
<path style=" stroke:none;fill-rule:nonzero;fill:rgb(0%,0%,0%);fill-opacity:1;" d="M 37.554688 84.195312 C 37.554688 85.085938 37.363281 85.753906 36.980469 86.1875 C 36.601562 86.625 36.042969 86.84375 35.308594 86.84375 C 34.964844 86.84375 34.65625 86.789062 34.382812 86.679688 C 34.109375 86.574219 33.875 86.40625 33.683594 86.1875 C 33.492188 85.96875 33.347656 85.691406 33.246094 85.359375 C 33.144531 85.027344 33.09375 84.640625 33.09375 84.195312 C 33.09375 83.304688 33.285156 82.648438 33.660156 82.214844 C 34.039062 81.78125 34.597656 81.5625 35.339844 81.5625 C 35.683594 81.5625 35.992188 81.617188 36.265625 81.722656 C 36.539062 81.832031 36.773438 81.992188 36.964844 82.210938 C 37.15625 82.425781 37.300781 82.703125 37.402344 83.03125 C 37.503906 83.359375 37.554688 83.75 37.554688 84.195312 M 34.007812 84.1875 C 34.007812 84.546875 34.03125 84.863281 34.078125 85.132812 C 34.125 85.40625 34.203125 85.636719 34.308594 85.816406 C 34.410156 86 34.546875 86.140625 34.714844 86.234375 C 34.882812 86.328125 35.089844 86.375 35.332031 86.375 C 35.574219 86.375 35.777344 86.328125 35.945312 86.234375 C 36.109375 86.140625 36.246094 86 36.347656 85.816406 C 36.453125 85.636719 36.527344 85.40625 36.574219 85.132812 C 36.617188 84.863281 36.640625 84.546875 36.640625 84.1875 C 36.640625 83.832031 36.617188 83.519531 36.570312 83.25 C 36.523438 82.980469 36.449219 82.753906 36.34375 82.574219 C 36.238281 82.394531 36.105469 82.257812 35.9375 82.167969 C 35.769531 82.078125 35.566406 82.03125 35.324219 82.03125 C 35.082031 82.03125 34.875 82.078125 34.710938 82.167969 C 34.542969 82.257812 34.410156 82.394531 34.304688 82.574219 C 34.203125 82.753906 34.125 82.980469 34.078125 83.25 C 34.03125 83.519531 34.007812 83.832031 34.007812 84.1875 "/>
<path style=" stroke:none;fill-rule:nonzero;fill:rgb(0%,0%,0%);fill-opacity:1;" d="M 43.074219 84.195312 C 43.074219 85.085938 42.886719 85.753906 42.503906 86.1875 C 42.125 86.625 41.566406 86.84375 40.832031 86.84375 C 40.488281 86.84375 40.179688 86.789062 39.90625 86.679688 C 39.628906 86.574219 39.398438 86.40625 39.207031 86.1875 C 39.015625 85.96875 38.867188 85.691406 38.769531 85.359375 C 38.667969 85.027344 38.617188 84.640625 38.617188 84.195312 C 38.617188 83.304688 38.804688 82.648438 39.183594 82.214844 C 39.5625 81.78125 40.121094 81.5625 40.859375 81.5625 C 41.207031 81.5625 41.515625 81.617188 41.789062 81.722656 C 42.0625 81.832031 42.292969 81.992188 42.484375 82.210938 C 42.675781 82.425781 42.824219 82.703125 42.921875 83.03125 C 43.023438 83.359375 43.074219 83.75 43.074219 84.195312 M 39.53125 84.1875 C 39.53125 84.546875 39.554688 84.863281 39.601562 85.132812 C 39.648438 85.40625 39.722656 85.636719 39.828125 85.816406 C 39.933594 86 40.070312 86.140625 40.238281 86.234375 C 40.40625 86.328125 40.613281 86.375 40.855469 86.375 C 41.097656 86.375 41.300781 86.328125 41.464844 86.234375 C 41.632812 86.140625 41.769531 86 41.871094 85.816406 C 41.976562 85.636719 42.050781 85.40625 42.09375 85.132812 C 42.140625 84.863281 42.164062 84.546875 42.164062 84.1875 C 42.164062 83.832031 42.140625 83.519531 42.089844 83.25 C 42.042969 82.980469 41.96875 82.753906 41.867188 82.574219 C 41.761719 82.394531 41.625 82.257812 41.460938 82.167969 C 41.292969 82.078125 41.085938 82.03125 40.84375 82.03125 C 40.601562 82.03125 40.398438 82.078125 40.230469 82.167969 C 40.066406 82.257812 39.929688 82.394531 39.828125 82.574219 C 39.722656 82.753906 39.648438 82.980469 39.601562 83.25 C 39.554688 83.519531 39.53125 83.832031 39.53125 84.1875 "/>
<path style=" stroke:none;fill-rule:nonzero;fill:rgb(0%,0%,0%);fill-opacity:1;" d="M 43.957031 86.332031 C 44.0625 86.332031 44.160156 86.324219 44.253906 86.308594 C 44.347656 86.292969 44.429688 86.261719 44.5 86.214844 C 44.566406 86.167969 44.621094 86.097656 44.664062 86.007812 C 44.707031 85.917969 44.726562 85.800781 44.726562 85.65625 L 44.726562 80.601562 C 44.726562 80.464844 44.707031 80.351562 44.664062 80.269531 C 44.621094 80.183594 44.566406 80.121094 44.496094 80.074219 C 44.425781 80.027344 44.34375 79.996094 44.25 79.984375 C 44.160156 79.96875 44.058594 79.960938 43.957031 79.960938 L 43.835938 79.960938 L 43.835938 79.570312 L 45.613281 79.570312 L 45.613281 85.65625 C 45.613281 85.800781 45.632812 85.921875 45.671875 86.011719 C 45.710938 86.097656 45.765625 86.167969 45.835938 86.214844 C 45.90625 86.261719 45.988281 86.292969 46.082031 86.308594 C 46.175781 86.324219 46.277344 86.332031 46.382812 86.332031 L 46.5 86.332031 L 46.5 86.726562 L 43.835938 86.726562 L 43.835938 86.332031 L 43.957031 86.332031 "/>
<path style=" stroke:none;fill-rule:nonzero;fill:rgb(0%,0%,0%);fill-opacity:1;" d="M 49.234375 82.101562 C 48.871094 82.101562 48.589844 82.242188 48.394531 82.53125 C 48.195312 82.816406 48.078125 83.238281 48.042969 83.792969 L 50.304688 83.792969 C 50.304688 83.539062 50.285156 83.308594 50.246094 83.101562 C 50.210938 82.894531 50.148438 82.714844 50.066406 82.566406 C 49.984375 82.417969 49.875 82.300781 49.734375 82.222656 C 49.601562 82.140625 49.433594 82.101562 49.234375 82.101562 M 49.316406 86.84375 C 48.972656 86.84375 48.664062 86.785156 48.390625 86.667969 C 48.117188 86.550781 47.886719 86.382812 47.695312 86.160156 C 47.507812 85.9375 47.363281 85.664062 47.261719 85.34375 C 47.164062 85.019531 47.113281 84.652344 47.113281 84.238281 C 47.113281 83.351562 47.296875 82.683594 47.664062 82.234375 C 48.03125 81.785156 48.554688 81.5625 49.230469 81.5625 C 49.539062 81.5625 49.816406 81.613281 50.0625 81.710938 C 50.308594 81.808594 50.515625 81.953125 50.6875 82.148438 C 50.859375 82.34375 50.992188 82.585938 51.082031 82.875 C 51.171875 83.164062 51.21875 83.5 51.21875 83.882812 L 51.21875 84.328125 L 48.027344 84.328125 C 48.03125 84.664062 48.066406 84.953125 48.128906 85.191406 C 48.195312 85.433594 48.285156 85.632812 48.402344 85.789062 C 48.523438 85.945312 48.667969 86.058594 48.84375 86.132812 C 49.015625 86.203125 49.21875 86.242188 49.441406 86.242188 C 49.605469 86.242188 49.757812 86.222656 49.898438 86.183594 C 50.042969 86.144531 50.167969 86.09375 50.28125 86.03125 C 50.398438 85.964844 50.5 85.894531 50.585938 85.808594 C 50.675781 85.730469 50.75 85.644531 50.804688 85.550781 C 50.847656 85.570312 50.886719 85.609375 50.925781 85.671875 C 50.964844 85.730469 50.984375 85.800781 50.984375 85.882812 C 50.984375 85.980469 50.949219 86.085938 50.882812 86.199219 C 50.816406 86.3125 50.710938 86.414062 50.574219 86.511719 C 50.433594 86.605469 50.257812 86.683594 50.050781 86.746094 C 49.84375 86.8125 49.597656 86.84375 49.316406 86.84375 "/>
<path style=" stroke:none;fill-rule:nonzero;fill:rgb(0%,0%,0%);fill-opacity:1;" d="M 53.160156 85.386719 C 53.160156 85.679688 53.21875 85.902344 53.339844 86.046875 C 53.460938 86.191406 53.648438 86.265625 53.898438 86.265625 C 54.085938 86.265625 54.25 86.234375 54.402344 86.171875 C 54.550781 86.109375 54.679688 86.023438 54.785156 85.910156 C 54.890625 85.796875 54.972656 85.65625 55.027344 85.496094 C 55.085938 85.332031 55.113281 85.152344 55.113281 84.949219 L 55.113281 84.1875 L 54.53125 84.214844 C 54.269531 84.226562 54.054688 84.257812 53.878906 84.3125 C 53.707031 84.367188 53.566406 84.441406 53.457031 84.539062 C 53.351562 84.636719 53.273438 84.757812 53.226562 84.898438 C 53.183594 85.039062 53.160156 85.199219 53.160156 85.386719 M 54.246094 82.03125 C 54.070312 82.03125 53.921875 82.054688 53.8125 82.109375 C 53.703125 82.160156 53.613281 82.234375 53.554688 82.328125 C 53.492188 82.425781 53.449219 82.535156 53.425781 82.667969 C 53.40625 82.796875 53.394531 82.9375 53.394531 83.089844 C 53.136719 83.089844 52.9375 83.042969 52.800781 82.953125 C 52.664062 82.863281 52.597656 82.707031 52.597656 82.484375 C 52.597656 82.316406 52.640625 82.175781 52.730469 82.0625 C 52.820312 81.945312 52.941406 81.851562 53.09375 81.777344 C 53.25 81.703125 53.425781 81.648438 53.632812 81.613281 C 53.835938 81.582031 54.054688 81.5625 54.285156 81.5625 C 54.574219 81.5625 54.820312 81.59375 55.035156 81.648438 C 55.246094 81.707031 55.425781 81.796875 55.570312 81.925781 C 55.714844 82.058594 55.820312 82.226562 55.890625 82.433594 C 55.964844 82.640625 56 82.898438 56 83.199219 L 56 85.652344 C 56 85.785156 56.011719 85.894531 56.03125 85.980469 C 56.054688 86.066406 56.085938 86.136719 56.132812 86.1875 C 56.179688 86.242188 56.238281 86.277344 56.3125 86.300781 C 56.390625 86.320312 56.480469 86.332031 56.582031 86.332031 L 56.609375 86.332031 L 56.609375 86.726562 L 55.347656 86.726562 L 55.203125 85.9375 L 55.128906 85.9375 C 55.03125 86.070312 54.9375 86.191406 54.847656 86.304688 C 54.757812 86.414062 54.65625 86.507812 54.546875 86.589844 C 54.441406 86.667969 54.316406 86.730469 54.179688 86.773438 C 54.042969 86.820312 53.878906 86.84375 53.683594 86.84375 C 53.480469 86.84375 53.289062 86.8125 53.109375 86.753906 C 52.933594 86.691406 52.78125 86.601562 52.65625 86.476562 C 52.527344 86.351562 52.425781 86.195312 52.355469 86.003906 C 52.28125 85.816406 52.246094 85.59375 52.246094 85.335938 C 52.246094 84.832031 52.417969 84.460938 52.769531 84.21875 C 53.117188 83.972656 53.644531 83.84375 54.347656 83.820312 L 55.113281 83.792969 L 55.113281 83.214844 C 55.113281 83.042969 55.105469 82.882812 55.085938 82.738281 C 55.070312 82.59375 55.03125 82.46875 54.96875 82.363281 C 54.910156 82.257812 54.820312 82.175781 54.707031 82.117188 C 54.59375 82.058594 54.441406 82.03125 54.246094 82.03125 "/>
<path style=" stroke:none;fill-rule:nonzero;fill:rgb(0%,0%,0%);fill-opacity:1;" d="M 59.929688 86.332031 L 59.929688 86.726562 L 57.402344 86.726562 L 57.402344 86.332031 L 57.476562 86.332031 C 57.585938 86.332031 57.6875 86.324219 57.78125 86.308594 C 57.871094 86.292969 57.953125 86.261719 58.019531 86.214844 C 58.089844 86.167969 58.144531 86.097656 58.1875 86.011719 C 58.226562 85.921875 58.25 85.800781 58.25 85.65625 L 58.25 82.71875 C 58.25 82.578125 58.226562 82.46875 58.1875 82.382812 C 58.144531 82.300781 58.089844 82.234375 58.019531 82.191406 C 57.949219 82.144531 57.867188 82.113281 57.773438 82.097656 C 57.679688 82.082031 57.582031 82.074219 57.476562 82.074219 L 57.453125 82.074219 L 57.453125 81.679688 L 58.972656 81.679688 L 59.097656 82.417969 L 59.144531 82.417969 C 59.242188 82.242188 59.347656 82.097656 59.457031 81.988281 C 59.570312 81.875 59.683594 81.789062 59.808594 81.726562 C 59.929688 81.664062 60.0625 81.621094 60.199219 81.597656 C 60.335938 81.574219 60.484375 81.5625 60.636719 81.5625 C 60.886719 81.5625 61.113281 81.597656 61.308594 81.671875 C 61.503906 81.742188 61.671875 81.855469 61.808594 82.003906 C 61.949219 82.152344 62.054688 82.34375 62.128906 82.582031 C 62.203125 82.8125 62.238281 83.09375 62.238281 83.417969 L 62.238281 85.652344 C 62.238281 85.800781 62.253906 85.917969 62.289062 86.007812 C 62.328125 86.097656 62.375 86.167969 62.441406 86.214844 C 62.503906 86.261719 62.582031 86.292969 62.667969 86.308594 C 62.757812 86.324219 62.855469 86.332031 62.957031 86.332031 L 62.988281 86.332031 L 62.988281 86.726562 L 61.351562 86.726562 L 61.351562 83.457031 C 61.351562 83.253906 61.332031 83.070312 61.296875 82.910156 C 61.257812 82.75 61.199219 82.613281 61.117188 82.5 C 61.03125 82.390625 60.921875 82.304688 60.789062 82.25 C 60.65625 82.191406 60.492188 82.164062 60.296875 82.164062 C 60.078125 82.164062 59.894531 82.207031 59.746094 82.289062 C 59.597656 82.371094 59.476562 82.484375 59.386719 82.625 C 59.296875 82.769531 59.230469 82.929688 59.191406 83.117188 C 59.152344 83.300781 59.132812 83.496094 59.132812 83.699219 L 59.132812 85.695312 C 59.132812 85.835938 59.15625 85.949219 59.195312 86.035156 C 59.238281 86.117188 59.292969 86.183594 59.363281 86.226562 C 59.433594 86.269531 59.515625 86.296875 59.609375 86.3125 C 59.703125 86.324219 59.800781 86.332031 59.902344 86.332031 L 59.929688 86.332031 "/>
<path style="fill-rule:nonzero;fill:rgb(100%,100%,100%);fill-opacity:1;stroke-width:14.173;stroke-linecap:butt;stroke-linejoin:miter;stroke:rgb(27.43988%,50.976562%,70.506287%);stroke-opacity:1;stroke-miterlimit:10;" d="M 1442.96875 487.539062 L 2095.976562 487.539062 L 2095.976562 763.4375 L 1442.96875 763.4375 Z M 1442.96875 487.539062 " transform="matrix(0.1,0,0,-0.1,0,145)"/>
<path style=" stroke:none;fill-rule:nonzero;fill:rgb(0%,0%,0%);fill-opacity:1;" d="M 154.058594 86.84375 C 153.828125 86.84375 153.625 86.820312 153.4375 86.78125 C 153.253906 86.738281 153.097656 86.675781 152.96875 86.59375 C 152.839844 86.507812 152.738281 86.40625 152.667969 86.28125 C 152.597656 86.15625 152.5625 86.011719 152.5625 85.847656 C 152.5625 85.722656 152.582031 85.617188 152.621094 85.535156 C 152.664062 85.449219 152.714844 85.382812 152.773438 85.335938 C 152.835938 85.285156 152.898438 85.25 152.964844 85.230469 C 153.035156 85.210938 153.097656 85.199219 153.152344 85.199219 C 153.152344 85.363281 153.167969 85.519531 153.195312 85.664062 C 153.226562 85.808594 153.277344 85.933594 153.347656 86.042969 C 153.417969 86.152344 153.511719 86.238281 153.625 86.300781 C 153.738281 86.363281 153.878906 86.394531 154.046875 86.394531 C 154.195312 86.394531 154.324219 86.371094 154.4375 86.332031 C 154.550781 86.289062 154.648438 86.230469 154.726562 86.152344 C 154.800781 86.078125 154.859375 85.988281 154.898438 85.878906 C 154.941406 85.773438 154.960938 85.65625 154.960938 85.527344 C 154.960938 85.410156 154.945312 85.308594 154.914062 85.222656 C 154.882812 85.136719 154.828125 85.058594 154.753906 84.984375 C 154.675781 84.910156 154.570312 84.832031 154.4375 84.757812 C 154.304688 84.679688 154.140625 84.589844 153.9375 84.492188 C 153.722656 84.382812 153.539062 84.277344 153.378906 84.175781 C 153.222656 84.074219 153.089844 83.964844 152.988281 83.847656 C 152.882812 83.730469 152.808594 83.597656 152.753906 83.445312 C 152.703125 83.296875 152.679688 83.117188 152.679688 82.910156 C 152.679688 82.691406 152.71875 82.5 152.796875 82.332031 C 152.875 82.164062 152.984375 82.023438 153.132812 81.910156 C 153.277344 81.796875 153.453125 81.710938 153.652344 81.652344 C 153.855469 81.59375 154.082031 81.5625 154.332031 81.5625 C 154.539062 81.5625 154.722656 81.585938 154.882812 81.632812 C 155.042969 81.675781 155.179688 81.738281 155.285156 81.8125 C 155.394531 81.890625 155.476562 81.980469 155.527344 82.085938 C 155.585938 82.191406 155.613281 82.296875 155.613281 82.414062 C 155.613281 82.582031 155.554688 82.71875 155.4375 82.820312 C 155.316406 82.921875 155.152344 82.96875 154.933594 82.96875 C 154.933594 82.652344 154.882812 82.402344 154.777344 82.222656 C 154.671875 82.046875 154.507812 81.957031 154.285156 81.957031 C 154.15625 81.957031 154.046875 81.976562 153.953125 82.015625 C 153.863281 82.054688 153.789062 82.109375 153.730469 82.183594 C 153.671875 82.253906 153.632812 82.339844 153.605469 82.4375 C 153.578125 82.535156 153.5625 82.644531 153.5625 82.765625 C 153.5625 82.886719 153.582031 82.988281 153.621094 83.078125 C 153.660156 83.164062 153.71875 83.246094 153.800781 83.320312 C 153.882812 83.394531 153.992188 83.46875 154.121094 83.539062 C 154.253906 83.605469 154.410156 83.683594 154.597656 83.773438 C 154.816406 83.878906 155.003906 83.980469 155.160156 84.082031 C 155.316406 84.183594 155.445312 84.296875 155.546875 84.417969 C 155.648438 84.539062 155.722656 84.675781 155.773438 84.828125 C 155.820312 84.976562 155.847656 85.152344 155.847656 85.351562 C 155.847656 85.597656 155.804688 85.816406 155.71875 86 C 155.632812 86.1875 155.511719 86.34375 155.355469 86.46875 C 155.199219 86.59375 155.011719 86.6875 154.789062 86.75 C 154.570312 86.8125 154.324219 86.84375 154.058594 86.84375 "/>
<path style=" stroke:none;fill-rule:nonzero;fill:rgb(0%,0%,0%);fill-opacity:1;" d="M 158.949219 86.375 C 159.0625 86.375 159.164062 86.367188 159.257812 86.355469 C 159.355469 86.34375 159.453125 86.328125 159.550781 86.3125 L 159.550781 86.703125 C 159.511719 86.722656 159.457031 86.738281 159.394531 86.757812 C 159.328125 86.773438 159.261719 86.789062 159.183594 86.800781 C 159.109375 86.8125 159.03125 86.824219 158.949219 86.832031 C 158.867188 86.839844 158.789062 86.84375 158.714844 86.84375 C 158.476562 86.84375 158.269531 86.816406 158.097656 86.765625 C 157.929688 86.714844 157.785156 86.632812 157.675781 86.519531 C 157.566406 86.40625 157.484375 86.253906 157.429688 86.066406 C 157.375 85.878906 157.347656 85.648438 157.347656 85.378906 L 157.347656 82.21875 L 156.632812 82.21875 L 156.632812 81.839844 C 156.746094 81.839844 156.871094 81.816406 157.007812 81.769531 C 157.144531 81.722656 157.265625 81.644531 157.367188 81.535156 C 157.476562 81.417969 157.5625 81.277344 157.628906 81.117188 C 157.695312 80.953125 157.753906 80.75 157.800781 80.507812 L 158.234375 80.507812 L 158.234375 81.679688 L 159.464844 81.679688 L 159.464844 82.21875 L 158.234375 82.21875 L 158.234375 85.429688 C 158.234375 85.757812 158.300781 85.996094 158.429688 86.148438 C 158.558594 86.300781 158.730469 86.375 158.949219 86.375 "/>
<path style=" stroke:none;fill-rule:nonzero;fill:rgb(0%,0%,0%);fill-opacity:1;" d="M 161.15625 85.386719 C 161.15625 85.679688 161.214844 85.902344 161.335938 86.046875 C 161.457031 86.191406 161.644531 86.265625 161.894531 86.265625 C 162.082031 86.265625 162.246094 86.234375 162.398438 86.171875 C 162.550781 86.109375 162.675781 86.023438 162.78125 85.910156 C 162.886719 85.796875 162.96875 85.65625 163.027344 85.496094 C 163.082031 85.332031 163.113281 85.152344 163.113281 84.949219 L 163.113281 84.1875 L 162.527344 84.214844 C 162.269531 84.226562 162.050781 84.257812 161.875 84.3125 C 161.703125 84.367188 161.5625 84.441406 161.453125 84.539062 C 161.347656 84.636719 161.273438 84.757812 161.226562 84.898438 C 161.179688 85.039062 161.15625 85.199219 161.15625 85.386719 M 162.246094 82.03125 C 162.066406 82.03125 161.921875 82.054688 161.808594 82.109375 C 161.699219 82.160156 161.613281 82.234375 161.550781 82.328125 C 161.488281 82.425781 161.445312 82.535156 161.421875 82.667969 C 161.402344 82.796875 161.390625 82.9375 161.390625 83.089844 C 161.132812 83.089844 160.933594 83.042969 160.796875 82.953125 C 160.664062 82.863281 160.59375 82.707031 160.59375 82.484375 C 160.59375 82.316406 160.640625 82.175781 160.726562 82.0625 C 160.816406 81.945312 160.9375 81.851562 161.089844 81.777344 C 161.246094 81.703125 161.425781 81.648438 161.628906 81.613281 C 161.832031 81.582031 162.050781 81.5625 162.28125 81.5625 C 162.570312 81.5625 162.820312 81.59375 163.03125 81.648438 C 163.246094 81.707031 163.421875 81.796875 163.566406 81.925781 C 163.710938 82.058594 163.816406 82.226562 163.890625 82.433594 C 163.960938 82.640625 163.996094 82.898438 163.996094 83.199219 L 163.996094 85.652344 C 163.996094 85.785156 164.007812 85.894531 164.027344 85.980469 C 164.050781 86.066406 164.085938 86.136719 164.128906 86.1875 C 164.175781 86.242188 164.234375 86.277344 164.3125 86.300781 C 164.386719 86.320312 164.476562 86.332031 164.578125 86.332031 L 164.609375 86.332031 L 164.609375 86.726562 L 163.347656 86.726562 L 163.203125 85.9375 L 163.125 85.9375 C 163.027344 86.070312 162.933594 86.191406 162.84375 86.304688 C 162.753906 86.414062 162.652344 86.507812 162.546875 86.589844 C 162.4375 86.667969 162.3125 86.730469 162.175781 86.773438 C 162.039062 86.820312 161.875 86.84375 161.683594 86.84375 C 161.476562 86.84375 161.285156 86.8125 161.109375 86.753906 C 160.933594 86.691406 160.78125 86.601562 160.652344 86.476562 C 160.523438 86.351562 160.421875 86.195312 160.351562 86.003906 C 160.277344 85.816406 160.242188 85.59375 160.242188 85.335938 C 160.242188 84.832031 160.417969 84.460938 160.765625 84.21875 C 161.113281 83.972656 161.640625 83.84375 162.347656 83.820312 L 163.113281 83.792969 L 163.113281 83.214844 C 163.113281 83.042969 163.101562 82.882812 163.085938 82.738281 C 163.066406 82.59375 163.027344 82.46875 162.964844 82.363281 C 162.90625 82.257812 162.816406 82.175781 162.703125 82.117188 C 162.589844 82.058594 162.4375 82.03125 162.246094 82.03125 "/>
<path style=" stroke:none;fill-rule:nonzero;fill:rgb(0%,0%,0%);fill-opacity:1;" d="M 167.730469 86.375 C 167.839844 86.375 167.945312 86.367188 168.039062 86.355469 C 168.132812 86.34375 168.230469 86.328125 168.328125 86.3125 L 168.328125 86.703125 C 168.289062 86.722656 168.238281 86.738281 168.171875 86.757812 C 168.109375 86.773438 168.039062 86.789062 167.964844 86.800781 C 167.890625 86.8125 167.808594 86.824219 167.726562 86.832031 C 167.644531 86.839844 167.566406 86.84375 167.492188 86.84375 C 167.257812 86.84375 167.050781 86.816406 166.878906 86.765625 C 166.707031 86.714844 166.566406 86.632812 166.453125 86.519531 C 166.34375 86.40625 166.261719 86.253906 166.210938 86.066406 C 166.15625 85.878906 166.128906 85.648438 166.128906 85.378906 L 166.128906 82.21875 L 165.414062 82.21875 L 165.414062 81.839844 C 165.527344 81.839844 165.648438 81.816406 165.785156 81.769531 C 165.921875 81.722656 166.042969 81.644531 166.144531 81.535156 C 166.253906 81.417969 166.339844 81.277344 166.40625 81.117188 C 166.472656 80.953125 166.53125 80.75 166.582031 80.507812 L 167.015625 80.507812 L 167.015625 81.679688 L 168.242188 81.679688 L 168.242188 82.21875 L 167.015625 82.21875 L 167.015625 85.429688 C 167.015625 85.757812 167.078125 85.996094 167.207031 86.148438 C 167.339844 86.300781 167.511719 86.375 167.730469 86.375 "/>
<path style=" stroke:none;fill-rule:nonzero;fill:rgb(0%,0%,0%);fill-opacity:1;" d="M 171.144531 82.101562 C 170.777344 82.101562 170.496094 82.242188 170.300781 82.53125 C 170.105469 82.816406 169.988281 83.238281 169.953125 83.792969 L 172.214844 83.792969 C 172.214844 83.539062 172.195312 83.308594 172.15625 83.101562 C 172.117188 82.894531 172.058594 82.714844 171.976562 82.566406 C 171.890625 82.417969 171.78125 82.300781 171.644531 82.222656 C 171.507812 82.140625 171.34375 82.101562 171.144531 82.101562 M 171.222656 86.84375 C 170.882812 86.84375 170.574219 86.785156 170.300781 86.667969 C 170.027344 86.550781 169.792969 86.382812 169.605469 86.160156 C 169.414062 85.9375 169.273438 85.664062 169.171875 85.34375 C 169.070312 85.019531 169.023438 84.652344 169.023438 84.238281 C 169.023438 83.351562 169.203125 82.683594 169.570312 82.234375 C 169.9375 81.785156 170.464844 81.5625 171.140625 81.5625 C 171.449219 81.5625 171.726562 81.613281 171.972656 81.710938 C 172.21875 81.808594 172.425781 81.953125 172.597656 82.148438 C 172.769531 82.34375 172.898438 82.585938 172.992188 82.875 C 173.082031 83.164062 173.128906 83.5 173.128906 83.882812 L 173.128906 84.328125 L 169.933594 84.328125 C 169.941406 84.664062 169.976562 84.953125 170.039062 85.191406 C 170.101562 85.433594 170.195312 85.632812 170.3125 85.789062 C 170.433594 85.945312 170.578125 86.058594 170.753906 86.132812 C 170.925781 86.203125 171.125 86.242188 171.351562 86.242188 C 171.515625 86.242188 171.667969 86.222656 171.808594 86.183594 C 171.949219 86.144531 172.078125 86.09375 172.191406 86.03125 C 172.304688 85.964844 172.40625 85.894531 172.496094 85.808594 C 172.585938 85.730469 172.65625 85.644531 172.710938 85.550781 C 172.757812 85.570312 172.796875 85.609375 172.835938 85.671875 C 172.875 85.730469 172.894531 85.800781 172.894531 85.882812 C 172.894531 85.980469 172.859375 86.085938 172.789062 86.199219 C 172.722656 86.3125 172.621094 86.414062 172.480469 86.511719 C 172.34375 86.605469 172.167969 86.683594 171.960938 86.746094 C 171.75 86.8125 171.507812 86.84375 171.222656 86.84375 "/>
<path style=" stroke:none;fill-rule:nonzero;fill:rgb(0%,0%,0%);fill-opacity:1;" d="M 176.425781 86.328125 L 176.425781 86.726562 L 173.894531 86.726562 L 173.894531 86.332031 L 174.015625 86.332031 C 174.125 86.332031 174.222656 86.324219 174.3125 86.308594 C 174.398438 86.292969 174.476562 86.261719 174.539062 86.214844 C 174.605469 86.167969 174.652344 86.097656 174.6875 86.011719 C 174.722656 85.921875 174.742188 85.800781 174.742188 85.65625 L 174.742188 82.71875 C 174.742188 82.578125 174.722656 82.46875 174.6875 82.382812 C 174.648438 82.300781 174.597656 82.234375 174.535156 82.191406 C 174.472656 82.144531 174.394531 82.113281 174.304688 82.097656 C 174.21875 82.082031 174.121094 82.074219 174.015625 82.074219 L 173.988281 82.074219 L 173.988281 81.679688 L 175.441406 81.679688 L 175.5625 82.421875 L 175.609375 82.421875 C 175.703125 82.246094 175.804688 82.101562 175.90625 81.988281 C 176.011719 81.878906 176.121094 81.789062 176.238281 81.726562 C 176.355469 81.664062 176.480469 81.621094 176.609375 81.597656 C 176.742188 81.574219 176.878906 81.5625 177.027344 81.5625 C 177.179688 81.5625 177.324219 81.578125 177.460938 81.609375 C 177.601562 81.640625 177.726562 81.6875 177.84375 81.757812 C 177.964844 81.824219 178.070312 81.914062 178.160156 82.023438 C 178.253906 82.132812 178.332031 82.265625 178.390625 82.421875 L 178.46875 82.421875 C 178.566406 82.246094 178.671875 82.101562 178.785156 81.988281 C 178.898438 81.878906 179.015625 81.789062 179.144531 81.726562 C 179.269531 81.664062 179.402344 81.621094 179.542969 81.597656 C 179.683594 81.574219 179.828125 81.5625 179.976562 81.5625 C 180.222656 81.5625 180.441406 81.597656 180.636719 81.671875 C 180.828125 81.742188 180.992188 81.855469 181.128906 82.003906 C 181.261719 82.152344 181.367188 82.34375 181.4375 82.582031 C 181.511719 82.8125 181.546875 83.09375 181.546875 83.417969 L 181.546875 85.652344 C 181.546875 85.800781 181.566406 85.917969 181.601562 86.007812 C 181.636719 86.097656 181.6875 86.167969 181.753906 86.214844 C 181.816406 86.261719 181.894531 86.292969 181.980469 86.308594 C 182.070312 86.324219 182.167969 86.332031 182.269531 86.332031 L 182.296875 86.332031 L 182.296875 86.726562 L 180.660156 86.726562 L 180.660156 83.457031 C 180.660156 83.253906 180.644531 83.070312 180.605469 82.910156 C 180.570312 82.75 180.511719 82.613281 180.433594 82.5 C 180.351562 82.390625 180.246094 82.304688 180.113281 82.25 C 179.984375 82.191406 179.828125 82.164062 179.640625 82.164062 C 179.4375 82.164062 179.269531 82.203125 179.128906 82.277344 C 178.992188 82.351562 178.882812 82.457031 178.796875 82.585938 C 178.710938 82.714844 178.648438 82.863281 178.613281 83.035156 C 178.578125 83.203125 178.558594 83.382812 178.558594 83.574219 L 178.558594 85.652344 C 178.558594 85.800781 178.578125 85.917969 178.613281 86.007812 C 178.652344 86.097656 178.703125 86.167969 178.765625 86.214844 C 178.828125 86.261719 178.90625 86.292969 178.996094 86.308594 C 179.085938 86.324219 179.179688 86.332031 179.285156 86.332031 L 179.3125 86.332031 L 179.3125 86.726562 L 177.675781 86.726562 L 177.675781 83.457031 C 177.675781 83.253906 177.65625 83.070312 177.621094 82.910156 C 177.585938 82.75 177.53125 82.613281 177.453125 82.5 C 177.378906 82.390625 177.277344 82.304688 177.152344 82.25 C 177.03125 82.191406 176.878906 82.164062 176.703125 82.164062 C 176.5 82.164062 176.332031 82.207031 176.191406 82.289062 C 176.054688 82.371094 175.945312 82.484375 175.859375 82.625 C 175.777344 82.769531 175.714844 82.929688 175.679688 83.117188 C 175.644531 83.300781 175.628906 83.496094 175.628906 83.699219 L 175.628906 85.695312 C 175.628906 85.832031 175.648438 85.945312 175.6875 86.03125 C 175.730469 86.113281 175.785156 86.179688 175.855469 86.222656 C 175.925781 86.265625 176.007812 86.292969 176.101562 86.308594 C 176.195312 86.320312 176.292969 86.328125 176.398438 86.328125 L 176.425781 86.328125 "/>
<path style=" stroke:none;fill-rule:nonzero;fill:rgb(0%,0%,0%);fill-opacity:1;" d="M 185.339844 82.101562 C 184.972656 82.101562 184.691406 82.242188 184.496094 82.53125 C 184.300781 82.816406 184.183594 83.238281 184.148438 83.792969 L 186.410156 83.792969 C 186.410156 83.539062 186.390625 83.308594 186.351562 83.101562 C 186.3125 82.894531 186.253906 82.714844 186.171875 82.566406 C 186.085938 82.417969 185.976562 82.300781 185.839844 82.222656 C 185.703125 82.140625 185.539062 82.101562 185.339844 82.101562 M 185.417969 86.84375 C 185.074219 86.84375 184.769531 86.785156 184.496094 86.667969 C 184.222656 86.550781 183.988281 86.382812 183.800781 86.160156 C 183.613281 85.9375 183.46875 85.664062 183.367188 85.34375 C 183.265625 85.019531 183.21875 84.652344 183.21875 84.238281 C 183.21875 83.351562 183.398438 82.683594 183.765625 82.234375 C 184.136719 81.785156 184.65625 81.5625 185.335938 81.5625 C 185.644531 81.5625 185.921875 81.613281 186.164062 81.710938 C 186.410156 81.808594 186.621094 81.953125 186.792969 82.148438 C 186.964844 82.34375 187.09375 82.585938 187.1875 82.875 C 187.277344 83.164062 187.324219 83.5 187.324219 83.882812 L 187.324219 84.328125 L 184.128906 84.328125 C 184.136719 84.664062 184.171875 84.953125 184.234375 85.191406 C 184.296875 85.433594 184.390625 85.632812 184.507812 85.789062 C 184.628906 85.945312 184.773438 86.058594 184.945312 86.132812 C 185.121094 86.203125 185.320312 86.242188 185.546875 86.242188 C 185.710938 86.242188 185.863281 86.222656 186.003906 86.183594 C 186.144531 86.144531 186.273438 86.09375 186.386719 86.03125 C 186.503906 85.964844 186.601562 85.894531 186.691406 85.808594 C 186.78125 85.730469 186.851562 85.644531 186.90625 85.550781 C 186.949219 85.570312 186.992188 85.609375 187.03125 85.671875 C 187.070312 85.730469 187.089844 85.800781 187.089844 85.882812 C 187.089844 85.980469 187.054688 86.085938 186.984375 86.199219 C 186.917969 86.3125 186.816406 86.414062 186.675781 86.511719 C 186.535156 86.605469 186.363281 86.683594 186.152344 86.746094 C 185.945312 86.8125 185.699219 86.84375 185.417969 86.84375 "/>
<path style=" stroke:none;fill-rule:nonzero;fill:rgb(0%,0%,0%);fill-opacity:1;" d="M 190.617188 86.332031 L 190.617188 86.726562 L 188.089844 86.726562 L 188.089844 86.332031 L 188.164062 86.332031 C 188.273438 86.332031 188.375 86.324219 188.46875 86.308594 C 188.558594 86.292969 188.640625 86.261719 188.710938 86.214844 C 188.777344 86.167969 188.835938 86.097656 188.875 86.011719 C 188.914062 85.921875 188.9375 85.800781 188.9375 85.65625 L 188.9375 82.71875 C 188.9375 82.578125 188.914062 82.46875 188.875 82.382812 C 188.835938 82.300781 188.777344 82.234375 188.707031 82.191406 C 188.636719 82.144531 188.554688 82.113281 188.460938 82.097656 C 188.367188 82.082031 188.269531 82.074219 188.164062 82.074219 L 188.140625 82.074219 L 188.140625 81.679688 L 189.660156 81.679688 L 189.785156 82.417969 L 189.832031 82.417969 C 189.929688 82.242188 190.035156 82.097656 190.144531 81.988281 C 190.257812 81.875 190.371094 81.789062 190.496094 81.726562 C 190.617188 81.664062 190.75 81.621094 190.886719 81.597656 C 191.023438 81.574219 191.171875 81.5625 191.324219 81.5625 C 191.574219 81.5625 191.800781 81.597656 191.996094 81.671875 C 192.191406 81.742188 192.359375 81.855469 192.496094 82.003906 C 192.636719 82.152344 192.742188 82.34375 192.816406 82.582031 C 192.890625 82.8125 192.925781 83.09375 192.925781 83.417969 L 192.925781 85.652344 C 192.925781 85.800781 192.941406 85.917969 192.980469 86.007812 C 193.015625 86.097656 193.0625 86.167969 193.128906 86.214844 C 193.191406 86.261719 193.269531 86.292969 193.355469 86.308594 C 193.445312 86.324219 193.542969 86.332031 193.644531 86.332031 L 193.675781 86.332031 L 193.675781 86.726562 L 192.039062 86.726562 L 192.039062 83.457031 C 192.039062 83.253906 192.019531 83.070312 191.984375 82.910156 C 191.945312 82.75 191.886719 82.613281 191.804688 82.5 C 191.71875 82.390625 191.613281 82.304688 191.476562 82.25 C 191.34375 82.191406 191.179688 82.164062 190.984375 82.164062 C 190.765625 82.164062 190.582031 82.207031 190.433594 82.289062 C 190.285156 82.371094 190.164062 82.484375 190.074219 82.625 C 189.984375 82.769531 189.921875 82.929688 189.878906 83.117188 C 189.839844 83.300781 189.820312 83.496094 189.820312 83.699219 L 189.820312 85.695312 C 189.820312 85.835938 189.84375 85.949219 189.882812 86.035156 C 189.925781 86.117188 189.980469 86.183594 190.050781 86.226562 C 190.121094 86.269531 190.203125 86.296875 190.296875 86.3125 C 190.390625 86.324219 190.488281 86.332031 190.59375 86.332031 L 190.617188 86.332031 "/>
<path style=" stroke:none;fill-rule:nonzero;fill:rgb(0%,0%,0%);fill-opacity:1;" d="M 196.613281 86.375 C 196.726562 86.375 196.828125 86.367188 196.925781 86.355469 C 197.019531 86.34375 197.117188 86.328125 197.214844 86.3125 L 197.214844 86.703125 C 197.175781 86.722656 197.121094 86.738281 197.058594 86.757812 C 196.996094 86.773438 196.925781 86.789062 196.847656 86.800781 C 196.773438 86.8125 196.695312 86.824219 196.613281 86.832031 C 196.53125 86.839844 196.453125 86.84375 196.378906 86.84375 C 196.140625 86.84375 195.9375 86.816406 195.765625 86.765625 C 195.59375 86.714844 195.453125 86.632812 195.339844 86.519531 C 195.230469 86.40625 195.148438 86.253906 195.09375 86.066406 C 195.039062 85.878906 195.015625 85.648438 195.015625 85.378906 L 195.015625 82.21875 L 194.300781 82.21875 L 194.300781 81.839844 C 194.410156 81.839844 194.535156 81.816406 194.671875 81.769531 C 194.808594 81.722656 194.929688 81.644531 195.03125 81.535156 C 195.140625 81.417969 195.226562 81.277344 195.292969 81.117188 C 195.359375 80.953125 195.414062 80.75 195.46875 80.507812 L 195.898438 80.507812 L 195.898438 81.679688 L 197.128906 81.679688 L 197.128906 82.21875 L 195.898438 82.21875 L 195.898438 85.429688 C 195.898438 85.757812 195.964844 85.996094 196.09375 86.148438 C 196.222656 86.300781 196.398438 86.375 196.613281 86.375 "/>
<path style=" stroke:none;fill-rule:nonzero;fill:rgb(0%,0%,0%);fill-opacity:1;" d="M 199.402344 86.84375 C 199.175781 86.84375 198.96875 86.820312 198.785156 86.78125 C 198.601562 86.738281 198.445312 86.675781 198.3125 86.59375 C 198.183594 86.507812 198.085938 86.40625 198.015625 86.28125 C 197.941406 86.15625 197.90625 86.011719 197.90625 85.847656 C 197.90625 85.722656 197.929688 85.617188 197.96875 85.535156 C 198.011719 85.449219 198.0625 85.382812 198.121094 85.335938 C 198.179688 85.285156 198.242188 85.25 198.3125 85.230469 C 198.382812 85.210938 198.445312 85.199219 198.5 85.199219 C 198.5 85.363281 198.515625 85.519531 198.542969 85.664062 C 198.574219 85.808594 198.625 85.933594 198.695312 86.042969 C 198.765625 86.152344 198.855469 86.238281 198.972656 86.300781 C 199.085938 86.363281 199.226562 86.394531 199.390625 86.394531 C 199.539062 86.394531 199.671875 86.371094 199.785156 86.332031 C 199.898438 86.289062 199.992188 86.230469 200.070312 86.152344 C 200.148438 86.078125 200.207031 85.988281 200.246094 85.878906 C 200.285156 85.773438 200.308594 85.65625 200.308594 85.527344 C 200.308594 85.410156 200.289062 85.308594 200.257812 85.222656 C 200.230469 85.136719 200.175781 85.058594 200.097656 84.984375 C 200.019531 84.910156 199.914062 84.832031 199.78125 84.757812 C 199.652344 84.679688 199.484375 84.589844 199.285156 84.492188 C 199.070312 84.382812 198.882812 84.277344 198.726562 84.175781 C 198.566406 84.074219 198.4375 83.964844 198.332031 83.847656 C 198.230469 83.730469 198.152344 83.597656 198.101562 83.445312 C 198.050781 83.296875 198.023438 83.117188 198.023438 82.910156 C 198.023438 82.691406 198.0625 82.5 198.140625 82.332031 C 198.21875 82.164062 198.332031 82.023438 198.476562 81.910156 C 198.625 81.796875 198.796875 81.710938 199 81.652344 C 199.203125 81.59375 199.429688 81.5625 199.679688 81.5625 C 199.886719 81.5625 200.070312 81.585938 200.230469 81.632812 C 200.390625 81.675781 200.523438 81.738281 200.632812 81.8125 C 200.742188 81.890625 200.820312 81.980469 200.875 82.085938 C 200.929688 82.191406 200.957031 82.296875 200.957031 82.414062 C 200.957031 82.582031 200.898438 82.71875 200.78125 82.820312 C 200.664062 82.921875 200.496094 82.96875 200.28125 82.96875 C 200.28125 82.652344 200.226562 82.402344 200.121094 82.222656 C 200.019531 82.046875 199.855469 81.957031 199.632812 81.957031 C 199.503906 81.957031 199.390625 81.976562 199.300781 82.015625 C 199.210938 82.054688 199.136719 82.109375 199.078125 82.183594 C 199.019531 82.253906 198.976562 82.339844 198.949219 82.4375 C 198.925781 82.535156 198.910156 82.644531 198.910156 82.765625 C 198.910156 82.886719 198.929688 82.988281 198.96875 83.078125 C 199.003906 83.164062 199.066406 83.246094 199.148438 83.320312 C 199.230469 83.394531 199.335938 83.46875 199.46875 83.539062 C 199.601562 83.605469 199.757812 83.683594 199.941406 83.773438 C 200.160156 83.878906 200.347656 83.980469 200.503906 84.082031 C 200.664062 84.183594 200.792969 84.296875 200.894531 84.417969 C 200.996094 84.539062 201.070312 84.675781 201.121094 84.828125 C 201.167969 84.976562 201.191406 85.152344 201.191406 85.351562 C 201.191406 85.597656 201.148438 85.816406 201.0625 86 C 200.980469 86.1875 200.859375 86.34375 200.699219 86.46875 C 200.546875 86.59375 200.355469 86.6875 200.136719 86.75 C 199.917969 86.8125 199.671875 86.84375 199.402344 86.84375 "/>
<path style="fill:none;stroke-width:14.173;stroke-linecap:butt;stroke-linejoin:miter;stroke:rgb(0%,0%,0%);stroke-opacity:1;stroke-miterlimit:10;" d="M 450.859375 1433.125 L 450.859375 913.125 " transform="matrix(0.1,0,0,-0.1,0,145)"/>
<path style="fill:none;stroke-width:14.173;stroke-linecap:butt;stroke-linejoin:miter;stroke:rgb(0%,0%,0%);stroke-opacity:1;stroke-miterlimit:10;" d="M 415.429688 968.125 L 450.859375 897.265625 L 486.289062 968.125 " transform="matrix(0.1,0,0,-0.1,0,145)"/>
<path style="fill:none;stroke-width:14.173;stroke-linecap:butt;stroke-linejoin:miter;stroke:rgb(0%,0%,0%);stroke-opacity:1;stroke-miterlimit:10;" d="M 450.859375 362.5 L 450.859375 47.539062 " transform="matrix(0.1,0,0,-0.1,0,145)"/>
<path style="fill:none;stroke-width:14.173;stroke-linecap:butt;stroke-linejoin:miter;stroke:rgb(0%,0%,0%);stroke-opacity:1;stroke-miterlimit:10;" d="M 415.429688 102.578125 L 450.859375 31.679688 L 486.289062 102.578125 " transform="matrix(0.1,0,0,-0.1,0,145)"/>
<path style="fill:none;stroke-width:14.173;stroke-linecap:butt;stroke-linejoin:miter;stroke:rgb(0%,0%,0%);stroke-opacity:1;stroke-miterlimit:10;" d="M 894.648438 625.507812 L 1411.289062 625.507812 " transform="matrix(0.1,0,0,-0.1,0,145)"/>
<path style="fill:none;stroke-width:14.173;stroke-linecap:butt;stroke-linejoin:miter;stroke:rgb(0%,0%,0%);stroke-opacity:1;stroke-miterlimit:10;" d="M 1356.25 590.078125 L 1427.109375 625.507812 L 1356.25 660.9375 " transform="matrix(0.1,0,0,-0.1,0,145)"/>
<path style=" stroke:none;fill-rule:nonzero;fill:rgb(0%,0%,0%);fill-opacity:1;" d="M 53.398438 114.566406 L 52.34375 114.566406 L 51.367188 119.128906 C 51.207031 119.882812 50.96875 120.433594 50.65625 120.78125 C 50.34375 121.132812 49.902344 121.304688 49.332031 121.304688 C 49.152344 121.304688 48.972656 121.28125 48.785156 121.230469 L 48.871094 120.820312 C 49.027344 120.863281 49.171875 120.882812 49.304688 120.882812 C 49.605469 120.882812 49.84375 120.75 50.019531 120.484375 C 50.195312 120.21875 50.351562 119.769531 50.488281 119.140625 L 51.472656 114.566406 L 50.621094 114.566406 L 50.675781 114.230469 L 51.578125 114.03125 L 51.679688 113.511719 C 51.898438 112.371094 52.484375 111.800781 53.433594 111.800781 C 53.828125 111.800781 54.125 111.863281 54.324219 111.992188 C 54.523438 112.113281 54.621094 112.28125 54.621094 112.488281 C 54.621094 112.890625 54.363281 113.09375 53.84375 113.09375 C 53.84375 112.511719 53.691406 112.222656 53.386719 112.222656 C 53.167969 112.222656 52.996094 112.324219 52.875 112.519531 C 52.753906 112.71875 52.65625 113.015625 52.582031 113.421875 L 52.460938 114.03125 L 53.5 114.03125 L 53.398438 114.566406 "/>
<path style=" stroke:none;fill-rule:nonzero;fill:rgb(0%,0%,0%);fill-opacity:1;" d="M 56.433594 117.671875 L 56.375 117.671875 C 55.929688 118.6875 55.351562 119.195312 54.636719 119.195312 C 54.261719 119.195312 53.964844 119.042969 53.757812 118.738281 C 53.546875 118.429688 53.441406 118.003906 53.441406 117.457031 C 53.441406 116.585938 53.707031 115.777344 54.238281 115.03125 C 54.773438 114.285156 55.429688 113.914062 56.210938 113.914062 C 56.632812 113.914062 56.996094 114.027344 57.304688 114.257812 L 57.714844 114.03125 L 58.019531 114.03125 L 57.378906 117.0625 C 57.285156 117.496094 57.238281 117.847656 57.238281 118.113281 C 57.238281 118.4375 57.34375 118.601562 57.546875 118.601562 C 57.722656 118.601562 57.949219 118.519531 58.226562 118.359375 L 58.394531 118.632812 C 57.945312 119.007812 57.503906 119.195312 57.070312 119.195312 C 56.582031 119.195312 56.335938 118.929688 56.335938 118.40625 C 56.335938 118.203125 56.367188 117.960938 56.433594 117.671875 M 56.964844 114.683594 C 56.824219 114.453125 56.589844 114.335938 56.265625 114.335938 C 55.738281 114.335938 55.300781 114.679688 54.945312 115.371094 C 54.589844 116.058594 54.410156 116.769531 54.410156 117.5 C 54.410156 118.234375 54.601562 118.601562 54.988281 118.601562 C 55.292969 118.601562 55.613281 118.367188 55.949219 117.898438 C 56.285156 117.429688 56.507812 116.921875 56.617188 116.367188 L 56.964844 114.683594 "/>
<path style=" stroke:none;fill-rule:nonzero;fill:rgb(0%,0%,0%);fill-opacity:1;" d="M 59.613281 112.3125 L 59.695312 111.917969 L 61.46875 111.917969 L 60.382812 117.070312 C 60.289062 117.519531 60.242188 117.867188 60.242188 118.117188 C 60.242188 118.441406 60.34375 118.601562 60.554688 118.601562 C 60.734375 118.601562 60.957031 118.519531 61.226562 118.359375 L 61.398438 118.632812 C 60.960938 119.007812 60.539062 119.195312 60.128906 119.195312 C 59.902344 119.195312 59.714844 119.109375 59.570312 118.945312 C 59.425781 118.777344 59.351562 118.5625 59.351562 118.296875 C 59.351562 118 59.421875 117.503906 59.558594 116.808594 L 60.324219 113.183594 C 60.363281 112.992188 60.382812 112.851562 60.382812 112.757812 C 60.382812 112.460938 60.164062 112.3125 59.722656 112.3125 L 59.613281 112.3125 "/>
<path style=" stroke:none;fill-rule:nonzero;fill:rgb(0%,0%,0%);fill-opacity:1;" d="M 64.953125 115.4375 C 64.953125 115.105469 64.878906 114.839844 64.726562 114.636719 C 64.578125 114.4375 64.371094 114.335938 64.105469 114.335938 C 63.824219 114.335938 63.597656 114.410156 63.433594 114.566406 C 63.269531 114.71875 63.1875 114.917969 63.1875 115.15625 C 63.1875 115.367188 63.265625 115.546875 63.425781 115.699219 C 63.582031 115.847656 63.828125 115.992188 64.160156 116.140625 C 64.925781 116.480469 65.304688 116.976562 65.304688 117.621094 C 65.304688 118.09375 65.125 118.472656 64.769531 118.761719 C 64.410156 119.050781 63.9375 119.195312 63.347656 119.195312 C 62.871094 119.195312 62.488281 119.101562 62.207031 118.914062 C 61.925781 118.726562 61.785156 118.472656 61.785156 118.15625 C 61.785156 117.960938 61.839844 117.808594 61.953125 117.707031 C 62.0625 117.601562 62.203125 117.550781 62.375 117.550781 C 62.375 117.9375 62.472656 118.238281 62.660156 118.453125 C 62.851562 118.664062 63.121094 118.773438 63.464844 118.773438 C 64.148438 118.773438 64.488281 118.476562 64.488281 117.882812 C 64.488281 117.65625 64.417969 117.464844 64.269531 117.304688 C 64.125 117.148438 63.875 116.988281 63.527344 116.824219 C 63.070312 116.605469 62.761719 116.378906 62.605469 116.148438 C 62.449219 115.914062 62.371094 115.648438 62.371094 115.34375 C 62.371094 114.921875 62.539062 114.582031 62.875 114.316406 C 63.210938 114.046875 63.648438 113.914062 64.1875 113.914062 C 64.648438 113.914062 65.011719 114.003906 65.269531 114.179688 C 65.527344 114.355469 65.65625 114.574219 65.65625 114.835938 C 65.65625 115.238281 65.421875 115.4375 64.953125 115.4375 "/>
<path style=" stroke:none;fill-rule:nonzero;fill:rgb(0%,0%,0%);fill-opacity:1;" d="M 69.671875 117.929688 C 69.734375 117.96875 69.765625 118.046875 69.765625 118.160156 C 69.765625 118.410156 69.621094 118.648438 69.328125 118.863281 C 69.039062 119.085938 68.652344 119.195312 68.164062 119.195312 C 67.625 119.195312 67.191406 119.019531 66.859375 118.667969 C 66.527344 118.320312 66.363281 117.839844 66.363281 117.230469 C 66.363281 116.402344 66.625 115.640625 67.144531 114.953125 C 67.664062 114.257812 68.324219 113.914062 69.117188 113.914062 C 69.511719 113.914062 69.816406 114.007812 70.03125 114.195312 C 70.246094 114.382812 70.351562 114.644531 70.351562 114.980469 C 70.351562 115.480469 70.09375 115.917969 69.574219 116.289062 C 69.054688 116.660156 68.421875 116.847656 67.671875 116.847656 L 67.515625 116.847656 C 67.460938 116.847656 67.40625 116.84375 67.347656 116.839844 C 67.335938 116.929688 67.332031 117.066406 67.332031 117.253906 C 67.332031 118.152344 67.667969 118.601562 68.34375 118.601562 C 68.867188 118.601562 69.3125 118.378906 69.671875 117.929688 M 67.433594 116.425781 L 67.523438 116.425781 C 68.0625 116.425781 68.507812 116.289062 68.859375 116.019531 C 69.210938 115.75 69.382812 115.398438 69.382812 114.96875 C 69.382812 114.546875 69.207031 114.335938 68.851562 114.335938 C 68.558594 114.335938 68.28125 114.527344 68.023438 114.910156 C 67.769531 115.292969 67.570312 115.796875 67.433594 116.425781 "/>
<path style=" stroke:none;fill-rule:nonzero;fill:rgb(0%,0%,0%);fill-opacity:1;" d="M 93.914062 76.832031 L 94.066406 77.179688 C 93.660156 77.476562 93.25 77.628906 92.84375 77.628906 C 92.183594 77.628906 91.851562 77.261719 91.851562 76.523438 C 91.851562 76.289062 91.882812 76.023438 91.945312 75.730469 L 92.519531 73.003906 L 91.800781 73.003906 L 91.890625 72.625 C 92.5 72.625 92.980469 72.179688 93.324219 71.292969 L 93.753906 71.292969 L 93.507812 72.464844 L 94.550781 72.464844 L 94.445312 73.003906 L 93.394531 73.003906 L 92.828125 75.679688 C 92.75 76.039062 92.714844 76.3125 92.714844 76.5 C 92.714844 76.855469 92.871094 77.035156 93.1875 77.035156 C 93.429688 77.035156 93.671875 76.96875 93.914062 76.832031 "/>
<path style=" stroke:none;fill-rule:nonzero;fill:rgb(0%,0%,0%);fill-opacity:1;" d="M 98.25 73.707031 C 98.25 73.214844 98.136719 72.964844 97.902344 72.964844 C 97.636719 72.964844 97.355469 73.253906 97.054688 73.832031 C 96.753906 74.40625 96.535156 75.058594 96.390625 75.789062 L 96.035156 77.511719 L 95.15625 77.511719 L 95.945312 73.710938 C 95.980469 73.539062 96 73.402344 96 73.296875 C 96 73.003906 95.753906 72.859375 95.253906 72.859375 L 95.175781 72.859375 L 95.265625 72.464844 L 96.921875 72.464844 L 96.730469 73.800781 L 96.820312 73.800781 C 97.054688 73.238281 97.285156 72.855469 97.511719 72.652344 C 97.742188 72.449219 98.007812 72.347656 98.308594 72.347656 C 98.789062 72.347656 99.03125 72.5625 99.03125 72.992188 C 99.03125 73.46875 98.769531 73.707031 98.25 73.707031 "/>
<path style=" stroke:none;fill-rule:nonzero;fill:rgb(0%,0%,0%);fill-opacity:1;" d="M 99.859375 72.464844 L 101.605469 72.464844 L 100.988281 75.300781 C 100.863281 75.875 100.800781 76.257812 100.800781 76.449219 C 100.800781 76.839844 100.945312 77.035156 101.242188 77.035156 C 101.550781 77.035156 101.886719 76.800781 102.242188 76.328125 C 102.601562 75.855469 102.835938 75.355469 102.949219 74.824219 L 103.4375 72.464844 L 104.347656 72.464844 L 103.699219 75.507812 C 103.605469 75.957031 103.558594 76.304688 103.558594 76.558594 C 103.558594 76.875 103.660156 77.035156 103.871094 77.035156 C 104.046875 77.035156 104.246094 76.96875 104.472656 76.832031 L 104.640625 77.105469 C 104.242188 77.453125 103.84375 77.628906 103.449219 77.628906 C 103.214844 77.628906 103.023438 77.542969 102.878906 77.378906 C 102.730469 77.210938 102.660156 76.996094 102.660156 76.742188 C 102.660156 76.578125 102.675781 76.390625 102.703125 76.179688 L 102.632812 76.179688 C 102.300781 76.746094 102.007812 77.128906 101.746094 77.328125 C 101.484375 77.527344 101.191406 77.628906 100.863281 77.628906 C 100.214844 77.628906 99.886719 77.277344 99.886719 76.578125 C 99.886719 76.378906 99.945312 76.03125 100.054688 75.535156 L 100.421875 73.875 C 100.476562 73.625 100.503906 73.4375 100.503906 73.3125 C 100.503906 73.011719 100.289062 72.859375 99.851562 72.859375 L 99.777344 72.859375 L 99.859375 72.464844 "/>
<path style=" stroke:none;fill-rule:nonzero;fill:rgb(0%,0%,0%);fill-opacity:1;" d="M 108.578125 76.363281 C 108.640625 76.402344 108.671875 76.480469 108.671875 76.597656 C 108.671875 76.847656 108.527344 77.082031 108.238281 77.300781 C 107.945312 77.519531 107.558594 77.628906 107.070312 77.628906 C 106.53125 77.628906 106.097656 77.453125 105.765625 77.105469 C 105.4375 76.753906 105.269531 76.273438 105.269531 75.664062 C 105.269531 74.835938 105.53125 74.078125 106.050781 73.386719 C 106.574219 72.695312 107.230469 72.347656 108.027344 72.347656 C 108.417969 72.347656 108.722656 72.441406 108.9375 72.632812 C 109.152344 72.816406 109.257812 73.078125 109.257812 73.414062 C 109.257812 73.914062 109 74.351562 108.480469 74.722656 C 107.960938 75.09375 107.328125 75.28125 106.582031 75.28125 L 106.421875 75.28125 C 106.371094 75.28125 106.3125 75.277344 106.257812 75.273438 C 106.246094 75.363281 106.238281 75.5 106.238281 75.6875 C 106.238281 76.585938 106.574219 77.035156 107.25 77.035156 C 107.777344 77.035156 108.21875 76.8125 108.578125 76.363281 M 106.339844 74.859375 L 106.429688 74.859375 C 106.972656 74.859375 107.414062 74.726562 107.765625 74.453125 C 108.117188 74.183594 108.289062 73.832031 108.289062 73.402344 C 108.289062 72.980469 108.113281 72.769531 107.761719 72.769531 C 107.464844 72.769531 107.1875 72.960938 106.929688 73.34375 C 106.675781 73.726562 106.476562 74.234375 106.339844 74.859375 "/>
<path style="fill:none;stroke-width:14.173;stroke-linecap:butt;stroke-linejoin:miter;stroke:rgb(0%,0%,0%);stroke-opacity:1;stroke-miterlimit:10;" d="M 1769.492188 763.4375 L 1769.492188 1149.6875 L 482.539062 1149.6875 " transform="matrix(0.1,0,0,-0.1,0,145)"/>
<path style="fill:none;stroke-width:14.173;stroke-linecap:butt;stroke-linejoin:miter;stroke:rgb(0%,0%,0%);stroke-opacity:1;stroke-miterlimit:10;" d="M 537.578125 1185.117188 L 466.71875 1149.6875 L 537.578125 1114.257812 " transform="matrix(0.1,0,0,-0.1,0,145)"/>
</g>
</svg>
